<svg width="112" height="30" viewBox="0 0 112 30" fill="none" xmlns="http://www.w3.org/2000/svg">
<path d="M14.0827 7.18586C15.9767 7.18586 17.6677 7.66649 19.1558 8.62735C20.6574 9.57447 21.8343 10.9198 22.6866 12.6628C23.5118 14.3376 23.9244 16.3076 23.9244 18.5725C23.9244 20.7687 23.5118 22.7317 22.6866 24.4614C21.8614 26.1907 20.698 27.5431 19.1963 28.5177C17.6812 29.506 15.9767 30 14.0827 30C12.7029 30 11.4042 29.7118 10.1866 29.1353C8.9691 28.5585 7.92746 27.7488 7.06167 26.7055V29.4766H0V0H7.06167V10.4599C7.92746 9.41662 8.9691 8.61361 10.1866 8.05092C11.4042 7.47408 12.7029 7.18586 14.0827 7.18586ZM11.9723 24.0495C12.9734 24.0495 13.8663 23.8162 14.6509 23.3493C15.4355 22.8825 16.0511 22.2306 16.4975 21.3935C16.9439 20.5696 17.1671 19.6292 17.1671 18.5725C17.1671 17.5429 16.9439 16.6096 16.4975 15.772C16.0511 14.9348 15.4355 14.2826 14.6509 13.8161C13.8663 13.3492 12.9734 13.116 11.9723 13.116C11.0254 13.116 10.1799 13.3492 9.43585 13.8161C8.69179 14.2692 8.11009 14.9073 7.6907 15.7308C7.27135 16.5683 7.06167 17.5154 7.06167 18.5725C7.06167 19.6292 7.27135 20.5767 7.6907 21.4139C8.11009 22.2373 8.69179 22.8825 9.43585 23.3493C10.1799 23.8162 11.0254 24.0495 11.9723 24.0495Z" fill="white"/>
<path d="M24.8912 29.4766V0H31.9528V29.4766H24.8912Z" fill="white"/>
<path d="M33.9543 29.4765V7.67432H40.9755V29.4765H33.9543Z" fill="white"/>
<path d="M56.2277 7.18589C57.7294 7.18589 59.0825 7.54283 60.2862 8.25671C61.4903 8.95684 62.4371 9.94519 63.127 11.2218C63.7902 12.5121 64.1214 13.974 64.1214 15.6075V29.4766H57.3846V17.2135C57.3846 16.4172 57.2291 15.7104 56.9176 15.0927C56.6201 14.4613 56.194 13.974 55.6392 13.6308C55.0983 13.2876 54.4626 13.116 53.732 13.116C53.0421 13.116 52.406 13.2876 51.8245 13.6308C51.2426 13.9602 50.7895 14.4134 50.4648 14.9898C50.1267 15.5388 49.9576 16.1839 49.9576 16.9253L49.9169 29.4766H42.8958V7.68026H49.9169V10.1718C50.5798 9.23838 51.4658 8.51076 52.5751 7.9889C53.6844 7.45369 54.9021 7.18589 56.2277 7.18589Z" fill="white"/>
<path d="M79.6375 17.2135L87.604 29.4766H79.6294L74.9704 21.7637L72.8195 24.2965V29.4766H65.7577V0H72.8195V16.2868L79.6085 7.66885L87.5776 7.67434L79.6375 17.2135Z" fill="white"/>
<path d="M33.9504 0.00240653H40.9948V5.58146H33.9504V0.00240653Z" fill="white"/>
<path d="M88.6773 29.4781V7.67432H95.7216V29.4781H88.6773Z" fill="white"/>
<path d="M110.6 23.2634L112 27.8549C111.364 28.473 110.559 28.9736 109.585 29.358C108.625 29.7425 107.685 29.9349 106.765 29.9349C105.439 29.9349 104.255 29.6396 103.214 29.0494C102.172 28.4455 101.36 27.6079 100.778 26.5371C100.197 25.4942 99.9059 24.293 99.9059 22.934V13.3139H97.0855V7.67439H99.9059V0.00240653H106.643V7.67439H111.087V13.3139H106.643V21.6161C106.643 22.3163 106.826 22.886 107.191 23.325C107.556 23.7644 108.023 23.9839 108.591 23.9839C108.997 23.9839 109.375 23.9223 109.727 23.7986C110.079 23.6753 110.37 23.4966 110.6 23.2634Z" fill="white"/>
<path d="M88.6773 0.00240653H95.7216V5.58146H88.6773V0.00240653Z" fill="white"/>
</svg>
