<svg width="371" height="443" viewBox="0 0 371 443" fill="none" xmlns="http://www.w3.org/2000/svg">
<rect x="51.25" y="374.871" width="270.5" height="67.8604" fill="#1C1C1F" stroke="url(#paint0_linear_1_18)" stroke-width="0.5"/>
<path d="M51.5866 374.371L83.6591 340.962H289.341L321.413 374.371H51.5866Z" fill="#1C1C1F" stroke="#677990" stroke-width="0.5"/>
<line x1="84.25" y1="341" x2="84.25" y2="375" stroke="#677990" stroke-width="0.5"/>
<line x1="289.25" y1="341" x2="289.25" y2="375" stroke="#677990" stroke-width="0.5"/>
<rect x="84.5" y="48.5" width="202" height="264" rx="11.5" fill="url(#paint1_linear_1_18)" stroke="url(#paint2_linear_1_18)"/>
<rect x="99" y="290" width="28" height="8" rx="4" fill="#545460"/>
<g style="mix-blend-mode:plus-lighter" opacity="0.6">
<path d="M0 175H371L301 374H70L0 175Z" fill="url(#paint3_linear_1_18)"/>
</g>
<rect x="99" y="73" width="173" height="20" rx="5" fill="#09DE4C"/>
<rect x="99" y="107" width="133" height="8" rx="4" fill="#545460"/>
<rect x="99" y="145" width="152" height="8" rx="4" fill="#9040FF"/>
<rect x="99" y="165" width="107" height="8" rx="4" fill="#545460"/>
<rect x="99" y="205" width="140" height="8" rx="4" fill="#545460"/>
<rect x="99" y="226" width="140" height="8" rx="4" fill="#545460"/>
<rect x="99" y="250" width="80" height="8" rx="4" fill="#545460"/>
<path d="M268.9 217.095L270.505 230.688C270.61 231.579 271.744 231.892 272.291 231.18L274.848 227.852C275.332 227.222 276.046 226.81 276.833 226.706L280.995 226.155C281.884 226.038 282.18 224.899 281.461 224.362L270.491 216.176C269.788 215.651 268.797 216.223 268.9 217.095Z" fill="#00AB36" stroke="#00AB36" stroke-width="2"/>
<rect x="277" y="232" width="94" height="19" rx="4" fill="#00AB36"/>
<path d="M288.785 239.565C288.74 239.162 288.552 238.849 288.223 238.628C287.893 238.403 287.478 238.291 286.978 238.291C286.62 238.291 286.311 238.348 286.049 238.462C285.788 238.572 285.585 238.726 285.44 238.922C285.298 239.115 285.227 239.335 285.227 239.582C285.227 239.79 285.275 239.969 285.372 240.119C285.471 240.27 285.6 240.396 285.76 240.499C285.922 240.598 286.095 240.682 286.279 240.75C286.464 240.815 286.642 240.869 286.812 240.912L287.664 241.134C287.943 241.202 288.228 241.294 288.521 241.411C288.814 241.527 289.085 241.68 289.335 241.871C289.585 242.061 289.787 242.297 289.94 242.578C290.096 242.859 290.174 243.196 290.174 243.588C290.174 244.082 290.047 244.521 289.791 244.905C289.538 245.288 289.17 245.591 288.687 245.812C288.207 246.034 287.626 246.145 286.944 246.145C286.291 246.145 285.725 246.041 285.248 245.834C284.771 245.626 284.397 245.332 284.127 244.952C283.858 244.568 283.708 244.114 283.68 243.588H285.001C285.027 243.903 285.129 244.166 285.308 244.376C285.49 244.584 285.721 244.739 286.002 244.841C286.287 244.94 286.598 244.99 286.936 244.99C287.308 244.99 287.639 244.932 287.929 244.815C288.221 244.696 288.451 244.531 288.619 244.321C288.787 244.108 288.87 243.859 288.87 243.575C288.87 243.317 288.797 243.105 288.649 242.94C288.504 242.776 288.306 242.639 288.056 242.531C287.809 242.423 287.529 242.328 287.217 242.246L286.186 241.964C285.487 241.774 284.933 241.494 284.524 241.125C284.118 240.756 283.914 240.267 283.914 239.659C283.914 239.156 284.051 238.717 284.324 238.342C284.596 237.967 284.966 237.676 285.431 237.469C285.897 237.259 286.423 237.153 287.008 237.153C287.599 237.153 288.12 237.257 288.572 237.464C289.027 237.672 289.385 237.957 289.646 238.321C289.907 238.682 290.044 239.097 290.055 239.565H288.785ZM294.467 246.132C293.822 246.132 293.266 245.994 292.8 245.719C292.337 245.44 291.979 245.05 291.727 244.547C291.477 244.041 291.352 243.449 291.352 242.77C291.352 242.099 291.477 241.509 291.727 240.997C291.979 240.486 292.332 240.087 292.783 239.8C293.238 239.513 293.769 239.369 294.377 239.369C294.746 239.369 295.104 239.43 295.451 239.553C295.798 239.675 296.109 239.866 296.384 240.128C296.66 240.389 296.877 240.729 297.036 241.146C297.195 241.561 297.275 242.065 297.275 242.659V243.111H292.072V242.156H296.026C296.026 241.821 295.958 241.524 295.822 241.266C295.685 241.004 295.494 240.798 295.246 240.648C295.002 240.497 294.715 240.422 294.386 240.422C294.028 240.422 293.715 240.51 293.448 240.686C293.184 240.859 292.979 241.087 292.835 241.368C292.692 241.646 292.621 241.949 292.621 242.276V243.021C292.621 243.459 292.698 243.831 292.852 244.138C293.008 244.445 293.225 244.679 293.504 244.841C293.782 245 294.107 245.08 294.479 245.08C294.721 245.08 294.941 245.045 295.14 244.977C295.339 244.906 295.511 244.801 295.656 244.662C295.8 244.523 295.911 244.351 295.988 244.146L297.194 244.364C297.097 244.719 296.924 245.03 296.674 245.297C296.427 245.561 296.116 245.767 295.741 245.915C295.369 246.06 294.944 246.132 294.467 246.132ZM301.446 246.132C300.812 246.132 300.267 245.989 299.809 245.702C299.355 245.412 299.005 245.013 298.761 244.504C298.517 243.996 298.395 243.413 298.395 242.757C298.395 242.092 298.52 241.506 298.77 240.997C299.02 240.486 299.372 240.087 299.826 239.8C300.281 239.513 300.816 239.369 301.433 239.369C301.93 239.369 302.373 239.462 302.762 239.646C303.152 239.828 303.466 240.084 303.704 240.413C303.946 240.743 304.089 241.128 304.135 241.568H302.895C302.826 241.261 302.67 240.997 302.426 240.776C302.184 240.554 301.86 240.443 301.454 240.443C301.099 240.443 300.788 240.537 300.521 240.724C300.257 240.909 300.051 241.173 299.903 241.517C299.755 241.858 299.681 242.261 299.681 242.727C299.681 243.205 299.754 243.616 299.899 243.963C300.044 244.31 300.248 244.578 300.512 244.768C300.779 244.959 301.093 245.054 301.454 245.054C301.696 245.054 301.914 245.01 302.11 244.922C302.309 244.831 302.475 244.702 302.609 244.534C302.745 244.366 302.841 244.165 302.895 243.929H304.135C304.089 244.352 303.951 244.73 303.721 245.062C303.491 245.395 303.183 245.656 302.797 245.847C302.413 246.037 301.963 246.132 301.446 246.132ZM309.643 243.286V239.455H310.922V246H309.669V244.866H309.601C309.45 245.216 309.209 245.507 308.876 245.74C308.547 245.97 308.136 246.085 307.645 246.085C307.224 246.085 306.852 245.993 306.528 245.808C306.207 245.621 305.955 245.344 305.77 244.977C305.588 244.611 305.497 244.158 305.497 243.618V239.455H306.771V243.464C306.771 243.911 306.895 244.266 307.142 244.53C307.389 244.794 307.71 244.926 308.105 244.926C308.344 244.926 308.581 244.866 308.817 244.747C309.055 244.628 309.253 244.447 309.409 244.206C309.568 243.964 309.646 243.658 309.643 243.286ZM312.634 246V239.455H313.865V240.494H313.934C314.053 240.142 314.263 239.865 314.564 239.663C314.868 239.459 315.212 239.357 315.596 239.357C315.675 239.357 315.769 239.359 315.877 239.365C315.988 239.371 316.074 239.378 316.137 239.386V240.605C316.086 240.591 315.995 240.575 315.864 240.558C315.733 240.538 315.603 240.528 315.472 240.528C315.171 240.528 314.902 240.592 314.667 240.72C314.434 240.845 314.249 241.02 314.113 241.244C313.976 241.466 313.908 241.719 313.908 242.003V246H312.634ZM319.826 246.132C319.181 246.132 318.626 245.994 318.16 245.719C317.697 245.44 317.339 245.05 317.086 244.547C316.836 244.041 316.711 243.449 316.711 242.77C316.711 242.099 316.836 241.509 317.086 240.997C317.339 240.486 317.691 240.087 318.143 239.8C318.597 239.513 319.129 239.369 319.737 239.369C320.106 239.369 320.464 239.43 320.81 239.553C321.157 239.675 321.468 239.866 321.744 240.128C322.019 240.389 322.237 240.729 322.396 241.146C322.555 241.561 322.634 242.065 322.634 242.659V243.111H317.431V242.156H321.386C321.386 241.821 321.317 241.524 321.181 241.266C321.045 241.004 320.853 240.798 320.606 240.648C320.362 240.497 320.075 240.422 319.745 240.422C319.387 240.422 319.075 240.51 318.808 240.686C318.543 240.859 318.339 241.087 318.194 241.368C318.052 241.646 317.981 241.949 317.981 242.276V243.021C317.981 243.459 318.058 243.831 318.211 244.138C318.367 244.445 318.585 244.679 318.863 244.841C319.141 245 319.467 245.08 319.839 245.08C320.08 245.08 320.3 245.045 320.499 244.977C320.698 244.906 320.87 244.801 321.015 244.662C321.16 244.523 321.271 244.351 321.347 244.146L322.553 244.364C322.457 244.719 322.283 245.03 322.033 245.297C321.786 245.561 321.475 245.767 321.1 245.915C320.728 246.06 320.303 246.132 319.826 246.132ZM327.326 237.273H328.924L331.702 244.057H331.805L334.583 237.273H336.181V246H334.928V239.685H334.847L332.273 245.987H331.234L328.66 239.68H328.579V246H327.326V237.273ZM338.799 248.455C338.608 248.455 338.435 248.439 338.279 248.408C338.123 248.379 338.006 248.348 337.929 248.314L338.236 247.27C338.469 247.332 338.676 247.359 338.858 247.351C339.04 247.342 339.201 247.274 339.34 247.146C339.482 247.018 339.607 246.81 339.715 246.52L339.873 246.085L337.478 239.455H338.841L340.499 244.534H340.567L342.225 239.455H343.593L340.895 246.874C340.77 247.214 340.611 247.503 340.418 247.739C340.225 247.977 339.995 248.156 339.728 248.276C339.461 248.395 339.151 248.455 338.799 248.455ZM352.473 241.636C352.473 242.568 352.303 243.369 351.962 244.04C351.621 244.707 351.154 245.222 350.56 245.582C349.969 245.94 349.297 246.119 348.544 246.119C347.789 246.119 347.114 245.94 346.52 245.582C345.929 245.222 345.463 244.706 345.123 244.036C344.782 243.365 344.611 242.565 344.611 241.636C344.611 240.705 344.782 239.905 345.123 239.237C345.463 238.567 345.929 238.053 346.52 237.695C347.114 237.334 347.789 237.153 348.544 237.153C349.297 237.153 349.969 237.334 350.56 237.695C351.154 238.053 351.621 238.567 351.962 239.237C352.303 239.905 352.473 240.705 352.473 241.636ZM351.169 241.636C351.169 240.926 351.054 240.328 350.824 239.842C350.597 239.354 350.284 238.984 349.887 238.734C349.492 238.482 349.044 238.355 348.544 238.355C348.042 238.355 347.593 238.482 347.198 238.734C346.803 238.984 346.49 239.354 346.26 239.842C346.033 240.328 345.919 240.926 345.919 241.636C345.919 242.347 346.033 242.946 346.26 243.435C346.49 243.92 346.803 244.29 347.198 244.543C347.593 244.793 348.042 244.918 348.544 244.918C349.044 244.918 349.492 244.793 349.887 244.543C350.284 244.29 350.597 243.92 350.824 243.435C351.054 242.946 351.169 242.347 351.169 241.636ZM354.013 246V239.455H355.244V240.494H355.312C355.432 240.142 355.642 239.865 355.943 239.663C356.247 239.459 356.591 239.357 356.974 239.357C357.054 239.357 357.148 239.359 357.256 239.365C357.366 239.371 357.453 239.378 357.516 239.386V240.605C357.464 240.591 357.374 240.575 357.243 240.558C357.112 240.538 356.982 240.528 356.851 240.528C356.55 240.528 356.281 240.592 356.045 240.72C355.813 240.845 355.628 241.02 355.491 241.244C355.355 241.466 355.287 241.719 355.287 242.003V246H354.013ZM361.128 248.591C360.608 248.591 360.161 248.523 359.786 248.386C359.414 248.25 359.11 248.07 358.874 247.845C358.638 247.621 358.462 247.375 358.346 247.108L359.441 246.656C359.517 246.781 359.62 246.913 359.748 247.053C359.878 247.195 360.054 247.315 360.276 247.415C360.5 247.514 360.789 247.564 361.141 247.564C361.624 247.564 362.023 247.446 362.338 247.21C362.654 246.977 362.811 246.605 362.811 246.094V244.807H362.73C362.654 244.946 362.543 245.101 362.398 245.271C362.256 245.442 362.06 245.589 361.81 245.714C361.56 245.839 361.235 245.902 360.834 245.902C360.317 245.902 359.851 245.781 359.436 245.54C359.025 245.295 358.698 244.936 358.456 244.462C358.218 243.984 358.098 243.398 358.098 242.702C358.098 242.006 358.216 241.409 358.452 240.912C358.691 240.415 359.017 240.034 359.432 239.77C359.847 239.503 360.317 239.369 360.843 239.369C361.249 239.369 361.577 239.438 361.827 239.574C362.077 239.707 362.272 239.864 362.411 240.043C362.553 240.222 362.662 240.379 362.739 240.516H362.833V239.455H364.081V246.145C364.081 246.707 363.951 247.169 363.689 247.53C363.428 247.891 363.074 248.158 362.628 248.331C362.185 248.504 361.685 248.591 361.128 248.591ZM361.115 244.845C361.482 244.845 361.792 244.76 362.044 244.589C362.3 244.416 362.493 244.169 362.624 243.848C362.757 243.524 362.824 243.136 362.824 242.685C362.824 242.244 362.759 241.857 362.628 241.521C362.498 241.186 362.306 240.925 362.053 240.737C361.8 240.547 361.488 240.452 361.115 240.452C360.732 240.452 360.412 240.551 360.157 240.75C359.901 240.946 359.708 241.213 359.577 241.551C359.449 241.889 359.385 242.267 359.385 242.685C359.385 243.114 359.451 243.49 359.581 243.814C359.712 244.138 359.905 244.391 360.161 244.572C360.419 244.754 360.738 244.845 361.115 244.845Z" fill="white"/>
<path d="M143 8.93137C143 8.32555 143 8.02265 142.88 7.88238C142.776 7.76068 142.62 7.69609 142.461 7.70865C142.277 7.72312 142.063 7.93731 141.634 8.36569L138 12L141.634 15.6343C142.063 16.0627 142.277 16.2769 142.461 16.2914C142.62 16.3039 142.776 16.2393 142.88 16.1176C143 15.9774 143 15.6744 143 15.0686V8.93137Z" stroke="#D5DAE2" stroke-width="2" stroke-linecap="round" stroke-linejoin="round"/>
<path d="M123 9.8C123 8.11984 123 7.27976 123.327 6.63803C123.615 6.07354 124.074 5.6146 124.638 5.32698C125.28 5 126.12 5 127.8 5H133.2C134.88 5 135.72 5 136.362 5.32698C136.926 5.6146 137.385 6.07354 137.673 6.63803C138 7.27976 138 8.11984 138 9.8V14.2C138 15.8802 138 16.7202 137.673 17.362C137.385 17.9265 136.926 18.3854 136.362 18.673C135.72 19 134.88 19 133.2 19H127.8C126.12 19 125.28 19 124.638 18.673C124.074 18.3854 123.615 17.9265 123.327 17.362C123 16.7202 123 15.8802 123 14.2V9.8Z" stroke="#D5DAE2" stroke-width="2" stroke-linecap="round" stroke-linejoin="round"/>
<path d="M190 3.46776C191.482 4.20411 192.5 5.73314 192.5 7.5C192.5 9.26686 191.482 10.7959 190 11.5322M192 16.7664C193.511 17.4503 194.873 18.565 196 20M176 20C177.946 17.5226 180.589 16 183.5 16C186.411 16 189.054 17.5226 191 20M188 7.5C188 9.98528 185.985 12 183.5 12C181.015 12 179 9.98528 179 7.5C179 5.01472 181.015 3 183.5 3C185.985 3 188 5.01472 188 7.5Z" stroke="#D5DAE2" stroke-width="2" stroke-linecap="round" stroke-linejoin="round"/>
<path d="M247.5 7.27774L239 12M239 12L230.5 7.27774M239 12L239 21.5M248 16.0585V7.94144C248 7.5988 248 7.42747 247.95 7.27468C247.905 7.1395 247.832 7.01542 247.735 6.91073C247.626 6.79239 247.477 6.70919 247.177 6.54279L239.777 2.43168C239.493 2.27412 239.352 2.19534 239.201 2.16445C239.069 2.13712 238.931 2.13712 238.799 2.16445C238.648 2.19534 238.507 2.27412 238.223 2.43168L230.823 6.54279C230.523 6.70919 230.374 6.79239 230.265 6.91073C230.168 7.01542 230.095 7.1395 230.05 7.27468C230 7.42748 230 7.5988 230 7.94144V16.0585C230 16.4012 230 16.5725 230.05 16.7253C230.095 16.8605 230.168 16.9846 230.265 17.0893C230.374 17.2076 230.523 17.2908 230.823 17.4572L238.223 21.5683C238.507 21.7259 238.648 21.8046 238.799 21.8355C238.931 21.8629 239.069 21.8629 239.201 21.8355C239.352 21.8046 239.493 21.7259 239.777 21.5683L247.177 17.4572C247.477 17.2908 247.626 17.2076 247.735 17.0893C247.832 16.9846 247.905 16.8605 247.95 16.7253C248 16.5725 248 16.4012 248 16.0585Z" stroke="#D5DAE2" stroke-width="2" stroke-linecap="round" stroke-linejoin="round"/>
<circle cx="212.5" cy="12.5" r="2.5" fill="#8696AA"/>
<circle cx="159.5" cy="12.5" r="2.5" fill="#8696AA"/>
<defs>
<linearGradient id="paint0_linear_1_18" x1="186.5" y1="374.621" x2="186.5" y2="442.981" gradientUnits="userSpaceOnUse">
<stop stop-color="#677990"/>
<stop offset="1" stop-color="#677990" stop-opacity="0"/>
</linearGradient>
<linearGradient id="paint1_linear_1_18" x1="185.5" y1="48" x2="185.5" y2="313" gradientUnits="userSpaceOnUse">
<stop stop-color="#2D2D31"/>
<stop offset="1" stop-color="#2D2D31" stop-opacity="0"/>
</linearGradient>
<linearGradient id="paint2_linear_1_18" x1="185.5" y1="48" x2="185.5" y2="313" gradientUnits="userSpaceOnUse">
<stop stop-color="#434F61"/>
<stop offset="1" stop-color="#434F61" stop-opacity="0"/>
</linearGradient>
<linearGradient id="paint3_linear_1_18" x1="185.5" y1="192.484" x2="185.5" y2="374" gradientUnits="userSpaceOnUse">
<stop stop-color="#09DE4C" stop-opacity="0"/>
<stop offset="0.117896" stop-color="#09DE4C" stop-opacity="0.01"/>
<stop offset="0.213837" stop-color="#09DE4C" stop-opacity="0.0324148"/>
<stop offset="0.2912" stop-color="#09DE4C" stop-opacity="0.0704"/>
<stop offset="0.353363" stop-color="#09DE4C" stop-opacity="0.120652"/>
<stop offset="0.403704" stop-color="#09DE4C" stop-opacity="0.181481"/>
<stop offset="0.4456" stop-color="#09DE4C" stop-opacity="0.2512"/>
<stop offset="0.48243" stop-color="#09DE4C" stop-opacity="0.328119"/>
<stop offset="0.51757" stop-color="#09DE4C" stop-opacity="0.410548"/>
<stop offset="0.5544" stop-color="#09DE4C" stop-opacity="0.4968"/>
<stop offset="0.596296" stop-color="#09DE4C" stop-opacity="0.585185"/>
<stop offset="0.646637" stop-color="#09DE4C" stop-opacity="0.674015"/>
<stop offset="0.7088" stop-color="#09DE4C" stop-opacity="0.7616"/>
<stop offset="0.786163" stop-color="#09DE4C" stop-opacity="0.846252"/>
<stop offset="0.882104" stop-color="#09DE4C" stop-opacity="0.926281"/>
<stop offset="1" stop-color="#09DE4C"/>
</linearGradient>
</defs>
</svg>
