<svg width="134" height="30" viewBox="0 0 134 30" fill="none" xmlns="http://www.w3.org/2000/svg">
<path d="M3.23432 15.0263C3.23432 20.4931 6.747 25.1451 11.6462 26.8598C11.933 26.9602 12.1255 27.2292 12.1255 27.5319V27.5789C12.1255 28.0694 11.6392 28.416 11.1743 28.2541C5.69918 26.348 1.77161 21.1568 1.77161 15.0498C1.77161 8.94413 5.69918 3.7518 11.1743 1.84521C11.6392 1.6833 12.1255 2.02988 12.1255 2.52042C12.1255 2.82342 11.933 3.09216 11.6462 3.19252C6.747 4.90749 3.23432 9.55803 3.23432 15.0263Z" fill="white"/>
<path d="M29.8432 15.0498C29.8432 21.1288 25.9512 26.302 20.515 28.2277C20.0528 28.3916 19.5665 28.0469 19.5665 27.558V27.5108C19.5665 27.211 19.7561 26.9446 20.0398 26.844C24.9152 25.1154 28.4057 20.4764 28.4057 15.0263C28.4057 9.57479 24.9152 4.93719 20.0398 3.20857C19.7564 3.10797 19.5665 2.84162 19.5665 2.54174C19.5665 2.05264 20.0528 1.70821 20.515 1.87204C25.9512 3.79923 29.8432 8.9724 29.8432 15.0498Z" fill="white"/>
<path d="M23.2823 11.8967C22.9991 11.8967 22.7417 11.7393 22.6078 11.4907C21.3177 9.09671 18.7797 7.46773 15.8608 7.46773C12.9418 7.46773 10.4053 9.09647 9.11547 11.4905C8.98157 11.7391 8.72413 11.8965 8.44096 11.8965H8.35755C7.7876 11.8965 7.41093 11.2931 7.67631 10.7904C9.21498 7.87491 12.2844 5.88785 15.8199 5.88785C19.3554 5.88785 22.4248 7.87491 23.9635 10.7904C24.2289 11.2931 23.8522 11.8967 23.2823 11.8967Z" fill="white"/>
<path d="M23.2628 18.3032C23.8207 18.3032 24.1866 18.8967 23.9222 19.3863C22.3705 22.2596 19.3242 24.2131 15.8202 24.2131C12.3161 24.2131 9.26955 22.2596 7.7179 19.3863C7.45348 18.8967 7.81933 18.3032 8.37726 18.3032H8.46067C8.73566 18.3032 8.98614 18.4558 9.11619 18.6974C10.4053 21.0914 12.9421 22.7197 15.861 22.7197C18.78 22.7197 21.3179 21.0917 22.6073 18.6974C22.7373 18.456 22.9878 18.3032 23.2628 18.3032Z" fill="white"/>
<path d="M12.3709 15.0998C12.3709 16.3015 12.9849 17.3611 13.9185 17.9815C14.1159 18.1125 14.2411 18.3269 14.2411 18.5633V18.6737C14.2411 19.2155 13.643 19.541 13.1815 19.2548C11.7736 18.3815 10.8359 16.8251 10.8359 15.0498C10.8359 13.2756 11.7736 11.7195 13.1815 10.8462C13.643 10.5599 14.2411 10.8855 14.2411 11.4272V11.6366C14.2411 11.8728 14.1159 12.0871 13.9185 12.2184C12.9849 12.8387 12.3709 13.8981 12.3709 15.0998Z" fill="white"/>
<path d="M20.7727 15.0498C20.7727 16.827 19.8331 18.3846 18.423 19.2574C17.9629 19.5422 17.3677 19.2181 17.3677 18.6787V18.6155C17.3677 18.3743 17.4987 18.1564 17.7033 18.0275C18.6751 17.4143 19.3211 16.3314 19.3211 15.1001C19.3211 13.8687 18.6751 12.7858 17.7033 12.1726C17.4987 12.0435 17.3677 11.8258 17.3677 11.5846V11.4227C17.3677 10.8831 17.9629 10.5592 18.423 10.844C19.8331 11.7166 20.7727 13.2737 20.7727 15.0498Z" fill="white"/>
<path d="M15.8101 16.2593C16.4829 16.2593 17.0283 15.7159 17.0283 15.0455C17.0283 14.375 16.4829 13.8316 15.8101 13.8316C15.1372 13.8316 14.5918 14.375 14.5918 15.0455C14.5918 15.7159 15.1372 16.2593 15.8101 16.2593Z" fill="white"/>
<path d="M3.23432 15.0263C3.23432 20.4931 6.747 25.1451 11.6462 26.8598C11.933 26.9602 12.1255 27.2292 12.1255 27.5319V27.5789C12.1255 28.0694 11.6392 28.416 11.1743 28.2541C5.69918 26.348 1.77161 21.1568 1.77161 15.0498C1.77161 8.94413 5.69918 3.7518 11.1743 1.84521C11.6392 1.6833 12.1255 2.02988 12.1255 2.52042C12.1255 2.82342 11.933 3.09216 11.6462 3.19252C6.747 4.90749 3.23432 9.55803 3.23432 15.0263Z" stroke="white" stroke-miterlimit="10"/>
<path d="M29.8432 15.0498C29.8432 21.1288 25.9512 26.302 20.515 28.2277C20.0528 28.3916 19.5665 28.0469 19.5665 27.558V27.5108C19.5665 27.211 19.7561 26.9446 20.0398 26.844C24.9152 25.1154 28.4057 20.4764 28.4057 15.0263C28.4057 9.57479 24.9152 4.93719 20.0398 3.20857C19.7564 3.10797 19.5665 2.84162 19.5665 2.54174C19.5665 2.05264 20.0528 1.70821 20.515 1.87204C25.9512 3.79923 29.8432 8.9724 29.8432 15.0498Z" stroke="white" stroke-miterlimit="10"/>
<path d="M23.2823 11.8967C22.9991 11.8967 22.7417 11.7393 22.6078 11.4907C21.3177 9.09671 18.7797 7.46773 15.8608 7.46773C12.9418 7.46773 10.4053 9.09647 9.11547 11.4905C8.98157 11.7391 8.72413 11.8965 8.44096 11.8965H8.35755C7.7876 11.8965 7.41093 11.2931 7.67631 10.7904C9.21498 7.87491 12.2844 5.88785 15.8199 5.88785C19.3554 5.88785 22.4248 7.87491 23.9635 10.7904C24.2289 11.2931 23.8522 11.8967 23.2823 11.8967Z" stroke="white" stroke-miterlimit="10"/>
<path d="M23.2628 18.3032C23.8207 18.3032 24.1866 18.8967 23.9222 19.3863C22.3705 22.2596 19.3242 24.2131 15.8202 24.2131C12.3161 24.2131 9.26955 22.2596 7.7179 19.3863C7.45348 18.8967 7.81933 18.3032 8.37726 18.3032H8.46067C8.73566 18.3032 8.98614 18.4558 9.11619 18.6974C10.4053 21.0914 12.9421 22.7197 15.861 22.7197C18.78 22.7197 21.3179 21.0917 22.6073 18.6974C22.7373 18.456 22.9878 18.3032 23.2628 18.3032Z" stroke="white" stroke-miterlimit="10"/>
<path d="M12.3709 15.0998C12.3709 16.3015 12.9849 17.3611 13.9185 17.9815C14.1159 18.1125 14.2411 18.3269 14.2411 18.5633V18.6737C14.2411 19.2155 13.643 19.541 13.1815 19.2548C11.7736 18.3815 10.8359 16.8251 10.8359 15.0498C10.8359 13.2756 11.7736 11.7195 13.1815 10.8462C13.643 10.5599 14.2411 10.8855 14.2411 11.4272V11.6366C14.2411 11.8728 14.1159 12.0871 13.9185 12.2184C12.9849 12.8387 12.3709 13.8981 12.3709 15.0998Z" stroke="white" stroke-miterlimit="10"/>
<path d="M20.7727 15.0498C20.7727 16.827 19.8331 18.3846 18.423 19.2574C17.9629 19.5422 17.3677 19.2181 17.3677 18.6787V18.6155C17.3677 18.3743 17.4987 18.1564 17.7033 18.0275C18.6751 17.4143 19.3211 16.3314 19.3211 15.1001C19.3211 13.8687 18.6751 12.7858 17.7033 12.1726C17.4987 12.0435 17.3677 11.8258 17.3677 11.5846V11.4227C17.3677 10.8831 17.9629 10.5592 18.423 10.844C19.8331 11.7166 20.7727 13.2737 20.7727 15.0498Z" stroke="white" stroke-miterlimit="10"/>
<path d="M15.8101 16.2593C16.4829 16.2593 17.0283 15.7159 17.0283 15.0455C17.0283 14.375 16.4829 13.8316 15.8101 13.8316C15.1372 13.8316 14.5918 14.375 14.5918 15.0455C14.5918 15.7159 15.1372 16.2593 15.8101 16.2593Z" stroke="white" stroke-miterlimit="10"/>
<path d="M38.5476 24.2434C37.3327 24.2434 36.2895 23.9746 35.4164 23.4376C34.5441 22.9006 33.872 22.1425 33.4018 21.1619C32.9309 20.1813 32.6958 19.0434 32.6958 17.7476C32.6958 16.7593 32.8282 15.8769 33.0939 15.1008C33.3588 14.3248 33.7436 13.6649 34.2487 13.1191C34.7537 12.5732 35.3693 12.1516 36.0967 11.8532C36.8236 11.5547 37.6404 11.4055 38.5476 11.4055C39.1808 11.4055 39.8312 11.5119 40.4983 11.7255C41.1654 11.9385 41.7723 12.2922 42.3201 12.7864C42.4401 12.8891 42.517 13.0082 42.5512 13.1449C42.5858 13.281 42.5769 13.4132 42.5254 13.5408C42.474 13.6688 42.3971 13.771 42.2944 13.8477C42.1918 13.9243 42.0677 13.9672 41.9226 13.9756C41.7769 13.9844 41.6271 13.921 41.4733 13.7842C40.9942 13.3923 40.5108 13.1236 40.0233 12.9785C39.5358 12.834 39.0608 12.7607 38.5988 12.7607C37.8971 12.7607 37.2813 12.8719 36.7513 13.0937C36.2207 13.3155 35.7715 13.6395 35.4039 14.0652C35.0357 14.4915 34.7575 15.0161 34.5696 15.6379C34.3811 16.2604 34.2874 16.9722 34.2874 17.7732C34.2874 19.3756 34.6597 20.6333 35.4039 21.5454C36.1481 22.4575 37.2133 22.9135 38.5988 22.9135C39.0606 22.9135 39.5358 22.841 40.0233 22.6958C40.5108 22.5514 40.9942 22.2826 41.4733 21.8901C41.6271 21.754 41.7771 21.6903 41.9226 21.6987C42.0675 21.7076 42.1918 21.7497 42.2944 21.8266C42.3971 21.9032 42.4699 22.0055 42.5129 22.1334C42.5552 22.2613 42.56 22.3933 42.5254 22.5301C42.4913 22.6661 42.4144 22.7856 42.2944 22.8879C41.7639 23.3825 41.1654 23.7317 40.4983 23.9363C39.8312 24.1411 39.1808 24.2434 38.5476 24.2434Z" fill="white"/>
<path d="M55.4146 24.2434C54.2509 24.2434 53.2418 23.9794 52.3861 23.4508C51.5303 22.9222 50.8673 22.1806 50.3972 21.2256C49.9263 20.2714 49.6912 19.1373 49.6912 17.8244C49.6912 16.8529 49.8236 15.9746 50.0892 15.1904C50.3541 14.4067 50.739 13.7289 51.244 13.1574C51.7488 12.5866 52.3563 12.1519 53.0666 11.8534C53.7762 11.555 54.5591 11.4058 55.4149 11.4058C56.5958 11.4058 57.6134 11.6704 58.4689 12.1983C59.3246 12.727 59.9869 13.4731 60.4578 14.4359C60.9287 15.3998 61.1638 16.5289 61.1638 17.8247C61.1638 18.8134 61.0313 19.7001 60.7657 20.4843C60.5001 21.2685 60.1153 21.9418 59.6109 22.5049C59.1061 23.0673 58.5028 23.498 57.8016 23.7959C57.0999 24.0941 56.3043 24.2434 55.4146 24.2434ZM55.4146 22.9394C56.2704 22.9394 57.0098 22.7389 57.6345 22.3382C58.2593 21.938 58.7386 21.3535 59.072 20.5866C59.4057 19.8197 59.572 18.8985 59.572 17.8247C59.572 16.205 59.2001 14.9521 58.4562 14.0656C57.7115 13.1792 56.6983 12.7356 55.4146 12.7356C54.5762 12.7356 53.8447 12.9365 53.2204 13.3368C52.5957 13.7375 52.1171 14.3174 51.7834 15.0759C51.4493 15.8347 51.2827 16.7509 51.2827 17.8249C51.2827 19.4618 51.6587 20.7236 52.4118 21.6096C53.1649 22.4958 54.1656 22.9394 55.4146 22.9394Z" fill="white"/>
<path d="M68.3837 24.2434C67.3914 24.2434 66.5654 24.0645 65.9073 23.7064C65.2484 23.3485 64.7561 22.8115 64.4316 22.0949C64.1063 21.3789 63.9441 20.493 63.9441 19.4357V12.2752C63.9441 12.0029 64.0121 11.7983 64.1494 11.6616C64.2859 11.5255 64.483 11.457 64.7395 11.457C64.9787 11.457 65.1667 11.5253 65.3039 11.6616C65.4405 11.7983 65.5092 12.0029 65.5092 12.2752V19.3595C65.5092 20.5528 65.7568 21.4436 66.2534 22.0316C66.7498 22.6197 67.5282 22.914 68.5892 22.914C69.7529 22.914 70.694 22.5263 71.4125 21.7504C72.131 20.9744 72.4901 19.9564 72.4901 18.6942V12.2752C72.4901 12.0029 72.5586 11.7983 72.6954 11.6616C72.8326 11.5255 73.029 11.457 73.2862 11.457C73.5254 11.457 73.7134 11.5253 73.8506 11.6616C73.9872 11.7983 74.0559 12.0029 74.0559 12.2752V23.3998C74.0559 23.9284 73.8076 24.1924 73.3117 24.1924C73.0718 24.1924 72.8838 24.1241 72.7466 23.9878C72.6098 23.8518 72.5413 23.6554 72.5413 23.3998V20.8681L72.8492 21.047C72.524 22.087 71.9596 22.8803 71.1557 23.4254C70.3512 23.971 69.4274 24.2434 68.3837 24.2434Z" fill="white"/>
<path d="M82.3343 24.2433C81.2221 24.2433 80.2512 23.9834 79.4216 23.4631C78.5916 22.9434 77.9496 22.2021 77.4964 21.2387C77.0428 20.2754 76.8162 19.1374 76.8162 17.8243C76.8162 16.512 77.0387 15.3781 77.4839 14.4231C77.9284 13.4689 78.5659 12.7266 79.3959 12.198C80.2255 11.6701 81.2053 11.4054 82.3343 11.4054C83.498 11.4054 84.4903 11.7039 85.3114 12.3003C86.1326 12.8972 86.6804 13.6988 86.9542 14.7043H86.6713V6.64925C86.6713 6.37644 86.7398 6.17596 86.877 6.04805C87.0138 5.92015 87.2015 5.85596 87.4414 5.85596C87.6979 5.85596 87.8943 5.92015 88.0316 6.04805C88.1681 6.17596 88.2369 6.3762 88.2369 6.64925V23.3994C88.2369 23.655 88.1684 23.8514 88.0316 23.9875C87.8943 24.1235 87.7063 24.192 87.4672 24.192C87.2107 24.192 87.0136 24.1237 86.877 23.9875C86.7398 23.8514 86.6713 23.655 86.6713 23.3994V20.7654L86.9542 20.9443C86.6804 21.9503 86.1326 22.7513 85.3114 23.3484C84.4905 23.9455 83.498 24.2433 82.3343 24.2433ZM82.5396 22.9393C83.3954 22.9393 84.1348 22.7388 84.7595 22.3381C85.3843 21.9379 85.8636 21.3534 86.197 20.5865C86.5307 19.8196 86.697 18.8984 86.697 17.8246C86.697 16.2049 86.3251 14.952 85.5811 14.0655C84.8364 13.1791 83.8232 12.7355 82.5396 12.7355C81.7012 12.7355 80.9697 12.9364 80.3454 13.3367C79.7207 13.7374 79.2421 14.3173 78.9084 15.0758C78.5743 15.8346 78.4077 16.7508 78.4077 17.8248C78.4077 19.4617 78.7837 20.7235 79.5368 21.6095C80.2899 22.4957 81.2906 22.9393 82.5396 22.9393Z" fill="white"/>
<path d="M95.424 24.2434C94.5856 24.2434 93.8368 24.081 93.1784 23.7576C92.5195 23.4343 91.9974 22.9907 91.6125 22.4276C91.2277 21.8652 91.0349 21.2347 91.0349 20.5356C91.0349 19.6151 91.2664 18.8903 91.7284 18.3617C92.1902 17.8338 92.9685 17.4625 94.0635 17.2491C95.1584 17.0362 96.6641 16.9298 98.5809 16.9298H99.6843V18.0805H98.6066C97.0665 18.0805 95.8646 18.1447 95.0005 18.2726C94.1363 18.4005 93.5332 18.6347 93.1911 18.9753C92.8486 19.3167 92.6779 19.794 92.6779 20.4077C92.6779 21.1746 92.9428 21.7974 93.4733 22.2743C94.0038 22.7516 94.7223 22.9907 95.6293 22.9907C96.3644 22.9907 97.0108 22.8158 97.567 22.4661C98.1225 22.1171 98.5636 21.6347 98.8889 21.0213C99.2134 20.4077 99.3763 19.709 99.3763 18.9241V16.0086C99.3763 14.8671 99.1453 14.0357 98.6836 13.5155C98.2218 12.9957 97.486 12.7353 96.4762 12.7353C95.8257 12.7353 95.1969 12.8209 94.5899 12.9916C93.9825 13.1617 93.3361 13.4345 92.6522 13.8098C92.4637 13.9121 92.2971 13.9466 92.1515 13.9121C92.0058 13.8781 91.895 13.8098 91.8178 13.7076C91.7407 13.6053 91.6895 13.4817 91.664 13.3365C91.6383 13.1921 91.6599 13.051 91.7284 12.915C91.7964 12.7782 91.9164 12.6676 92.0875 12.582C92.806 12.1902 93.5375 11.8965 94.2817 11.7001C95.0259 11.504 95.7485 11.4058 96.4502 11.4058C97.4598 11.4058 98.2934 11.5763 98.9523 11.9171C99.6112 12.2585 100.099 12.7698 100.416 13.4517C100.732 14.1337 100.891 15.0115 100.891 16.0858V23.3995C100.891 23.6551 100.83 23.8515 100.71 23.9876C100.591 24.1236 100.411 24.1921 100.171 24.1921C99.9314 24.1921 99.7434 24.1238 99.6069 23.9876C99.4696 23.8515 99.4016 23.6551 99.4016 23.3995V21.0467H99.6581C99.5042 21.7114 99.2302 22.2829 98.8369 22.7605C98.4432 23.2379 97.9555 23.6043 97.3737 23.8599C96.792 24.1155 96.1425 24.2434 95.424 24.2434Z" fill="white"/>
<path d="M104.517 24.1924C104.26 24.1924 104.063 24.1241 103.927 23.9878C103.789 23.8518 103.721 23.6553 103.721 23.3998V12.2752C103.721 12.0029 103.789 11.7983 103.927 11.6616C104.063 11.5255 104.26 11.457 104.517 11.457C104.756 11.457 104.941 11.5253 105.069 11.6616C105.197 11.7983 105.261 12.0029 105.261 12.2752V14.6793L104.979 14.526C105.32 13.5033 105.906 12.7272 106.737 12.1986C107.566 11.6707 108.52 11.406 109.598 11.406C110.59 11.406 111.416 11.5809 112.075 11.9306C112.733 12.2803 113.226 12.8125 113.551 13.5289C113.875 14.2448 114.038 15.1397 114.038 16.2141V23.4C114.038 23.6556 113.97 23.852 113.833 23.988C113.696 24.1241 113.508 24.1926 113.269 24.1926C113.012 24.1926 112.815 24.1243 112.678 23.988C112.541 23.852 112.472 23.6556 112.472 23.4V16.3416C112.472 15.097 112.224 14.189 111.728 13.6177C111.232 13.047 110.445 12.761 109.367 12.761C108.135 12.761 107.147 13.1409 106.403 13.8992C105.659 14.658 105.286 15.6764 105.286 16.9555V23.3998C105.287 23.9284 105.03 24.1924 104.517 24.1924Z" fill="white"/>
<path d="M117.615 8.53499C117.256 8.53499 116.977 8.44158 116.78 8.25379C116.583 8.06649 116.486 7.80253 116.486 7.46122C116.486 7.12062 116.583 6.86002 116.78 6.6811C116.977 6.50217 117.255 6.41235 117.615 6.41235C117.974 6.41235 118.252 6.50217 118.449 6.6811C118.645 6.86002 118.744 7.12062 118.744 7.46122C118.744 7.80253 118.645 8.06649 118.449 8.25379C118.252 8.44158 117.974 8.53499 117.615 8.53499ZM117.615 24.2368C117.358 24.2368 117.161 24.1601 117.025 24.0066C116.887 23.8533 116.819 23.6488 116.819 23.393V12.4476C116.819 12.1752 116.887 11.9707 117.025 11.8339C117.161 11.6979 117.358 11.6294 117.615 11.6294C117.854 11.6294 118.042 11.6976 118.179 11.8339C118.316 11.9707 118.384 12.1752 118.384 12.4476V23.3932C118.384 23.6488 118.32 23.8533 118.192 24.0068C118.064 24.1604 117.871 24.2368 117.615 24.2368Z" fill="white"/>
<path d="M121.826 24.218C121.654 24.218 121.504 24.167 121.376 24.0647C121.248 23.9624 121.179 23.8216 121.171 23.6424C121.162 23.4635 121.243 23.2637 121.414 23.042L126.086 17.2113V18.0551L121.723 12.6336C121.534 12.4125 121.449 12.212 121.466 12.0331C121.483 11.8542 121.556 11.7131 121.684 11.6108C121.813 11.5085 121.954 11.4575 122.108 11.4575C122.313 11.4575 122.484 11.4961 122.621 11.573C122.758 11.6496 122.886 11.7734 123.006 11.9435L126.958 16.9049H126.394L130.372 11.9435C130.491 11.7734 130.62 11.6499 130.757 11.573C130.893 11.4963 131.056 11.4575 131.244 11.4575C131.415 11.4575 131.565 11.5128 131.693 11.624C131.822 11.7346 131.89 11.8755 131.899 12.0455C131.907 12.2161 131.817 12.4125 131.629 12.6336L127.317 18.0036V17.2877L131.938 23.0417C132.108 23.2635 132.19 23.4597 132.181 23.6297C132.172 23.8003 132.104 23.9406 131.976 24.052C131.847 24.1627 131.698 24.218 131.527 24.218C131.339 24.218 131.171 24.1751 131.026 24.0901C130.881 24.0051 130.739 23.8855 130.603 23.7322L126.394 18.4384H126.958L122.724 23.7322C122.604 23.8855 122.47 24.0051 122.326 24.0901C122.18 24.1751 122.013 24.218 121.826 24.218Z" fill="white"/>
<path d="M46.2686 24.2155H45.941C45.6066 24.2155 45.3354 23.9453 45.3354 23.6121V6.47152C45.3354 6.13834 45.6066 5.86816 45.941 5.86816H46.2686C46.603 5.86816 46.8741 6.13834 46.8741 6.47152V23.6124C46.8741 23.9453 46.603 24.2155 46.2686 24.2155Z" fill="white"/>
</svg>
