<svg width="169" height="100" viewBox="0 0 169 100" fill="none" xmlns="http://www.w3.org/2000/svg">
<path d="M2.38672 37.5938C3.0638 34.6654 4.20638 32.4056 5.81445 30.8145C7.43945 29.2064 9.54688 28.4023 12.1367 28.4023C13.3724 28.4023 14.3965 28.5885 15.209 28.9609C16.0384 29.3333 16.7493 29.765 17.3418 30.2559C17.9512 30.7467 18.5267 31.1784 19.0684 31.5508C19.61 31.9232 20.2279 32.1094 20.9219 32.1094C21.9036 32.1094 22.6315 31.8893 23.1055 31.4492C23.5794 31.0091 23.9688 30.1712 24.2734 28.9355H30.5957C30.054 31.847 28.9453 34.1322 27.2695 35.791C25.6107 37.4329 23.4948 38.2539 20.9219 38.2539C19.6354 38.2539 18.569 38.0677 17.7227 37.6953C16.8763 37.3229 16.14 36.8913 15.5137 36.4004C14.9043 35.9095 14.3372 35.4779 13.8125 35.1055C13.2878 34.7331 12.7292 34.5469 12.1367 34.5469C11.1719 34.5469 10.4525 34.75 9.97852 35.1562C9.52148 35.5456 9.1237 36.3581 8.78516 37.5938H2.38672ZM45.7285 51V46.2773L58.7285 35.7402C60.1673 34.5553 61.3268 33.4551 62.207 32.4395C63.0872 31.4238 63.7305 30.3913 64.1367 29.3418C64.543 28.2923 64.7461 27.1413 64.7461 25.8887C64.7461 24.4329 64.5091 23.265 64.0352 22.3848C63.5612 21.5046 62.9095 20.8698 62.0801 20.4805C61.2507 20.0911 60.3027 19.8965 59.2363 19.8965C57.6621 19.8965 56.4434 20.235 55.5801 20.9121C54.7337 21.5723 54.1328 22.4186 53.7773 23.4512C53.4219 24.4668 53.2018 25.5078 53.1172 26.5742L45.2207 24.3906C45.4577 22.5456 46.1855 20.819 47.4043 19.2109C48.64 17.5859 50.2734 16.2741 52.3047 15.2754C54.3359 14.2767 56.6465 13.7773 59.2363 13.7773C60.7767 13.7773 62.3424 13.9889 63.9336 14.4121C65.5417 14.8184 67.0143 15.4785 68.3516 16.3926C69.7057 17.3066 70.7975 18.4831 71.627 19.9219C72.4564 21.3607 72.8711 23.0957 72.8711 25.127C72.8711 27.9876 71.974 30.6113 70.1797 32.998C68.3854 35.3678 65.8464 37.653 62.5625 39.8535L53.4727 46.2012L51.7969 44.7793H72.8457V51H45.7285ZM91.7871 51.6602C87.166 51.6602 83.5944 50.0182 81.0723 46.7344C78.5671 43.4336 77.3145 38.7617 77.3145 32.7188C77.3145 26.6927 78.5671 22.0293 81.0723 18.7285C83.5944 15.4277 87.166 13.7773 91.7871 13.7773C96.4251 13.7773 99.9967 15.4277 102.502 18.7285C105.007 22.0293 106.26 26.6927 106.26 32.7188C106.26 38.7448 105.007 43.4082 102.502 46.709C99.9967 50.0098 96.4251 51.6602 91.7871 51.6602ZM91.7871 45.5664C93.903 45.5664 95.4941 44.4831 96.5605 42.3164C97.6439 40.1497 98.1855 36.9505 98.1855 32.7188C98.1855 28.487 97.6439 25.2962 96.5605 23.1465C95.4941 20.9798 93.903 19.8965 91.7871 19.8965C89.6712 19.8965 88.0716 20.9798 86.9883 23.1465C85.9219 25.2962 85.3887 28.487 85.3887 32.7188C85.3887 36.9505 85.9219 40.1497 86.9883 42.3164C88.0716 44.4831 89.6712 45.5664 91.7871 45.5664ZM111.922 51V12.9141H119.488V30.002L119.057 28.8848C119.869 27.0059 121.037 25.5417 122.561 24.4922C124.101 23.4427 125.954 22.918 128.121 22.918C130.254 22.918 131.997 23.4004 133.352 24.3652C134.706 25.3301 135.713 26.6673 136.373 28.377C137.033 30.0866 137.363 32.0586 137.363 34.293V51H129.797V35.1816C129.797 32.9303 129.501 31.2799 128.908 30.2305C128.316 29.1641 127.199 28.6309 125.557 28.6309C123.576 28.6309 122.07 29.3841 121.037 30.8906C120.005 32.3971 119.488 34.6569 119.488 37.6699V51H111.922Z" fill="#A977FF"/>
<path d="M1.44141 95V82.3438H9.55371V83.6445H3.02344V87.5469H8.90332V88.8477H3.02344V95H1.44141ZM14.8447 95.2109C13.9541 95.2109 13.1689 95.0029 12.4893 94.5869C11.8096 94.165 11.2793 93.582 10.8984 92.8379C10.5176 92.0938 10.3271 91.2324 10.3271 90.2539C10.3271 89.2754 10.5176 88.4141 10.8984 87.6699C11.2793 86.9258 11.8096 86.3457 12.4893 85.9297C13.1689 85.5078 13.9541 85.2969 14.8447 85.2969C15.7354 85.2969 16.5205 85.5078 17.2002 85.9297C17.8799 86.3457 18.4102 86.9258 18.791 87.6699C19.1719 88.4141 19.3623 89.2754 19.3623 90.2539C19.3623 91.2324 19.1719 92.0938 18.791 92.8379C18.4102 93.582 17.8799 94.165 17.2002 94.5869C16.5205 95.0029 15.7354 95.2109 14.8447 95.2109ZM14.8447 93.9805C15.7412 93.9805 16.4473 93.6465 16.9629 92.9785C17.4844 92.3105 17.7451 91.4023 17.7451 90.2539C17.7451 89.0996 17.4844 88.1914 16.9629 87.5293C16.4473 86.8613 15.7412 86.5273 14.8447 86.5273C13.9482 86.5273 13.2393 86.8613 12.7178 87.5293C12.2021 88.1914 11.9443 89.0996 11.9443 90.2539C11.9443 91.4023 12.2021 92.3105 12.7178 92.9785C13.2393 93.6465 13.9482 93.9805 14.8447 93.9805ZM21.5596 95V85.5078H22.9482V87.5205L22.8955 87.292C23.1768 86.6357 23.5986 86.1406 24.1611 85.8066C24.7295 85.4668 25.3037 85.2969 25.8838 85.2969C26.0537 85.2969 26.2178 85.3115 26.376 85.3408C26.54 85.3701 26.6924 85.4199 26.833 85.4902L26.6396 86.8789C26.3174 86.7793 25.998 86.7295 25.6816 86.7295C25.4824 86.7295 25.2334 86.7705 24.9346 86.8525C24.6416 86.9287 24.3486 87.0869 24.0557 87.3271C23.7686 87.5615 23.5254 87.9131 23.3262 88.3818C23.1328 88.8506 23.0361 89.4746 23.0361 90.2539V95H21.5596ZM33.3633 95V82.3438H41.4756V83.6445H34.9453V87.5469H40.8252V88.8477H34.9453V95H33.3633ZM43.4531 95V85.5078H44.9297V95H43.4531ZM44.1914 83.917C43.8516 83.917 43.5615 83.7969 43.3213 83.5566C43.0811 83.3164 42.9609 83.0264 42.9609 82.6865C42.9609 82.3408 43.0811 82.0508 43.3213 81.8164C43.5615 81.5762 43.8516 81.4561 44.1914 81.4561C44.5371 81.4561 44.8271 81.5762 45.0615 81.8164C45.3018 82.0508 45.4219 82.3408 45.4219 82.6865C45.4219 83.0264 45.3018 83.3164 45.0615 83.5566C44.8271 83.7969 44.5371 83.917 44.1914 83.917ZM47.8037 95V85.5078H49.1924V87.5205L49.1396 87.292C49.4209 86.6357 49.8428 86.1406 50.4053 85.8066C50.9736 85.4668 51.5479 85.2969 52.1279 85.2969C52.2979 85.2969 52.4619 85.3115 52.6201 85.3408C52.7842 85.3701 52.9365 85.4199 53.0771 85.4902L52.8838 86.8789C52.5615 86.7793 52.2422 86.7295 51.9258 86.7295C51.7266 86.7295 51.4775 86.7705 51.1787 86.8525C50.8857 86.9287 50.5928 87.0869 50.2998 87.3271C50.0127 87.5615 49.7695 87.9131 49.5703 88.3818C49.377 88.8506 49.2803 89.4746 49.2803 90.2539V95H47.8037ZM57.7969 95.2109C57.1113 95.2109 56.4873 95.0996 55.9248 94.877C55.3682 94.6484 54.9053 94.3057 54.5361 93.8486C54.167 93.3857 53.9209 92.7998 53.7979 92.0908L55.3447 91.792C55.4092 92.5361 55.6611 93.0898 56.1006 93.4531C56.5459 93.8164 57.1025 93.998 57.7705 93.998C58.4326 93.998 58.96 93.8311 59.3525 93.4971C59.7451 93.1631 59.9414 92.7559 59.9414 92.2754C59.9414 91.8652 59.8008 91.54 59.5195 91.2998C59.2441 91.0596 58.8428 90.8896 58.3154 90.79L57.1641 90.5703C56.8535 90.5117 56.5312 90.4297 56.1973 90.3242C55.8633 90.2188 55.5498 90.0723 55.2568 89.8848C54.9697 89.6973 54.7354 89.4512 54.5537 89.1465C54.3779 88.8418 54.29 88.458 54.29 87.9951C54.29 87.374 54.4512 86.8672 54.7734 86.4746C55.1016 86.0762 55.5322 85.7803 56.0654 85.5869C56.6045 85.3936 57.1846 85.2969 57.8057 85.2969C58.4854 85.2969 59.0771 85.4023 59.5811 85.6133C60.085 85.8242 60.4951 86.126 60.8115 86.5186C61.1279 86.9111 61.3389 87.3857 61.4443 87.9424L59.8184 88.2676C59.7773 87.9102 59.6807 87.5996 59.5283 87.3359C59.3818 87.0723 59.165 86.8701 58.8779 86.7295C58.5967 86.583 58.2305 86.5098 57.7793 86.5098C57.2344 86.5098 56.7656 86.624 56.373 86.8525C55.9805 87.0811 55.7842 87.4268 55.7842 87.8896C55.7842 88.1475 55.8486 88.3672 55.9775 88.5488C56.1123 88.7305 56.3115 88.8828 56.5752 89.0059C56.8447 89.123 57.1816 89.2256 57.5859 89.3135L58.7549 89.5596C59.2471 89.6592 59.7012 89.8086 60.1172 90.0078C60.5332 90.2012 60.8672 90.4707 61.1191 90.8164C61.3711 91.1621 61.4971 91.6191 61.4971 92.1875C61.4971 92.8145 61.3389 93.3564 61.0225 93.8135C60.7119 94.2646 60.2783 94.6104 59.7217 94.8506C59.1709 95.0908 58.5293 95.2109 57.7969 95.2109ZM65.6895 95C65.3145 95 64.9863 94.877 64.7051 94.6309C64.4238 94.3789 64.2832 94.0625 64.2832 93.6816V86.7383H62.7539V85.5078H64.2832V83.5215L65.7598 83.2051V85.5078H67.6406V86.7383H65.7598V93.2861C65.7598 93.4795 65.7861 93.6084 65.8389 93.6729C65.8975 93.7373 66.0176 93.7695 66.1992 93.7695H67.6494V95H65.6895ZM79.6904 95.2109C78.4951 95.2109 77.4463 94.9297 76.5439 94.3672C75.6475 93.8047 74.9502 93.0283 74.4521 92.0381C73.9541 91.042 73.7051 89.8994 73.7051 88.6104C73.7051 87.3564 73.9424 86.2432 74.417 85.2705C74.8975 84.2979 75.583 83.5332 76.4736 82.9766C77.3643 82.4141 78.4307 82.1328 79.6729 82.1328C80.9326 82.1328 82.0342 82.458 82.9775 83.1084C83.9209 83.7588 84.5479 84.749 84.8584 86.0791L83.1797 86.4746C82.9277 85.4316 82.4883 84.6641 81.8613 84.1719C81.2402 83.6797 80.502 83.4336 79.6465 83.4336C78.7559 83.4336 77.9941 83.6592 77.3613 84.1104C76.7344 84.5615 76.2539 85.1797 75.9199 85.9648C75.5859 86.75 75.4189 87.6494 75.4189 88.6631C75.4189 89.6943 75.5889 90.6055 75.9287 91.3965C76.2744 92.1875 76.7578 92.8057 77.3789 93.251C78 93.6904 78.7324 93.9102 79.5762 93.9102C80.4961 93.9102 81.29 93.6318 81.958 93.0752C82.626 92.5186 83.0508 91.7451 83.2324 90.7549L84.9639 91.2295C84.6182 92.5303 83.9707 93.5205 83.0215 94.2002C82.0723 94.874 80.9619 95.2109 79.6904 95.2109ZM86.9854 95V85.5078H88.374V87.5205L88.3213 87.292C88.6025 86.6357 89.0244 86.1406 89.5869 85.8066C90.1553 85.4668 90.7295 85.2969 91.3096 85.2969C91.4795 85.2969 91.6436 85.3115 91.8018 85.3408C91.9658 85.3701 92.1182 85.4199 92.2588 85.4902L92.0654 86.8789C91.7432 86.7793 91.4238 86.7295 91.1074 86.7295C90.9082 86.7295 90.6592 86.7705 90.3604 86.8525C90.0674 86.9287 89.7744 87.0869 89.4814 87.3271C89.1943 87.5615 88.9512 87.9131 88.752 88.3818C88.5586 88.8506 88.4619 89.4746 88.4619 90.2539V95H86.9854ZM94.043 95V85.5078H95.5195V95H94.043ZM94.7812 83.917C94.4414 83.917 94.1514 83.7969 93.9111 83.5566C93.6709 83.3164 93.5508 83.0264 93.5508 82.6865C93.5508 82.3408 93.6709 82.0508 93.9111 81.8164C94.1514 81.5762 94.4414 81.4561 94.7812 81.4561C95.127 81.4561 95.417 81.5762 95.6514 81.8164C95.8916 82.0508 96.0117 82.3408 96.0117 82.6865C96.0117 83.0264 95.8916 83.3164 95.6514 83.5566C95.417 83.7969 95.127 83.917 94.7812 83.917ZM100.494 95C100.119 95 99.791 94.877 99.5098 94.6309C99.2285 94.3789 99.0879 94.0625 99.0879 93.6816V86.7383H97.5586V85.5078H99.0879V83.5215L100.564 83.2051V85.5078H102.445V86.7383H100.564V93.2861C100.564 93.4795 100.591 93.6084 100.644 93.6729C100.702 93.7373 100.822 93.7695 101.004 93.7695H102.454V95H100.494ZM104.59 95V85.5078H106.066V95H104.59ZM105.328 83.917C104.988 83.917 104.698 83.7969 104.458 83.5566C104.218 83.3164 104.098 83.0264 104.098 82.6865C104.098 82.3408 104.218 82.0508 104.458 81.8164C104.698 81.5762 104.988 81.4561 105.328 81.4561C105.674 81.4561 105.964 81.5762 106.198 81.8164C106.438 82.0508 106.559 82.3408 106.559 82.6865C106.559 83.0264 106.438 83.3164 106.198 83.5566C105.964 83.7969 105.674 83.917 105.328 83.917ZM112.676 95.2109C111.785 95.2109 111.015 95.0088 110.364 94.6045C109.714 94.2002 109.213 93.6289 108.861 92.8906C108.51 92.1465 108.334 91.2676 108.334 90.2539C108.334 89.2402 108.51 88.3643 108.861 87.626C109.213 86.8818 109.714 86.3076 110.364 85.9033C111.015 85.499 111.785 85.2969 112.676 85.2969C113.355 85.2969 113.962 85.4229 114.495 85.6748C115.034 85.9209 115.488 86.2783 115.857 86.7471C116.232 87.21 116.508 87.7695 116.684 88.4258L115.181 88.8213C115.017 88.083 114.721 87.5176 114.293 87.125C113.871 86.7266 113.332 86.5273 112.676 86.5273C111.803 86.5273 111.129 86.8525 110.654 87.5029C110.186 88.1475 109.951 89.0645 109.951 90.2539C109.951 91.4492 110.186 92.3691 110.654 93.0137C111.129 93.6582 111.803 93.9805 112.676 93.9805C113.326 93.9805 113.862 93.79 114.284 93.4092C114.706 93.0225 115.002 92.4658 115.172 91.7393L116.666 92.1611C116.525 92.6416 116.332 93.0693 116.086 93.4443C115.84 93.8193 115.547 94.1387 115.207 94.4023C114.873 94.666 114.492 94.8652 114.064 95C113.643 95.1406 113.18 95.2109 112.676 95.2109ZM121.395 95.2109C120.762 95.2109 120.211 95.0908 119.742 94.8506C119.279 94.6045 118.922 94.2705 118.67 93.8486C118.418 93.4268 118.292 92.9492 118.292 92.416C118.292 91.8477 118.459 91.3232 118.793 90.8428C119.127 90.3623 119.643 89.9785 120.34 89.6914C121.043 89.3984 121.942 89.252 123.038 89.252H124.62L124.462 89.4102V88.8916C124.462 88.1299 124.31 87.5469 124.005 87.1426C123.7 86.7324 123.19 86.5273 122.476 86.5273C121.802 86.5273 121.283 86.7031 120.92 87.0547C120.557 87.4004 120.363 87.8662 120.34 88.4521L118.679 88.0742C118.731 87.5645 118.925 87.1016 119.259 86.6855C119.599 86.2637 120.05 85.9268 120.612 85.6748C121.181 85.4229 121.837 85.2969 122.581 85.2969C123.349 85.2969 123.973 85.4434 124.453 85.7363C124.939 86.0234 125.297 86.4395 125.525 86.9844C125.754 87.5293 125.868 88.1855 125.868 88.9531V93.2861C125.868 93.4795 125.895 93.6084 125.947 93.6729C126.006 93.7373 126.126 93.7695 126.308 93.7695H126.844V95H125.903C125.505 95 125.171 94.877 124.901 94.6309C124.632 94.3789 124.497 94.0625 124.497 93.6816V93.0137H124.717C124.623 93.2598 124.488 93.5117 124.312 93.7695C124.137 94.0215 123.914 94.2588 123.645 94.4814C123.375 94.6982 123.053 94.874 122.678 95.0088C122.309 95.1436 121.881 95.2109 121.395 95.2109ZM121.729 93.9805C122.215 93.9805 122.666 93.8604 123.082 93.6201C123.498 93.3799 123.832 93.0049 124.084 92.4951C124.342 91.9795 124.471 91.3115 124.471 90.4912V90.4121H122.985C122.206 90.4121 121.591 90.5146 121.14 90.7197C120.694 90.9248 120.378 91.1797 120.19 91.4844C120.003 91.7832 119.909 92.082 119.909 92.3809C119.909 92.6797 119.977 92.9492 120.111 93.1895C120.246 93.4297 120.448 93.623 120.718 93.7695C120.987 93.9102 121.324 93.9805 121.729 93.9805ZM130.28 95C129.905 95 129.577 94.877 129.296 94.6309C129.015 94.3789 128.874 94.0625 128.874 93.6816V81.8164H130.351V93.2861C130.351 93.4795 130.377 93.6084 130.43 93.6729C130.488 93.7373 130.608 93.7695 130.79 93.7695H131.713V95H130.28ZM138.182 95V82.3438H143.007C144.243 82.3438 145.233 82.5986 145.978 83.1084C146.722 83.6123 147.094 84.3535 147.094 85.332C147.094 85.9297 146.962 86.4277 146.698 86.8262C146.435 87.2188 146.095 87.5234 145.679 87.7402C145.269 87.9512 144.835 88.083 144.378 88.1357L144.404 88.1006C145.33 88.2529 146.089 88.6162 146.681 89.1904C147.278 89.7646 147.577 90.5674 147.577 91.5986C147.577 92.4365 147.381 93.1045 146.988 93.6025C146.602 94.1006 146.086 94.458 145.441 94.6748C144.797 94.8916 144.091 95 143.323 95H138.182ZM139.764 93.6992H143.323C144.009 93.6992 144.545 93.582 144.932 93.3477C145.318 93.1074 145.588 92.8027 145.74 92.4336C145.898 92.0645 145.978 91.6807 145.978 91.2822C145.978 90.7139 145.846 90.2451 145.582 89.876C145.318 89.5068 144.946 89.2314 144.466 89.0498C143.985 88.8682 143.417 88.7773 142.761 88.7773H139.764V93.6992ZM139.764 87.4766H142.928C143.619 87.4766 144.211 87.3301 144.703 87.0371C145.195 86.7383 145.441 86.2402 145.441 85.543C145.441 84.9863 145.251 84.5322 144.87 84.1807C144.495 83.8232 143.877 83.6445 143.016 83.6445H139.764V87.4766ZM152.965 95.2109C152.303 95.2109 151.729 95.0615 151.242 94.7627C150.756 94.4639 150.381 94.0361 150.117 93.4795C149.854 92.9229 149.722 92.2578 149.722 91.4844V85.5078H151.198V91.3701C151.198 92.1436 151.345 92.7734 151.638 93.2598C151.931 93.7402 152.458 93.9805 153.22 93.9805C153.788 93.9805 154.28 93.834 154.696 93.541C155.112 93.248 155.435 92.8086 155.663 92.2227C155.897 91.6367 156.015 90.9043 156.015 90.0254V85.5078H157.491V95H156.103V92.7676L156.164 93.1543C155.918 93.7402 155.52 94.2295 154.969 94.6221C154.424 95.0146 153.756 95.2109 152.965 95.2109ZM163.696 98.6387C162.284 98.6387 161.244 98.4395 160.576 98.041C159.908 97.6484 159.574 97.0391 159.574 96.2129C159.574 95.7441 159.694 95.3252 159.935 94.9561C160.175 94.5869 160.591 94.3027 161.183 94.1035C160.96 93.9688 160.778 93.79 160.638 93.5674C160.497 93.3447 160.427 93.0957 160.427 92.8203C160.427 92.4922 160.529 92.1992 160.734 91.9414C160.939 91.6777 161.232 91.4902 161.613 91.3789C161.145 91.1035 160.778 90.7314 160.515 90.2627C160.257 89.7881 160.128 89.2373 160.128 88.6104C160.128 87.9307 160.277 87.3447 160.576 86.8525C160.881 86.3545 161.312 85.9707 161.868 85.7012C162.431 85.4316 163.099 85.2969 163.872 85.2969C164.646 85.2969 165.313 85.4316 165.876 85.7012C166.444 85.9707 166.881 86.3545 167.186 86.8525C167.496 87.3506 167.651 87.9424 167.651 88.6279C167.651 89.3018 167.496 89.8848 167.186 90.377C166.881 90.8633 166.444 91.2412 165.876 91.5107C165.308 91.7744 164.631 91.9062 163.846 91.9062H163.028C162.29 91.9062 161.921 92.126 161.921 92.5654C161.921 92.9814 162.278 93.1895 162.993 93.1895H164.892C165.642 93.1895 166.245 93.2773 166.702 93.4531C167.165 93.623 167.517 93.8457 167.757 94.1211C168.003 94.3906 168.17 94.6836 168.258 95C168.346 95.3164 168.39 95.6182 168.39 95.9053C168.39 96.8369 168.053 97.5254 167.379 97.9707C166.705 98.416 165.659 98.6387 164.241 98.6387H163.696ZM163.696 97.4609H164.241C165.987 97.4609 166.86 96.9395 166.86 95.8965C166.86 95.4629 166.702 95.1084 166.386 94.833C166.075 94.5576 165.542 94.4199 164.786 94.4199H163.151C162.565 94.4199 162.076 94.54 161.684 94.7803C161.291 95.0146 161.095 95.4014 161.095 95.9404C161.095 96.4561 161.306 96.8369 161.728 97.083C162.155 97.335 162.812 97.4609 163.696 97.4609ZM163.872 90.8691C164.616 90.8691 165.188 90.6787 165.586 90.2979C165.984 89.9111 166.184 89.3545 166.184 88.6279C166.184 87.9072 165.984 87.3477 165.586 86.9492C165.188 86.5508 164.616 86.3516 163.872 86.3516C163.134 86.3516 162.568 86.5508 162.176 86.9492C161.783 87.3418 161.587 87.9014 161.587 88.6279C161.587 89.3545 161.783 89.9111 162.176 90.2979C162.568 90.6787 163.134 90.8691 163.872 90.8691ZM165.437 86.29V85.3496C165.437 84.9688 165.577 84.6553 165.858 84.4092C166.14 84.1572 166.468 84.0312 166.843 84.0312H167.985V85.2617H167.045C166.863 85.2617 166.743 85.2939 166.685 85.3584C166.632 85.4229 166.605 85.5518 166.605 85.7451V86.29H165.437Z" fill="#D5DAE2"/>
</svg>
