<svg width="157" height="100" viewBox="0 0 157 100" fill="none" xmlns="http://www.w3.org/2000/svg">
<path d="M9.67383 51V24.873C8.23503 26.2611 6.8724 27.3783 5.58594 28.2246C4.29948 29.071 2.86914 29.7734 1.29492 30.332V22.6133C2.32747 22.207 3.37695 21.7077 4.44336 21.1152C5.52669 20.5059 6.66081 19.6764 7.8457 18.627C9.04753 17.5775 10.2917 16.181 11.5781 14.4375H17.418V51H9.67383ZM23.6133 51L25.6445 14.4375H38.3906L45.7793 45.7188H44.8652L52.3047 14.4375H65.0508L67.082 51H59.4395L57.8145 20.0234H57.8906L50.1465 51H40.5488L32.8047 20.0234H32.8809L31.2559 51H23.6133ZM93.6914 47.1152V36.5273H83.4336V30.3828H93.6914V19.7949H100.496V30.3828H110.754V36.5273H100.496V47.1152H93.6914Z" fill="#A977FF"/>
<path d="M1.44141 95V82.3438H6.00293C7.47363 82.3438 8.57812 82.6455 9.31641 83.249C10.0547 83.8525 10.4238 84.7256 10.4238 85.8682C10.4238 86.9873 10.0547 87.8545 9.31641 88.4697C8.58398 89.085 7.4707 89.3926 5.97656 89.3926H3.02344V95H1.44141ZM3.02344 88.0918H6.00293C6.91699 88.0918 7.61133 87.8955 8.08594 87.5029C8.56641 87.1104 8.80664 86.5742 8.80664 85.8945C8.80664 85.2852 8.59277 84.7578 8.16504 84.3125C7.7373 83.8672 7.0166 83.6445 6.00293 83.6445H3.02344V88.0918ZM12.3662 95V85.5078H13.7549V87.5205L13.7021 87.292C13.9834 86.6357 14.4053 86.1406 14.9678 85.8066C15.5361 85.4668 16.1104 85.2969 16.6904 85.2969C16.8604 85.2969 17.0244 85.3115 17.1826 85.3408C17.3467 85.3701 17.499 85.4199 17.6396 85.4902L17.4463 86.8789C17.124 86.7793 16.8047 86.7295 16.4883 86.7295C16.2891 86.7295 16.04 86.7705 15.7412 86.8525C15.4482 86.9287 15.1553 87.0869 14.8623 87.3271C14.5752 87.5615 14.332 87.9131 14.1328 88.3818C13.9395 88.8506 13.8428 89.4746 13.8428 90.2539V95H12.3662ZM19.4238 95V85.5078H20.9004V95H19.4238ZM20.1621 83.917C19.8223 83.917 19.5322 83.7969 19.292 83.5566C19.0518 83.3164 18.9316 83.0264 18.9316 82.6865C18.9316 82.3408 19.0518 82.0508 19.292 81.8164C19.5322 81.5762 19.8223 81.4561 20.1621 81.4561C20.5078 81.4561 20.7979 81.5762 21.0322 81.8164C21.2725 82.0508 21.3926 82.3408 21.3926 82.6865C21.3926 83.0264 21.2725 83.3164 21.0322 83.5566C20.7979 83.7969 20.5078 83.917 20.1621 83.917ZM26.2705 95L22.7021 85.5078H24.3369L27.3516 94.165H27.0703L30.0674 85.5078H31.7021L28.1514 95H26.2705ZM35.7012 95.2109C35.0684 95.2109 34.5176 95.0908 34.0488 94.8506C33.5859 94.6045 33.2285 94.2705 32.9766 93.8486C32.7246 93.4268 32.5986 92.9492 32.5986 92.416C32.5986 91.8477 32.7656 91.3232 33.0996 90.8428C33.4336 90.3623 33.9492 89.9785 34.6465 89.6914C35.3496 89.3984 36.249 89.252 37.3447 89.252H38.9268L38.7686 89.4102V88.8916C38.7686 88.1299 38.6162 87.5469 38.3115 87.1426C38.0068 86.7324 37.4971 86.5273 36.7822 86.5273C36.1084 86.5273 35.5898 86.7031 35.2266 87.0547C34.8633 87.4004 34.6699 87.8662 34.6465 88.4521L32.9854 88.0742C33.0381 87.5645 33.2314 87.1016 33.5654 86.6855C33.9053 86.2637 34.3564 85.9268 34.9189 85.6748C35.4873 85.4229 36.1436 85.2969 36.8877 85.2969C37.6553 85.2969 38.2793 85.4434 38.7598 85.7363C39.2461 86.0234 39.6035 86.4395 39.832 86.9844C40.0605 87.5293 40.1748 88.1855 40.1748 88.9531V93.2861C40.1748 93.4795 40.2012 93.6084 40.2539 93.6729C40.3125 93.7373 40.4326 93.7695 40.6143 93.7695H41.1504V95H40.21C39.8115 95 39.4775 94.877 39.208 94.6309C38.9385 94.3789 38.8037 94.0625 38.8037 93.6816V93.0137H39.0234C38.9297 93.2598 38.7949 93.5117 38.6191 93.7695C38.4434 94.0215 38.2207 94.2588 37.9512 94.4814C37.6816 94.6982 37.3594 94.874 36.9844 95.0088C36.6152 95.1436 36.1875 95.2109 35.7012 95.2109ZM36.0352 93.9805C36.5215 93.9805 36.9727 93.8604 37.3887 93.6201C37.8047 93.3799 38.1387 93.0049 38.3906 92.4951C38.6484 91.9795 38.7773 91.3115 38.7773 90.4912V90.4121H37.292C36.5127 90.4121 35.8975 90.5146 35.4463 90.7197C35.001 90.9248 34.6846 91.1797 34.4971 91.4844C34.3096 91.7832 34.2158 92.082 34.2158 92.3809C34.2158 92.6797 34.2832 92.9492 34.418 93.1895C34.5527 93.4297 34.7549 93.623 35.0244 93.7695C35.2939 93.9102 35.6309 93.9805 36.0352 93.9805ZM44.877 95C44.502 95 44.1738 94.877 43.8926 94.6309C43.6113 94.3789 43.4707 94.0625 43.4707 93.6816V86.7383H41.9414V85.5078H43.4707V83.5215L44.9473 83.2051V85.5078H46.8281V86.7383H44.9473V93.2861C44.9473 93.4795 44.9736 93.6084 45.0264 93.6729C45.085 93.7373 45.2051 93.7695 45.3867 93.7695H46.8369V95H44.877ZM52.4443 95.2109C51.542 95.2109 50.7598 95.0088 50.0977 94.6045C49.4414 94.2002 48.9346 93.6289 48.5771 92.8906C48.2197 92.1465 48.041 91.2705 48.041 90.2627C48.041 89.249 48.2197 88.3701 48.5771 87.626C48.9346 86.8818 49.4385 86.3076 50.0889 85.9033C50.7393 85.499 51.5039 85.2969 52.3828 85.2969C52.8867 85.2969 53.3906 85.3789 53.8945 85.543C54.4043 85.7012 54.8672 85.9795 55.2832 86.3779C55.7051 86.7705 56.042 87.3125 56.2939 88.0039C56.5518 88.6895 56.6807 89.5566 56.6807 90.6055H48.9902V89.4102H55.3975L54.9756 89.9639C54.9463 89.1318 54.8115 88.4639 54.5713 87.96C54.3311 87.4561 54.0176 87.0928 53.6309 86.8701C53.25 86.6416 52.8252 86.5273 52.3564 86.5273C51.7998 86.5273 51.3193 86.6738 50.915 86.9668C50.5107 87.2539 50.2002 87.6758 49.9834 88.2324C49.7666 88.7891 49.6582 89.4688 49.6582 90.2715C49.6582 91.4551 49.8984 92.3691 50.3789 93.0137C50.8652 93.6582 51.5537 93.9805 52.4443 93.9805C53.083 93.9805 53.6191 93.8193 54.0527 93.4971C54.4922 93.1748 54.8145 92.709 55.0195 92.0996L56.4697 92.5918C56.2412 93.1426 55.9365 93.6143 55.5557 94.0068C55.1748 94.3936 54.7207 94.6924 54.1934 94.9033C53.6719 95.1084 53.0889 95.2109 52.4443 95.2109ZM63.4922 95V82.3438H67.3154C68.8037 82.3438 70.0225 82.5957 70.9717 83.0996C71.9268 83.6035 72.6328 84.3242 73.0898 85.2617C73.5469 86.1934 73.7754 87.3008 73.7754 88.584C73.7754 90.0371 73.5059 91.2383 72.9668 92.1875C72.4277 93.1367 71.666 93.8428 70.6816 94.3057C69.6973 94.7686 68.5371 95 67.2012 95H63.4922ZM65.0742 93.6992H67.043C70.3887 93.6992 72.0615 92.0234 72.0615 88.6719C72.0615 87.6465 71.8945 86.7588 71.5605 86.0088C71.2324 85.2529 70.708 84.6699 69.9873 84.2598C69.2725 83.8496 68.3291 83.6445 67.1572 83.6445H65.0742V93.6992ZM78.5039 95.2109C77.8711 95.2109 77.3203 95.0908 76.8516 94.8506C76.3887 94.6045 76.0312 94.2705 75.7793 93.8486C75.5273 93.4268 75.4014 92.9492 75.4014 92.416C75.4014 91.8477 75.5684 91.3232 75.9023 90.8428C76.2363 90.3623 76.752 89.9785 77.4492 89.6914C78.1523 89.3984 79.0518 89.252 80.1475 89.252H81.7295L81.5713 89.4102V88.8916C81.5713 88.1299 81.4189 87.5469 81.1143 87.1426C80.8096 86.7324 80.2998 86.5273 79.585 86.5273C78.9111 86.5273 78.3926 86.7031 78.0293 87.0547C77.666 87.4004 77.4727 87.8662 77.4492 88.4521L75.7881 88.0742C75.8408 87.5645 76.0342 87.1016 76.3682 86.6855C76.708 86.2637 77.1592 85.9268 77.7217 85.6748C78.29 85.4229 78.9463 85.2969 79.6904 85.2969C80.458 85.2969 81.082 85.4434 81.5625 85.7363C82.0488 86.0234 82.4062 86.4395 82.6348 86.9844C82.8633 87.5293 82.9775 88.1855 82.9775 88.9531V93.2861C82.9775 93.4795 83.0039 93.6084 83.0566 93.6729C83.1152 93.7373 83.2354 93.7695 83.417 93.7695H83.9531V95H83.0127C82.6143 95 82.2803 94.877 82.0107 94.6309C81.7412 94.3789 81.6064 94.0625 81.6064 93.6816V93.0137H81.8262C81.7324 93.2598 81.5977 93.5117 81.4219 93.7695C81.2461 94.0215 81.0234 94.2588 80.7539 94.4814C80.4844 94.6982 80.1621 94.874 79.7871 95.0088C79.418 95.1436 78.9902 95.2109 78.5039 95.2109ZM78.8379 93.9805C79.3242 93.9805 79.7754 93.8604 80.1914 93.6201C80.6074 93.3799 80.9414 93.0049 81.1934 92.4951C81.4512 91.9795 81.5801 91.3115 81.5801 90.4912V90.4121H80.0947C79.3154 90.4121 78.7002 90.5146 78.249 90.7197C77.8037 90.9248 77.4873 91.1797 77.2998 91.4844C77.1123 91.7832 77.0186 92.082 77.0186 92.3809C77.0186 92.6797 77.0859 92.9492 77.2207 93.1895C77.3555 93.4297 77.5576 93.623 77.8271 93.7695C78.0967 93.9102 78.4336 93.9805 78.8379 93.9805ZM87.6797 95C87.3047 95 86.9766 94.877 86.6953 94.6309C86.4141 94.3789 86.2734 94.0625 86.2734 93.6816V86.7383H84.7441V85.5078H86.2734V83.5215L87.75 83.2051V85.5078H89.6309V86.7383H87.75V93.2861C87.75 93.4795 87.7764 93.6084 87.8291 93.6729C87.8877 93.7373 88.0078 93.7695 88.1895 93.7695H89.6396V95H87.6797ZM94.0957 95.2109C93.4629 95.2109 92.9121 95.0908 92.4434 94.8506C91.9805 94.6045 91.623 94.2705 91.3711 93.8486C91.1191 93.4268 90.9932 92.9492 90.9932 92.416C90.9932 91.8477 91.1602 91.3232 91.4941 90.8428C91.8281 90.3623 92.3438 89.9785 93.041 89.6914C93.7441 89.3984 94.6436 89.252 95.7393 89.252H97.3213L97.1631 89.4102V88.8916C97.1631 88.1299 97.0107 87.5469 96.7061 87.1426C96.4014 86.7324 95.8916 86.5273 95.1768 86.5273C94.5029 86.5273 93.9844 86.7031 93.6211 87.0547C93.2578 87.4004 93.0645 87.8662 93.041 88.4521L91.3799 88.0742C91.4326 87.5645 91.626 87.1016 91.96 86.6855C92.2998 86.2637 92.751 85.9268 93.3135 85.6748C93.8818 85.4229 94.5381 85.2969 95.2822 85.2969C96.0498 85.2969 96.6738 85.4434 97.1543 85.7363C97.6406 86.0234 97.998 86.4395 98.2266 86.9844C98.4551 87.5293 98.5693 88.1855 98.5693 88.9531V93.2861C98.5693 93.4795 98.5957 93.6084 98.6484 93.6729C98.707 93.7373 98.8271 93.7695 99.0088 93.7695H99.5449V95H98.6045C98.2061 95 97.8721 94.877 97.6025 94.6309C97.333 94.3789 97.1982 94.0625 97.1982 93.6816V93.0137H97.418C97.3242 93.2598 97.1895 93.5117 97.0137 93.7695C96.8379 94.0215 96.6152 94.2588 96.3457 94.4814C96.0762 94.6982 95.7539 94.874 95.3789 95.0088C95.0098 95.1436 94.582 95.2109 94.0957 95.2109ZM94.4297 93.9805C94.916 93.9805 95.3672 93.8604 95.7832 93.6201C96.1992 93.3799 96.5332 93.0049 96.7852 92.4951C97.043 91.9795 97.1719 91.3115 97.1719 90.4912V90.4121H95.6865C94.9072 90.4121 94.292 90.5146 93.8408 90.7197C93.3955 90.9248 93.0791 91.1797 92.8916 91.4844C92.7041 91.7832 92.6104 92.082 92.6104 92.3809C92.6104 92.6797 92.6777 92.9492 92.8125 93.1895C92.9473 93.4297 93.1494 93.623 93.4189 93.7695C93.6885 93.9102 94.0254 93.9805 94.4297 93.9805ZM110.479 95.2109C109.506 95.2109 108.656 95.0498 107.93 94.7275C107.209 94.3994 106.626 93.9277 106.181 93.3125C105.735 92.6914 105.439 91.9443 105.293 91.0713L107.174 90.6846C107.215 91.7217 107.517 92.5186 108.079 93.0752C108.642 93.6318 109.427 93.9102 110.435 93.9102C111.044 93.9102 111.56 93.8105 111.981 93.6113C112.409 93.4121 112.734 93.1309 112.957 92.7676C113.186 92.4043 113.3 91.9766 113.3 91.4844C113.3 90.8281 113.109 90.3418 112.729 90.0254C112.354 89.7031 111.838 89.4688 111.182 89.3223L109.529 88.9531C109.225 88.8828 108.87 88.7861 108.466 88.6631C108.067 88.54 107.681 88.3584 107.306 88.1182C106.931 87.8779 106.617 87.5527 106.365 87.1426C106.119 86.7324 105.996 86.208 105.996 85.5693C105.996 84.7549 106.204 84.0957 106.62 83.5918C107.042 83.0879 107.587 82.7188 108.255 82.4844C108.929 82.25 109.644 82.1328 110.399 82.1328C111.272 82.1328 112.02 82.2734 112.641 82.5547C113.268 82.8301 113.771 83.2227 114.152 83.7324C114.539 84.2422 114.8 84.8516 114.935 85.5605L113.08 85.9473C113.033 85.4082 112.901 84.9541 112.685 84.585C112.468 84.21 112.163 83.9258 111.771 83.7324C111.378 83.5332 110.889 83.4336 110.303 83.4336C109.828 83.4336 109.383 83.5039 108.967 83.6445C108.557 83.7852 108.223 84.0049 107.965 84.3037C107.707 84.6025 107.578 84.9922 107.578 85.4727C107.578 85.9766 107.751 86.3809 108.097 86.6855C108.448 86.9844 109.031 87.2275 109.846 87.415L111.516 87.8018C112.107 87.9365 112.667 88.1387 113.194 88.4082C113.722 88.6777 114.149 89.0557 114.478 89.542C114.806 90.0225 114.97 90.6582 114.97 91.4492C114.97 92.2402 114.788 92.917 114.425 93.4795C114.067 94.042 113.552 94.4727 112.878 94.7715C112.21 95.0645 111.41 95.2109 110.479 95.2109ZM119.83 95.2109C119.197 95.2109 118.646 95.0908 118.178 94.8506C117.715 94.6045 117.357 94.2705 117.105 93.8486C116.854 93.4268 116.728 92.9492 116.728 92.416C116.728 91.8477 116.895 91.3232 117.229 90.8428C117.562 90.3623 118.078 89.9785 118.775 89.6914C119.479 89.3984 120.378 89.252 121.474 89.252H123.056L122.897 89.4102V88.8916C122.897 88.1299 122.745 87.5469 122.44 87.1426C122.136 86.7324 121.626 86.5273 120.911 86.5273C120.237 86.5273 119.719 86.7031 119.355 87.0547C118.992 87.4004 118.799 87.8662 118.775 88.4521L117.114 88.0742C117.167 87.5645 117.36 87.1016 117.694 86.6855C118.034 86.2637 118.485 85.9268 119.048 85.6748C119.616 85.4229 120.272 85.2969 121.017 85.2969C121.784 85.2969 122.408 85.4434 122.889 85.7363C123.375 86.0234 123.732 86.4395 123.961 86.9844C124.189 87.5293 124.304 88.1855 124.304 88.9531V93.2861C124.304 93.4795 124.33 93.6084 124.383 93.6729C124.441 93.7373 124.562 93.7695 124.743 93.7695H125.279V95H124.339C123.94 95 123.606 94.877 123.337 94.6309C123.067 94.3789 122.933 94.0625 122.933 93.6816V93.0137H123.152C123.059 93.2598 122.924 93.5117 122.748 93.7695C122.572 94.0215 122.35 94.2588 122.08 94.4814C121.811 94.6982 121.488 94.874 121.113 95.0088C120.744 95.1436 120.316 95.2109 119.83 95.2109ZM120.164 93.9805C120.65 93.9805 121.102 93.8604 121.518 93.6201C121.934 93.3799 122.268 93.0049 122.52 92.4951C122.777 91.9795 122.906 91.3115 122.906 90.4912V90.4121H121.421C120.642 90.4121 120.026 90.5146 119.575 90.7197C119.13 90.9248 118.813 91.1797 118.626 91.4844C118.438 91.7832 118.345 92.082 118.345 92.3809C118.345 92.6797 118.412 92.9492 118.547 93.1895C118.682 93.4297 118.884 93.623 119.153 93.7695C119.423 93.9102 119.76 93.9805 120.164 93.9805ZM129.366 95L125.798 85.5078H127.433L130.447 94.165H130.166L133.163 85.5078H134.798L131.247 95H129.366ZM140.247 95.2109C139.345 95.2109 138.562 95.0088 137.9 94.6045C137.244 94.2002 136.737 93.6289 136.38 92.8906C136.022 92.1465 135.844 91.2705 135.844 90.2627C135.844 89.249 136.022 88.3701 136.38 87.626C136.737 86.8818 137.241 86.3076 137.892 85.9033C138.542 85.499 139.307 85.2969 140.186 85.2969C140.689 85.2969 141.193 85.3789 141.697 85.543C142.207 85.7012 142.67 85.9795 143.086 86.3779C143.508 86.7705 143.845 87.3125 144.097 88.0039C144.354 88.6895 144.483 89.5566 144.483 90.6055H136.793V89.4102H143.2L142.778 89.9639C142.749 89.1318 142.614 88.4639 142.374 87.96C142.134 87.4561 141.82 87.0928 141.434 86.8701C141.053 86.6416 140.628 86.5273 140.159 86.5273C139.603 86.5273 139.122 86.6738 138.718 86.9668C138.313 87.2539 138.003 87.6758 137.786 88.2324C137.569 88.7891 137.461 89.4688 137.461 90.2715C137.461 91.4551 137.701 92.3691 138.182 93.0137C138.668 93.6582 139.356 93.9805 140.247 93.9805C140.886 93.9805 141.422 93.8193 141.855 93.4971C142.295 93.1748 142.617 92.709 142.822 92.0996L144.272 92.5918C144.044 93.1426 143.739 93.6143 143.358 94.0068C142.978 94.3936 142.523 94.6924 141.996 94.9033C141.475 95.1084 140.892 95.2109 140.247 95.2109ZM150.328 95.2109C149.561 95.2109 148.881 95.0088 148.289 94.6045C147.703 94.2002 147.246 93.626 146.918 92.8818C146.59 92.1377 146.426 91.2588 146.426 90.2451C146.426 89.2314 146.59 88.3555 146.918 87.6172C147.252 86.873 147.712 86.3018 148.298 85.9033C148.884 85.499 149.561 85.2969 150.328 85.2969C150.949 85.2969 151.564 85.4521 152.174 85.7627C152.783 86.0732 153.243 86.5977 153.554 87.3359L153.387 87.4062V81.8164H154.863V95H153.475V93.0225L153.519 93.1631C153.261 93.8545 152.833 94.3701 152.235 94.71C151.638 95.0439 151.002 95.2109 150.328 95.2109ZM150.715 93.9805C151.213 93.9805 151.667 93.8516 152.077 93.5938C152.487 93.3359 152.815 92.9346 153.062 92.3896C153.308 91.8389 153.431 91.1357 153.431 90.2803C153.431 89.0029 153.167 88.0596 152.64 87.4502C152.112 86.835 151.477 86.5273 150.732 86.5273C149.947 86.5273 149.303 86.8525 148.799 87.5029C148.295 88.1475 148.043 89.0732 148.043 90.2803C148.043 91.4521 148.286 92.3633 148.772 93.0137C149.259 93.6582 149.906 93.9805 150.715 93.9805Z" fill="#D5DAE2"/>
</svg>
