<svg width="130" height="30" viewBox="0 0 130 30" fill="none" xmlns="http://www.w3.org/2000/svg">
<path d="M15.3056 0C6.85066 0 0 6.70213 0 14.9574C0 21.1702 3.83724 26.4681 9.38714 28.766C10.8397 29.3617 12.5306 28.7021 13.1377 27.2553C13.2027 27.0851 13.2677 26.9149 13.3111 26.7234C13.5712 25.4043 12.8558 24.0851 11.5984 23.5745C8.1731 22.1702 5.74502 18.8511 5.74502 14.9574C5.74502 9.78724 10.0375 5.59575 15.3056 5.59575C20.5737 5.59575 24.8662 9.78724 24.8662 14.9574C24.8662 18.8511 22.4381 22.1702 18.9911 23.5745C17.5386 24.1702 16.8448 25.8085 17.4518 27.234C17.8854 28.2766 18.9477 28.9574 20.0967 28.9574C20.4869 28.9574 20.8555 28.8723 21.2024 28.7447C26.7739 26.4468 30.5895 21.1489 30.5895 14.9362C30.6112 6.70213 23.7605 0 15.3056 0Z" fill="white"/>
<path d="M74.9779 13.3404C74.9779 10.6383 73.0701 8.61702 70.1218 8.61702C67.1517 8.61702 65.2656 10.6383 65.2656 13.3404C65.2656 16.0426 67.1734 18.0638 70.1218 18.0638C73.0701 18.0638 74.9779 16.0426 74.9779 13.3404ZM60.4961 13.3404C60.4961 8.36171 64.5285 4.53191 70.1218 4.53191C75.7584 4.53191 79.7474 8.38298 79.7474 13.3404C79.7474 18.2979 75.7584 22.1489 70.1218 22.1489C64.5068 22.1489 60.4961 18.3192 60.4961 13.3404ZM78.0997 25.766H80.6796C82.067 25.766 82.544 25.2553 82.544 24.0638V4.53191H87.3134V24.1064C87.3134 28.234 85.6008 30 81.0698 30H78.0997V25.766ZM52.865 14.2553C52.865 16.3191 50.7188 17.9574 48.0089 17.9574C44.9304 17.9574 43.0226 16.1915 43.0226 13.234C43.0226 10.5106 45.0605 8.6383 48.204 8.6383C50.6971 8.6383 52.865 10.3404 52.865 12.2766C52.865 12.2979 52.865 14.2553 52.865 14.2553ZM53.0601 4.53191V6.48936H52.9951C51.7594 5.21277 49.7215 4.53191 47.2934 4.53191C42.0687 4.53191 38.2315 8.34043 38.2315 13.234C38.2315 18.3404 42.1771 22.0638 47.4669 22.0638C49.8299 22.0638 51.8027 21.3404 53.0168 20.0426H53.0818V21.7447C53.0818 24.0213 51.0657 25.7021 48.4208 25.7021C45.7325 25.7021 44.1933 24.9574 42.8275 23.7021L39.7274 26.617C41.8086 28.766 44.9304 30 48.5075 30C53.949 30 57.6778 26.4255 57.6778 21.6808V4.53191C57.6562 4.53191 53.0601 4.53191 53.0601 4.53191ZM99.4972 8.31915C102.034 8.31915 103.811 9.61702 104.028 11.5532H94.8795C95.1397 9.59574 96.9174 8.31915 99.4972 8.31915ZM99.9742 18.383C97.1125 18.383 94.8795 16.5745 94.8145 14.8298H108.668V13.5106C108.668 8.51064 105.134 4.53191 99.3888 4.53191C93.9907 4.53191 90.1101 8.25532 90.1101 13.383C90.1101 18.6596 94.1858 22.1702 100.169 22.1702C103.833 22.1702 106.478 20.4468 107.844 18.8085L104.614 16.5957C103.204 17.8936 101.904 18.383 99.9742 18.383ZM111.464 0H116.06L116.082 11.5532H116.147L123.843 4.48936H130L122.022 11.8723L129.978 22.1489H124.493L119.03 14.7234H118.965L116.06 17.4043V22.1489H111.464V0Z" fill="white"/>
<path d="M9.5566 15.3246C9.5566 12.2138 12.1304 9.69955 15.2881 9.69955C18.4458 9.69955 21.0195 12.2138 21.0195 15.3246C21.0195 18.4354 18.4458 20.9496 15.2881 20.9496C12.1304 20.9496 9.5566 18.4354 9.5566 15.3246Z" fill="white"/>
</svg>
