<svg width="32" height="32" viewBox="0 0 32 32" fill="none" xmlns="http://www.w3.org/2000/svg">
<g clip-path="url(#clip0_102_520)">
<rect width="32" height="32" rx="8" fill="white"/>
<rect width="32" height="32" rx="8" fill="url(#paint0_linear_102_520)"/>
<path fill-rule="evenodd" clip-rule="evenodd" d="M16 2.03861C8.28948 2.03861 2.03885 8.28923 2.03885 15.9998C2.03885 23.7103 8.28948 29.9609 16 29.9609C23.7106 29.9609 29.9612 23.7103 29.9612 15.9998C29.9612 8.28923 23.7106 2.03861 16 2.03861ZM1.96118 15.9998C1.96118 8.24634 8.24658 1.96094 16 1.96094C23.7535 1.96094 30.0389 8.24634 30.0389 15.9998C30.0389 23.7532 23.7535 30.0386 16 30.0386C8.24658 30.0386 1.96118 23.7532 1.96118 15.9998Z" fill="#D0D5DD"/>
<path fill-rule="evenodd" clip-rule="evenodd" d="M16 12.0777C13.8338 12.0777 12.0777 13.8338 12.0777 16C12.0777 18.1662 13.8338 19.9223 16 19.9223C18.1662 19.9223 19.9223 18.1662 19.9223 16C19.9223 13.8338 18.1662 12.0777 16 12.0777ZM12 16C12 13.7909 13.7909 12 16 12C18.2091 12 20 13.7909 20 16C20 18.2091 18.2091 20 16 20C13.7909 20 12 18.2091 12 16Z" fill="#D0D5DD"/>
<path fill-rule="evenodd" clip-rule="evenodd" d="M16 13.3199C14.52 13.3199 13.3203 14.5196 13.3203 15.9995C13.3203 17.4794 14.52 18.6791 16 18.6791C17.4799 18.6791 18.6796 17.4794 18.6796 15.9995C18.6796 14.5196 17.4799 13.3199 16 13.3199ZM13.2427 15.9995C13.2427 14.4767 14.4772 13.2422 16 13.2422C17.5228 13.2422 18.7572 14.4767 18.7572 15.9995C18.7572 17.5223 17.5228 18.7568 16 18.7568C14.4772 18.7568 13.2427 17.5223 13.2427 15.9995Z" fill="#D0D5DD"/>
<path d="M15.9612 0H16.0389V32H15.9612V0Z" fill="#D0D5DD"/>
<path d="M32 15.9609L32 16.0386L-3.39506e-09 16.0386L0 15.9609L32 15.9609Z" fill="#D0D5DD"/>
<path d="M26.6021 0H26.6797V32H26.6021V0Z" fill="#D0D5DD"/>
<path d="M10.6409 0H10.7185V32H10.6409V0Z" fill="#D0D5DD"/>
<path d="M21.2815 0H21.3592V32H21.2815V0Z" fill="#D0D5DD"/>
<path d="M5.32031 0H5.39798V32H5.32031V0Z" fill="#D0D5DD"/>
<path d="M32 26.6016L32 26.6792L-3.39506e-09 26.6792L0 26.6016L32 26.6016Z" fill="#D0D5DD"/>
<path d="M32 10.6406L32 10.7183L-3.39506e-09 10.7183L0 10.6406L32 10.6406Z" fill="#D0D5DD"/>
<path d="M32 21.2812L32 21.3589L-3.39506e-09 21.3589L0 21.2812L32 21.2812Z" fill="#D0D5DD"/>
<path d="M32 5.32031L32 5.39798L-3.39506e-09 5.39798L0 5.32031L32 5.32031Z" fill="#D0D5DD"/>
<path d="M7.00372 11.6671C7.02891 10.3282 8.09728 9.32272 9.41565 9.08765C10.0687 8.97121 10.7614 8.82679 11.3391 8.65896C12.214 8.40474 13.3531 7.94331 14.2182 7.57152C15.0356 7.22023 15.9644 7.22023 16.7818 7.57152C17.6469 7.94331 18.786 8.40474 19.6609 8.65896C20.2386 8.82679 20.9313 8.97121 21.5844 9.08765C22.9027 9.32272 23.9711 10.3282 23.9963 11.6671C24.0649 15.3162 23.247 22.3598 16.293 24.7549C15.7816 24.931 15.2184 24.931 14.707 24.7549C7.75298 22.3598 6.93508 15.3162 7.00372 11.6671Z" fill="url(#paint1_linear_102_520)"/>
</g>
<rect x="0.15" y="0.15" width="31.7" height="31.7" rx="7.85" stroke="#D0D5DD" stroke-width="0.3"/>
<defs>
<linearGradient id="paint0_linear_102_520" x1="16" y1="0" x2="16" y2="32" gradientUnits="userSpaceOnUse">
<stop stop-color="#EAF2FF"/>
<stop offset="0.0001" stop-color="white"/>
<stop offset="1" stop-color="#DFE3EA"/>
</linearGradient>
<linearGradient id="paint1_linear_102_520" x1="21.3158" y1="9.25" x2="15.4398" y2="24.9775" gradientUnits="userSpaceOnUse">
<stop stop-color="#4563FF"/>
<stop offset="1" stop-color="#1C3CAF"/>
</linearGradient>
<clipPath id="clip0_102_520">
<rect width="32" height="32" rx="8" fill="white"/>
</clipPath>
</defs>
</svg>
