<svg width="162" height="32" viewBox="0 0 162 32" fill="none" xmlns="http://www.w3.org/2000/svg">
<g clip-path="url(#clip0_102_519)">
<rect width="32" height="32" rx="8" fill="white"/>
<rect width="32" height="32" rx="8" fill="url(#paint0_linear_102_519)"/>
<path fill-rule="evenodd" clip-rule="evenodd" d="M16 2.03861C8.28948 2.03861 2.03885 8.28923 2.03885 15.9998C2.03885 23.7103 8.28948 29.9609 16 29.9609C23.7106 29.9609 29.9612 23.7103 29.9612 15.9998C29.9612 8.28923 23.7106 2.03861 16 2.03861ZM1.96118 15.9998C1.96118 8.24634 8.24658 1.96094 16 1.96094C23.7535 1.96094 30.0389 8.24634 30.0389 15.9998C30.0389 23.7532 23.7535 30.0386 16 30.0386C8.24658 30.0386 1.96118 23.7532 1.96118 15.9998Z" fill="#D0D5DD"/>
<path fill-rule="evenodd" clip-rule="evenodd" d="M16 12.0777C13.8338 12.0777 12.0777 13.8338 12.0777 16C12.0777 18.1662 13.8338 19.9223 16 19.9223C18.1662 19.9223 19.9223 18.1662 19.9223 16C19.9223 13.8338 18.1662 12.0777 16 12.0777ZM12 16C12 13.7909 13.7909 12 16 12C18.2091 12 20 13.7909 20 16C20 18.2091 18.2091 20 16 20C13.7909 20 12 18.2091 12 16Z" fill="#D0D5DD"/>
<path fill-rule="evenodd" clip-rule="evenodd" d="M16 13.3199C14.52 13.3199 13.3203 14.5196 13.3203 15.9995C13.3203 17.4794 14.52 18.6791 16 18.6791C17.4799 18.6791 18.6796 17.4794 18.6796 15.9995C18.6796 14.5196 17.4799 13.3199 16 13.3199ZM13.2427 15.9995C13.2427 14.4767 14.4772 13.2422 16 13.2422C17.5228 13.2422 18.7572 14.4767 18.7572 15.9995C18.7572 17.5223 17.5228 18.7568 16 18.7568C14.4772 18.7568 13.2427 17.5223 13.2427 15.9995Z" fill="#D0D5DD"/>
<path d="M15.9612 0H16.0389V32H15.9612V0Z" fill="#D0D5DD"/>
<path d="M32 15.9609L32 16.0386L-3.39506e-09 16.0386L0 15.9609L32 15.9609Z" fill="#D0D5DD"/>
<path d="M26.6021 0H26.6797V32H26.6021V0Z" fill="#D0D5DD"/>
<path d="M10.6409 0H10.7185V32H10.6409V0Z" fill="#D0D5DD"/>
<path d="M21.2815 0H21.3592V32H21.2815V0Z" fill="#D0D5DD"/>
<path d="M5.32031 0H5.39798V32H5.32031V0Z" fill="#D0D5DD"/>
<path d="M32 26.6016L32 26.6792L-3.39506e-09 26.6792L0 26.6016L32 26.6016Z" fill="#D0D5DD"/>
<path d="M32 10.6406L32 10.7183L-3.39506e-09 10.7183L0 10.6406L32 10.6406Z" fill="#D0D5DD"/>
<path d="M32 21.2812L32 21.3589L-3.39506e-09 21.3589L0 21.2812L32 21.2812Z" fill="#D0D5DD"/>
<path d="M32 5.32031L32 5.39798L-3.39506e-09 5.39798L0 5.32031L32 5.32031Z" fill="#D0D5DD"/>
<path d="M7.00372 11.6671C7.02891 10.3282 8.09728 9.32272 9.41565 9.08765C10.0687 8.97121 10.7614 8.82679 11.3391 8.65896C12.214 8.40474 13.3531 7.94331 14.2182 7.57152C15.0356 7.22023 15.9644 7.22023 16.7818 7.57152C17.6469 7.94331 18.786 8.40474 19.6609 8.65896C20.2386 8.82679 20.9313 8.97121 21.5844 9.08765C22.9027 9.32272 23.9711 10.3282 23.9963 11.6671C24.0649 15.3162 23.247 22.3598 16.293 24.7549C15.7816 24.931 15.2184 24.931 14.707 24.7549C7.75298 22.3598 6.93508 15.3162 7.00372 11.6671Z" fill="url(#paint1_linear_102_519)"/>
</g>
<rect x="0.15" y="0.15" width="31.7" height="31.7" rx="7.85" stroke="#D0D5DD" stroke-width="0.3"/>
<path d="M45.724 23.18C44.944 23.18 44.23 23.084 43.582 22.892C42.946 22.7 42.376 22.418 41.872 22.046C41.38 21.674 40.936 21.224 40.54 20.696L42.232 18.77C42.82 19.586 43.402 20.144 43.978 20.444C44.566 20.732 45.202 20.876 45.886 20.876C46.258 20.876 46.588 20.828 46.876 20.732C47.176 20.624 47.41 20.474 47.578 20.282C47.746 20.09 47.83 19.862 47.83 19.598C47.83 19.406 47.788 19.232 47.704 19.076C47.62 18.908 47.5 18.764 47.344 18.644C47.188 18.512 47.002 18.398 46.786 18.302C46.57 18.194 46.33 18.104 46.066 18.032C45.802 17.948 45.514 17.882 45.202 17.834C44.53 17.678 43.942 17.492 43.438 17.276C42.934 17.048 42.514 16.772 42.178 16.448C41.842 16.112 41.59 15.734 41.422 15.314C41.266 14.894 41.188 14.42 41.188 13.892C41.188 13.352 41.308 12.854 41.548 12.398C41.788 11.93 42.118 11.528 42.538 11.192C42.97 10.856 43.462 10.598 44.014 10.418C44.578 10.238 45.172 10.148 45.796 10.148C46.564 10.148 47.236 10.238 47.812 10.418C48.388 10.586 48.886 10.832 49.306 11.156C49.738 11.48 50.098 11.876 50.386 12.344L48.676 14C48.424 13.664 48.148 13.382 47.848 13.154C47.56 12.926 47.242 12.758 46.894 12.65C46.558 12.53 46.21 12.47 45.85 12.47C45.454 12.47 45.112 12.524 44.824 12.632C44.536 12.728 44.308 12.872 44.14 13.064C43.984 13.256 43.906 13.49 43.906 13.766C43.906 13.982 43.96 14.174 44.068 14.342C44.176 14.51 44.332 14.66 44.536 14.792C44.74 14.912 44.986 15.02 45.274 15.116C45.562 15.212 45.88 15.296 46.228 15.368C46.888 15.5 47.482 15.674 48.01 15.89C48.538 16.106 48.988 16.37 49.36 16.682C49.744 16.982 50.038 17.342 50.242 17.762C50.446 18.17 50.548 18.632 50.548 19.148C50.548 20 50.344 20.726 49.936 21.326C49.528 21.926 48.964 22.388 48.244 22.712C47.524 23.024 46.684 23.18 45.724 23.18ZM57.1515 23.18C56.1195 23.18 55.2195 22.97 54.4515 22.55C53.6835 22.13 53.0835 21.554 52.6515 20.822C52.2195 20.09 52.0035 19.25 52.0035 18.302C52.0035 17.57 52.1235 16.898 52.3635 16.286C52.6035 15.674 52.9395 15.146 53.3715 14.702C53.8035 14.246 54.3135 13.898 54.9015 13.658C55.5015 13.406 56.1495 13.28 56.8455 13.28C57.4935 13.28 58.0935 13.4 58.6455 13.64C59.1975 13.868 59.6715 14.198 60.0675 14.63C60.4755 15.05 60.7875 15.548 61.0035 16.124C61.2195 16.7 61.3155 17.33 61.2915 18.014L61.2735 18.806H53.6235L53.2095 17.24H59.1675L58.8795 17.564V17.168C58.8555 16.844 58.7475 16.55 58.5555 16.286C58.3755 16.022 58.1415 15.818 57.8535 15.674C57.5655 15.53 57.2415 15.458 56.8815 15.458C56.3535 15.458 55.9035 15.56 55.5315 15.764C55.1715 15.968 54.8955 16.268 54.7035 16.664C54.5115 17.06 54.4155 17.54 54.4155 18.104C54.4155 18.68 54.5355 19.178 54.7755 19.598C55.0275 20.018 55.3755 20.348 55.8195 20.588C56.2755 20.816 56.8095 20.93 57.4215 20.93C57.8415 20.93 58.2255 20.864 58.5735 20.732C58.9215 20.6 59.2935 20.372 59.6895 20.048L60.9135 21.758C60.5655 22.07 60.1815 22.334 59.7615 22.55C59.3415 22.754 58.9095 22.91 58.4655 23.018C58.0215 23.126 57.5835 23.18 57.1515 23.18ZM67.3203 23.18C66.4083 23.18 65.5923 22.964 64.8723 22.532C64.1523 22.1 63.5823 21.512 63.1623 20.768C62.7543 20.024 62.5503 19.178 62.5503 18.23C62.5503 17.294 62.7543 16.454 63.1623 15.71C63.5823 14.954 64.1523 14.36 64.8723 13.928C65.5923 13.496 66.4083 13.28 67.3203 13.28C68.1723 13.28 68.9523 13.436 69.6603 13.748C70.3683 14.06 70.9203 14.492 71.3163 15.044L69.9123 16.736C69.7443 16.508 69.5343 16.304 69.2823 16.124C69.0303 15.932 68.7543 15.782 68.4543 15.674C68.1663 15.566 67.8663 15.512 67.5543 15.512C67.0623 15.512 66.6243 15.632 66.2403 15.872C65.8683 16.1 65.5743 16.418 65.3583 16.826C65.1423 17.234 65.0343 17.702 65.0343 18.23C65.0343 18.746 65.1423 19.208 65.3583 19.616C65.5863 20.012 65.8923 20.336 66.2763 20.588C66.6603 20.828 67.0923 20.948 67.5723 20.948C67.8843 20.948 68.1783 20.906 68.4543 20.822C68.7303 20.726 68.9883 20.588 69.2283 20.408C69.4803 20.228 69.7083 20.012 69.9123 19.76L71.2983 21.452C70.8903 21.968 70.3263 22.388 69.6063 22.712C68.8863 23.024 68.1243 23.18 67.3203 23.18ZM76.2122 23.18C75.5162 23.18 74.9162 23.03 74.4122 22.73C73.9202 22.418 73.5362 21.98 73.2602 21.416C72.9962 20.84 72.8642 20.15 72.8642 19.346V13.478H75.4202V18.932C75.4202 19.364 75.4922 19.742 75.6362 20.066C75.7802 20.378 75.9842 20.618 76.2482 20.786C76.5122 20.954 76.8362 21.038 77.2202 21.038C77.4962 21.038 77.7542 20.996 77.9942 20.912C78.2342 20.816 78.4382 20.684 78.6062 20.516C78.7742 20.348 78.9062 20.15 79.0022 19.922C79.0982 19.694 79.1462 19.448 79.1462 19.184V13.478H81.7022V23H79.2722L79.1822 21.038L79.6502 20.822C79.5062 21.266 79.2662 21.668 78.9302 22.028C78.5942 22.388 78.1922 22.67 77.7242 22.874C77.2562 23.078 76.7522 23.18 76.2122 23.18ZM84.2741 23V13.478H86.7401L86.8301 16.538L86.3981 15.908C86.5421 15.416 86.7761 14.972 87.1001 14.576C87.4241 14.168 87.8021 13.85 88.2341 13.622C88.6781 13.394 89.1401 13.28 89.6201 13.28C89.8241 13.28 90.0221 13.298 90.2141 13.334C90.4061 13.37 90.5681 13.412 90.7001 13.46L90.0161 16.268C89.8721 16.196 89.6981 16.136 89.4941 16.088C89.2901 16.028 89.0801 15.998 88.8641 15.998C88.5761 15.998 88.3061 16.052 88.0541 16.16C87.8141 16.256 87.6041 16.4 87.4241 16.592C87.2441 16.772 87.1001 16.988 86.9921 17.24C86.8961 17.492 86.8481 17.768 86.8481 18.068V23H84.2741ZM96.2804 23.18C95.2484 23.18 94.3484 22.97 93.5804 22.55C92.8124 22.13 92.2124 21.554 91.7804 20.822C91.3484 20.09 91.1324 19.25 91.1324 18.302C91.1324 17.57 91.2524 16.898 91.4924 16.286C91.7324 15.674 92.0684 15.146 92.5004 14.702C92.9324 14.246 93.4424 13.898 94.0304 13.658C94.6304 13.406 95.2784 13.28 95.9744 13.28C96.6224 13.28 97.2224 13.4 97.7744 13.64C98.3264 13.868 98.8004 14.198 99.1964 14.63C99.6044 15.05 99.9164 15.548 100.132 16.124C100.348 16.7 100.444 17.33 100.42 18.014L100.402 18.806H92.7524L92.3384 17.24H98.2964L98.0084 17.564V17.168C97.9844 16.844 97.8764 16.55 97.6844 16.286C97.5044 16.022 97.2704 15.818 96.9824 15.674C96.6944 15.53 96.3704 15.458 96.0104 15.458C95.4824 15.458 95.0324 15.56 94.6604 15.764C94.3004 15.968 94.0244 16.268 93.8324 16.664C93.6404 17.06 93.5444 17.54 93.5444 18.104C93.5444 18.68 93.6644 19.178 93.9044 19.598C94.1564 20.018 94.5044 20.348 94.9484 20.588C95.4044 20.816 95.9384 20.93 96.5504 20.93C96.9704 20.93 97.3544 20.864 97.7024 20.732C98.0504 20.6 98.4224 20.372 98.8184 20.048L100.042 21.758C99.6944 22.07 99.3104 22.334 98.8904 22.55C98.4704 22.754 98.0384 22.91 97.5944 23.018C97.1504 23.126 96.7124 23.18 96.2804 23.18ZM102.669 23V10.4H105.135L109.725 17.87L108.105 17.852L112.749 10.4H115.107V23H112.461V18.68C112.461 17.6 112.485 16.628 112.533 15.764C112.593 14.9 112.689 14.042 112.821 13.19L113.145 14.036L109.455 19.76H108.267L104.649 14.072L104.955 13.19C105.087 13.994 105.177 14.822 105.225 15.674C105.285 16.514 105.315 17.516 105.315 18.68V23H102.669ZM119.356 27.14L121.444 22.244L121.48 23.72L116.836 13.478H119.734L122.056 18.968C122.152 19.172 122.242 19.412 122.326 19.688C122.422 19.952 122.5 20.21 122.56 20.462L122.128 20.642C122.2 20.438 122.284 20.204 122.38 19.94C122.476 19.676 122.572 19.394 122.668 19.094L124.666 13.478H127.582L123.586 23L121.948 27.14H119.356ZM134.898 23.18C133.974 23.18 133.122 23.018 132.342 22.694C131.562 22.37 130.878 21.92 130.29 21.344C129.714 20.756 129.27 20.066 128.958 19.274C128.646 18.47 128.49 17.6 128.49 16.664C128.49 15.716 128.646 14.852 128.958 14.072C129.27 13.28 129.714 12.59 130.29 12.002C130.878 11.414 131.562 10.958 132.342 10.634C133.122 10.31 133.974 10.148 134.898 10.148C135.834 10.148 136.686 10.31 137.454 10.634C138.234 10.958 138.912 11.414 139.488 12.002C140.076 12.59 140.526 13.28 140.838 14.072C141.15 14.864 141.306 15.728 141.306 16.664C141.306 17.6 141.15 18.464 140.838 19.256C140.526 20.048 140.076 20.738 139.488 21.326C138.912 21.914 138.234 22.37 137.454 22.694C136.686 23.018 135.834 23.18 134.898 23.18ZM134.898 20.624C135.426 20.624 135.912 20.528 136.356 20.336C136.812 20.144 137.202 19.868 137.526 19.508C137.85 19.148 138.102 18.728 138.282 18.248C138.474 17.768 138.57 17.24 138.57 16.664C138.57 16.088 138.474 15.56 138.282 15.08C138.102 14.6 137.85 14.186 137.526 13.838C137.202 13.478 136.812 13.202 136.356 13.01C135.912 12.806 135.426 12.704 134.898 12.704C134.37 12.704 133.884 12.806 133.44 13.01C132.996 13.202 132.606 13.478 132.27 13.838C131.934 14.186 131.676 14.6 131.496 15.08C131.328 15.56 131.244 16.088 131.244 16.664C131.244 17.24 131.328 17.768 131.496 18.248C131.676 18.728 131.934 19.148 132.27 19.508C132.606 19.868 132.996 20.144 133.44 20.336C133.884 20.528 134.37 20.624 134.898 20.624ZM143.389 23V13.478H145.855L145.945 16.538L145.513 15.908C145.657 15.416 145.891 14.972 146.215 14.576C146.539 14.168 146.917 13.85 147.349 13.622C147.793 13.394 148.255 13.28 148.735 13.28C148.939 13.28 149.137 13.298 149.329 13.334C149.521 13.37 149.683 13.412 149.815 13.46L149.131 16.268C148.987 16.196 148.813 16.136 148.609 16.088C148.405 16.028 148.195 15.998 147.979 15.998C147.691 15.998 147.421 16.052 147.169 16.16C146.929 16.256 146.719 16.4 146.539 16.592C146.359 16.772 146.215 16.988 146.107 17.24C146.011 17.492 145.963 17.768 145.963 18.068V23H143.389ZM155.356 27.14C154.6 27.14 153.856 27.026 153.124 26.798C152.392 26.582 151.798 26.3 151.342 25.952L152.242 24.116C152.482 24.284 152.758 24.434 153.07 24.566C153.382 24.698 153.706 24.8 154.042 24.872C154.39 24.944 154.744 24.98 155.104 24.98C155.728 24.98 156.238 24.884 156.634 24.692C157.042 24.5 157.348 24.212 157.552 23.828C157.756 23.456 157.858 22.976 157.858 22.388V20.732L158.29 20.822C158.218 21.218 158.02 21.584 157.696 21.92C157.372 22.244 156.964 22.508 156.472 22.712C155.98 22.904 155.476 23 154.96 23C154.072 23 153.286 22.796 152.602 22.388C151.918 21.98 151.378 21.416 150.982 20.696C150.586 19.976 150.388 19.148 150.388 18.212C150.388 17.252 150.58 16.406 150.964 15.674C151.36 14.93 151.894 14.348 152.566 13.928C153.25 13.496 154.024 13.28 154.888 13.28C155.248 13.28 155.59 13.322 155.914 13.406C156.25 13.49 156.556 13.61 156.832 13.766C157.12 13.91 157.372 14.078 157.588 14.27C157.816 14.45 158.002 14.648 158.146 14.864C158.29 15.08 158.38 15.296 158.416 15.512L157.894 15.656L157.966 13.478H160.414V22.28C160.414 23.06 160.3 23.75 160.072 24.35C159.844 24.95 159.508 25.454 159.064 25.862C158.632 26.282 158.098 26.6 157.462 26.816C156.838 27.032 156.136 27.14 155.356 27.14ZM155.428 20.948C155.932 20.948 156.37 20.834 156.742 20.606C157.126 20.378 157.42 20.06 157.624 19.652C157.828 19.244 157.93 18.764 157.93 18.212C157.93 17.672 157.828 17.198 157.624 16.79C157.42 16.37 157.126 16.046 156.742 15.818C156.37 15.59 155.932 15.476 155.428 15.476C154.936 15.476 154.498 15.596 154.114 15.836C153.742 16.064 153.454 16.382 153.25 16.79C153.046 17.198 152.944 17.672 152.944 18.212C152.944 18.752 153.046 19.232 153.25 19.652C153.454 20.06 153.742 20.378 154.114 20.606C154.498 20.834 154.936 20.948 155.428 20.948Z" fill="white"/>
<defs>
<linearGradient id="paint0_linear_102_519" x1="16" y1="0" x2="16" y2="32" gradientUnits="userSpaceOnUse">
<stop stop-color="#EAF2FF"/>
<stop offset="0.0001" stop-color="white"/>
<stop offset="1" stop-color="#DFE3EA"/>
</linearGradient>
<linearGradient id="paint1_linear_102_519" x1="21.3158" y1="9.25" x2="15.4398" y2="24.9775" gradientUnits="userSpaceOnUse">
<stop stop-color="#4563FF"/>
<stop offset="1" stop-color="#1C3CAF"/>
</linearGradient>
<clipPath id="clip0_102_519">
<rect width="32" height="32" rx="8" fill="white"/>
</clipPath>
</defs>
</svg>
