<svg width="48" height="48" viewBox="0 0 48 48" fill="none" xmlns="http://www.w3.org/2000/svg">
<circle cx="24" cy="24" r="24" fill="#9040FF"/>
<path d="M16.3359 33.2812C14.3828 33.2812 12.8672 32.5195 11.7891 30.9961C10.7109 29.4648 10.1719 27.3203 10.1719 24.5625C10.1719 21.8047 10.7109 19.6641 11.7891 18.1406C12.8672 16.6094 14.3828 15.8438 16.3359 15.8438C18.2969 15.8438 19.8125 16.6094 20.8828 18.1406C21.9609 19.6641 22.5 21.8047 22.5 24.5625C22.5 27.3203 21.9609 29.4648 20.8828 30.9961C19.8125 32.5195 18.2969 33.2812 16.3359 33.2812ZM16.3359 31.5938C17.6328 31.5938 18.6133 30.9961 19.2773 29.8008C19.9414 28.6055 20.2734 26.8594 20.2734 24.5625C20.2734 22.2656 19.9414 20.5195 19.2773 19.3242C18.6133 18.1289 17.6328 17.5312 16.3359 17.5312C15.0391 17.5312 14.0586 18.1289 13.3945 19.3242C12.7305 20.5195 12.3984 22.2656 12.3984 24.5625C12.3984 26.8594 12.7305 28.6055 13.3945 29.8008C14.0586 30.9961 15.0391 31.5938 16.3359 31.5938ZM24.4453 33V31.6172L30.375 26.5898C31.1797 25.9023 31.8359 25.2773 32.3438 24.7148C32.8594 24.1523 33.2383 23.582 33.4805 23.0039C33.7227 22.4258 33.8438 21.7812 33.8438 21.0703C33.8438 20.2969 33.707 19.6484 33.4336 19.125C33.168 18.5938 32.7812 18.1953 32.2734 17.9297C31.7656 17.6641 31.1445 17.5312 30.4102 17.5312C29.5664 17.5312 28.8828 17.6992 28.3594 18.0352C27.8438 18.3633 27.457 18.8086 27.1992 19.3711C26.9492 19.9336 26.8008 20.5664 26.7539 21.2695L24.5039 20.5781C24.5508 19.8281 24.8203 19.0898 25.3125 18.3633C25.8125 17.6367 26.4961 17.0352 27.3633 16.5586C28.2305 16.082 29.2422 15.8438 30.3984 15.8438C31.0547 15.8438 31.7148 15.9375 32.3789 16.125C33.043 16.3125 33.6523 16.6133 34.207 17.0273C34.7695 17.4336 35.2188 17.9688 35.5547 18.6328C35.8984 19.2891 36.0703 20.0859 36.0703 21.0234C36.0703 22.3594 35.707 23.5547 34.9805 24.6094C34.2539 25.6562 33.2383 26.707 31.9336 27.7617L27.3516 31.4766L25.8633 31.1953H36.3984V33H24.4453Z" fill="white"/>
</svg>
