<svg width="48" height="48" viewBox="0 0 48 48" fill="none" xmlns="http://www.w3.org/2000/svg">
<circle cx="24" cy="24" r="24" fill="#9040FF"/>
<path d="M19.3359 33.2812C17.3828 33.2812 15.8672 32.5195 14.7891 30.9961C13.7109 29.4648 13.1719 27.3203 13.1719 24.5625C13.1719 21.8047 13.7109 19.6641 14.7891 18.1406C15.8672 16.6094 17.3828 15.8438 19.3359 15.8438C21.2969 15.8438 22.8125 16.6094 23.8828 18.1406C24.9609 19.6641 25.5 21.8047 25.5 24.5625C25.5 27.3203 24.9609 29.4648 23.8828 30.9961C22.8125 32.5195 21.2969 33.2812 19.3359 33.2812ZM19.3359 31.5938C20.6328 31.5938 21.6133 30.9961 22.2773 29.8008C22.9414 28.6055 23.2734 26.8594 23.2734 24.5625C23.2734 22.2656 22.9414 20.5195 22.2773 19.3242C21.6133 18.1289 20.6328 17.5312 19.3359 17.5312C18.0391 17.5312 17.0586 18.1289 16.3945 19.3242C15.7305 20.5195 15.3984 22.2656 15.3984 24.5625C15.3984 26.8594 15.7305 28.6055 16.3945 29.8008C17.0586 30.9961 18.0391 31.5938 19.3359 31.5938ZM30.9258 33V19.5586C30.3086 20.0898 29.7305 20.5391 29.1914 20.9062C28.6523 21.2656 28.0508 21.5703 27.3867 21.8203V19.8281C27.7305 19.6641 28.0938 19.4609 28.4766 19.2188C28.8594 18.9688 29.293 18.6055 29.7773 18.1289C30.2695 17.6445 30.8359 16.9766 31.4766 16.125H32.9883V33H30.9258Z" fill="white"/>
</svg>
