<svg width="48" height="48" viewBox="0 0 48 48" fill="none" xmlns="http://www.w3.org/2000/svg">
<circle cx="24" cy="24" r="24" fill="#9040FF"/>
<path d="M16.3359 33.2812C14.3828 33.2812 12.8672 32.5195 11.7891 30.9961C10.7109 29.4648 10.1719 27.3203 10.1719 24.5625C10.1719 21.8047 10.7109 19.6641 11.7891 18.1406C12.8672 16.6094 14.3828 15.8438 16.3359 15.8438C18.2969 15.8438 19.8125 16.6094 20.8828 18.1406C21.9609 19.6641 22.5 21.8047 22.5 24.5625C22.5 27.3203 21.9609 29.4648 20.8828 30.9961C19.8125 32.5195 18.2969 33.2812 16.3359 33.2812ZM16.3359 31.5938C17.6328 31.5938 18.6133 30.9961 19.2773 29.8008C19.9414 28.6055 20.2734 26.8594 20.2734 24.5625C20.2734 22.2656 19.9414 20.5195 19.2773 19.3242C18.6133 18.1289 17.6328 17.5312 16.3359 17.5312C15.0391 17.5312 14.0586 18.1289 13.3945 19.3242C12.7305 20.5195 12.3984 22.2656 12.3984 24.5625C12.3984 26.8594 12.7305 28.6055 13.3945 29.8008C14.0586 30.9961 15.0391 31.5938 16.3359 31.5938ZM30.7617 33.2812C29.7148 33.2812 28.7461 33.0781 27.8555 32.6719C26.9727 32.2656 26.2461 31.6758 25.6758 30.9023C25.1055 30.1211 24.7695 29.168 24.668 28.043L26.8008 27.375C26.8867 28.6328 27.2695 29.6523 27.9492 30.4336C28.6289 31.207 29.5547 31.5938 30.7266 31.5938C31.7812 31.5938 32.6562 31.2891 33.3516 30.6797C34.0547 30.0625 34.4062 29.1758 34.4062 28.0195C34.4062 27.5664 34.3086 27.0859 34.1133 26.5781C33.9258 26.0625 33.5859 25.625 33.0938 25.2656C32.6016 24.9062 31.9023 24.7266 30.9961 24.7266H28.6758V22.9453H30.8086C31.8008 22.9453 32.5586 22.6836 33.082 22.1602C33.6133 21.6289 33.8789 21.0312 33.8789 20.3672C33.8789 19.5859 33.6055 18.918 33.0586 18.3633C32.5117 17.8086 31.7383 17.5312 30.7383 17.5312C29.5039 17.5312 28.5977 17.8828 28.0195 18.5859C27.4492 19.2891 27.1211 20.2656 27.0352 21.5156L24.9023 20.8477C24.9492 20.043 25.2188 19.2578 25.7109 18.4922C26.2031 17.7266 26.8828 17.0938 27.75 16.5938C28.6172 16.0938 29.6367 15.8438 30.8086 15.8438C31.7695 15.8438 32.6406 16.0312 33.4219 16.4062C34.2109 16.7812 34.8359 17.2969 35.2969 17.9531C35.7578 18.6016 35.9883 19.3516 35.9883 20.2031C35.9883 20.7656 35.8711 21.2852 35.6367 21.7617C35.4023 22.2305 35.0508 22.6328 34.582 22.9688C34.1133 23.3047 33.5195 23.5547 32.8008 23.7188C33.9883 23.9297 34.9219 24.4336 35.6016 25.2305C36.2891 26.0195 36.6328 26.9336 36.6328 27.9727C36.6328 28.9102 36.4648 29.7148 36.1289 30.3867C35.8008 31.0586 35.3555 31.6094 34.793 32.0391C34.2305 32.4609 33.6016 32.7734 32.9062 32.9766C32.2109 33.1797 31.4961 33.2812 30.7617 33.2812Z" fill="white"/>
</svg>
