<svg width="137" height="100" viewBox="0 0 137 100" fill="none" xmlns="http://www.w3.org/2000/svg">
<path d="M9.67383 51V24.873C8.23503 26.2611 6.8724 27.3783 5.58594 28.2246C4.29948 29.071 2.86914 29.7734 1.29492 30.332V22.6133C2.32747 22.207 3.37695 21.7077 4.44336 21.1152C5.52669 20.5059 6.66081 19.6764 7.8457 18.627C9.04753 17.5775 10.2917 16.181 11.5781 14.4375H17.418V51H9.67383ZM37.6035 51.6602C32.9824 51.6602 29.4108 50.0182 26.8887 46.7344C24.3835 43.4336 23.1309 38.7617 23.1309 32.7188C23.1309 26.6927 24.3835 22.0293 26.8887 18.7285C29.4108 15.4277 32.9824 13.7773 37.6035 13.7773C42.2415 13.7773 45.8132 15.4277 48.3184 18.7285C50.8236 22.0293 52.0762 26.6927 52.0762 32.7188C52.0762 38.7448 50.8236 43.4082 48.3184 46.709C45.8132 50.0098 42.2415 51.6602 37.6035 51.6602ZM37.6035 45.5664C39.7194 45.5664 41.3105 44.4831 42.377 42.3164C43.4603 40.1497 44.002 36.9505 44.002 32.7188C44.002 28.487 43.4603 25.2962 42.377 23.1465C41.3105 20.9798 39.7194 19.8965 37.6035 19.8965C35.4876 19.8965 33.888 20.9798 32.8047 23.1465C31.7383 25.2962 31.2051 28.487 31.2051 32.7188C31.2051 36.9505 31.7383 40.1497 32.8047 42.3164C33.888 44.4831 35.4876 45.5664 37.6035 45.5664ZM71.627 51.6602C67.0059 51.6602 63.4342 50.0182 60.9121 46.7344C58.4069 43.4336 57.1543 38.7617 57.1543 32.7188C57.1543 26.6927 58.4069 22.0293 60.9121 18.7285C63.4342 15.4277 67.0059 13.7773 71.627 13.7773C76.265 13.7773 79.8366 15.4277 82.3418 18.7285C84.847 22.0293 86.0996 26.6927 86.0996 32.7188C86.0996 38.7448 84.847 43.4082 82.3418 46.709C79.8366 50.0098 76.265 51.6602 71.627 51.6602ZM71.627 45.5664C73.7428 45.5664 75.334 44.4831 76.4004 42.3164C77.4837 40.1497 78.0254 36.9505 78.0254 32.7188C78.0254 28.487 77.4837 25.2962 76.4004 23.1465C75.334 20.9798 73.7428 19.8965 71.627 19.8965C69.5111 19.8965 67.9115 20.9798 66.8281 23.1465C65.7617 25.2962 65.2285 28.487 65.2285 32.7188C65.2285 36.9505 65.7617 40.1497 66.8281 42.3164C67.9115 44.4831 69.5111 45.5664 71.627 45.5664ZM99.4805 36.8066C96.569 36.8066 94.3262 35.8164 92.752 33.8359C91.1947 31.8555 90.416 29.0456 90.416 25.4062C90.416 21.7669 91.1947 18.957 92.752 16.9766C94.3262 14.9961 96.569 14.0059 99.4805 14.0059C102.392 14.0059 104.626 14.9961 106.184 16.9766C107.758 18.957 108.545 21.7669 108.545 25.4062C108.545 29.0456 107.758 31.8555 106.184 33.8359C104.626 35.8164 102.392 36.8066 99.4805 36.8066ZM99.4805 32.2871C101.546 32.2871 102.578 29.9935 102.578 25.4062C102.578 20.8359 101.546 18.5508 99.4805 18.5508C97.3984 18.5508 96.3574 20.8359 96.3574 25.4062C96.3574 29.9935 97.3984 32.2871 99.4805 32.2871ZM101.309 52.0918L98.3633 50.0098L124.287 13.4473L127.232 15.5293L101.309 52.0918ZM125.963 51.4316C123.051 51.4316 120.809 50.4414 119.234 48.4609C117.677 46.4805 116.898 43.6706 116.898 40.0312C116.898 36.3919 117.677 33.582 119.234 31.6016C120.809 29.6211 123.051 28.6309 125.963 28.6309C128.874 28.6309 131.109 29.6211 132.666 31.6016C134.24 33.582 135.027 36.3919 135.027 40.0312C135.027 43.6706 134.24 46.4805 132.666 48.4609C131.109 50.4414 128.874 51.4316 125.963 51.4316ZM125.963 46.9121C128.028 46.9121 129.061 44.6185 129.061 40.0312C129.061 35.4609 128.028 33.1758 125.963 33.1758C123.881 33.1758 122.84 35.4609 122.84 40.0312C122.84 44.6185 123.881 46.9121 125.963 46.9121Z" fill="#A977FF"/>
<path d="M1.44141 95V82.3438H6.2666C9.19629 82.3438 10.6611 83.4541 10.6611 85.6748C10.6611 87.9131 9.1875 89.0322 6.24023 89.0322H3.02344V95H1.44141ZM8.86816 95L5.51074 88.5928H7.30371L10.6611 95H8.86816ZM3.02344 87.7314H6.2666C7.15723 87.7314 7.84277 87.5586 8.32324 87.2129C8.80371 86.8613 9.04395 86.3574 9.04395 85.7012C9.04395 85.0391 8.80371 84.5322 8.32324 84.1807C7.84277 83.8232 7.15723 83.6445 6.2666 83.6445H3.02344V87.7314ZM16.4619 95.2109C15.5596 95.2109 14.7773 95.0088 14.1152 94.6045C13.459 94.2002 12.9521 93.6289 12.5947 92.8906C12.2373 92.1465 12.0586 91.2705 12.0586 90.2627C12.0586 89.249 12.2373 88.3701 12.5947 87.626C12.9521 86.8818 13.4561 86.3076 14.1064 85.9033C14.7568 85.499 15.5215 85.2969 16.4004 85.2969C16.9043 85.2969 17.4082 85.3789 17.9121 85.543C18.4219 85.7012 18.8848 85.9795 19.3008 86.3779C19.7227 86.7705 20.0596 87.3125 20.3115 88.0039C20.5693 88.6895 20.6982 89.5566 20.6982 90.6055H13.0078V89.4102H19.415L18.9932 89.9639C18.9639 89.1318 18.8291 88.4639 18.5889 87.96C18.3486 87.4561 18.0352 87.0928 17.6484 86.8701C17.2676 86.6416 16.8428 86.5273 16.374 86.5273C15.8174 86.5273 15.3369 86.6738 14.9326 86.9668C14.5283 87.2539 14.2178 87.6758 14.001 88.2324C13.7842 88.7891 13.6758 89.4688 13.6758 90.2715C13.6758 91.4551 13.916 92.3691 14.3965 93.0137C14.8828 93.6582 15.5713 93.9805 16.4619 93.9805C17.1006 93.9805 17.6367 93.8193 18.0703 93.4971C18.5098 93.1748 18.832 92.709 19.0371 92.0996L20.4873 92.5918C20.2588 93.1426 19.9541 93.6143 19.5732 94.0068C19.1924 94.3936 18.7383 94.6924 18.2109 94.9033C17.6895 95.1084 17.1064 95.2109 16.4619 95.2109ZM26.9824 95.2109C26.0918 95.2109 25.3213 95.0088 24.6709 94.6045C24.0205 94.2002 23.5195 93.6289 23.168 92.8906C22.8164 92.1465 22.6406 91.2676 22.6406 90.2539C22.6406 89.2402 22.8164 88.3643 23.168 87.626C23.5195 86.8818 24.0205 86.3076 24.6709 85.9033C25.3213 85.499 26.0918 85.2969 26.9824 85.2969C27.6621 85.2969 28.2686 85.4229 28.8018 85.6748C29.3408 85.9209 29.7949 86.2783 30.1641 86.7471C30.5391 87.21 30.8145 87.7695 30.9902 88.4258L29.4873 88.8213C29.3232 88.083 29.0273 87.5176 28.5996 87.125C28.1777 86.7266 27.6387 86.5273 26.9824 86.5273C26.1094 86.5273 25.4355 86.8525 24.9609 87.5029C24.4922 88.1475 24.2578 89.0645 24.2578 90.2539C24.2578 91.4492 24.4922 92.3691 24.9609 93.0137C25.4355 93.6582 26.1094 93.9805 26.9824 93.9805C27.6328 93.9805 28.1689 93.79 28.5908 93.4092C29.0127 93.0225 29.3086 92.4658 29.4785 91.7393L30.9727 92.1611C30.832 92.6416 30.6387 93.0693 30.3926 93.4443C30.1465 93.8193 29.8535 94.1387 29.5137 94.4023C29.1797 94.666 28.7988 94.8652 28.3711 95C27.9492 95.1406 27.4863 95.2109 26.9824 95.2109ZM36.1934 95.2109C35.5312 95.2109 34.957 95.0615 34.4707 94.7627C33.9844 94.4639 33.6094 94.0361 33.3457 93.4795C33.082 92.9229 32.9502 92.2578 32.9502 91.4844V85.5078H34.4268V91.3701C34.4268 92.1436 34.5732 92.7734 34.8662 93.2598C35.1592 93.7402 35.6865 93.9805 36.4482 93.9805C37.0166 93.9805 37.5088 93.834 37.9248 93.541C38.3408 93.248 38.6631 92.8086 38.8916 92.2227C39.126 91.6367 39.2432 90.9043 39.2432 90.0254V85.5078H40.7197V95H39.3311V92.7676L39.3926 93.1543C39.1465 93.7402 38.748 94.2295 38.1973 94.6221C37.6523 95.0146 36.9844 95.2109 36.1934 95.2109ZM43.585 95V85.5078H44.9736V87.5205L44.9209 87.292C45.2021 86.6357 45.624 86.1406 46.1865 85.8066C46.7549 85.4668 47.3291 85.2969 47.9092 85.2969C48.0791 85.2969 48.2432 85.3115 48.4014 85.3408C48.5654 85.3701 48.7178 85.4199 48.8584 85.4902L48.665 86.8789C48.3428 86.7793 48.0234 86.7295 47.707 86.7295C47.5078 86.7295 47.2588 86.7705 46.96 86.8525C46.667 86.9287 46.374 87.0869 46.0811 87.3271C45.7939 87.5615 45.5508 87.9131 45.3516 88.3818C45.1582 88.8506 45.0615 89.4746 45.0615 90.2539V95H43.585ZM50.3701 95V85.5078H51.7588V87.5205L51.7061 87.292C51.9873 86.6357 52.4092 86.1406 52.9717 85.8066C53.54 85.4668 54.1143 85.2969 54.6943 85.2969C54.8643 85.2969 55.0283 85.3115 55.1865 85.3408C55.3506 85.3701 55.5029 85.4199 55.6436 85.4902L55.4502 86.8789C55.1279 86.7793 54.8086 86.7295 54.4922 86.7295C54.293 86.7295 54.0439 86.7705 53.7451 86.8525C53.4521 86.9287 53.1592 87.0869 52.8662 87.3271C52.5791 87.5615 52.3359 87.9131 52.1367 88.3818C51.9434 88.8506 51.8467 89.4746 51.8467 90.2539V95H50.3701ZM57.4277 95V85.5078H58.9043V95H57.4277ZM58.166 83.917C57.8262 83.917 57.5361 83.7969 57.2959 83.5566C57.0557 83.3164 56.9355 83.0264 56.9355 82.6865C56.9355 82.3408 57.0557 82.0508 57.2959 81.8164C57.5361 81.5762 57.8262 81.4561 58.166 81.4561C58.5117 81.4561 58.8018 81.5762 59.0361 81.8164C59.2764 82.0508 59.3965 82.3408 59.3965 82.6865C59.3965 83.0264 59.2764 83.3164 59.0361 83.5566C58.8018 83.7969 58.5117 83.917 58.166 83.917ZM61.7783 95V85.5078H63.167V87.6523L63.1055 87.2656C63.3574 86.7207 63.7559 86.2578 64.3008 85.877C64.8457 85.4902 65.5078 85.2969 66.2871 85.2969C66.9609 85.2969 67.541 85.4463 68.0273 85.7451C68.5137 86.0439 68.8887 86.4717 69.1523 87.0283C69.416 87.5791 69.5479 88.2441 69.5479 89.0234V95H68.0713V89.1377C68.0713 88.3584 67.9102 87.7285 67.5879 87.248C67.2715 86.7676 66.7471 86.5273 66.0146 86.5273C65.2236 86.5273 64.5645 86.8291 64.0371 87.4326C63.5156 88.0303 63.2549 88.8975 63.2549 90.0342V95H61.7783ZM75.7529 98.6387C74.3408 98.6387 73.3008 98.4395 72.6328 98.041C71.9648 97.6484 71.6309 97.0391 71.6309 96.2129C71.6309 95.7441 71.751 95.3252 71.9912 94.9561C72.2314 94.5869 72.6475 94.3027 73.2393 94.1035C73.0166 93.9688 72.835 93.79 72.6943 93.5674C72.5537 93.3447 72.4834 93.0957 72.4834 92.8203C72.4834 92.4922 72.5859 92.1992 72.791 91.9414C72.9961 91.6777 73.2891 91.4902 73.6699 91.3789C73.2012 91.1035 72.835 90.7314 72.5713 90.2627C72.3135 89.7881 72.1846 89.2373 72.1846 88.6104C72.1846 87.9307 72.334 87.3447 72.6328 86.8525C72.9375 86.3545 73.3682 85.9707 73.9248 85.7012C74.4873 85.4316 75.1553 85.2969 75.9287 85.2969C76.7021 85.2969 77.3701 85.4316 77.9326 85.7012C78.501 85.9707 78.9375 86.3545 79.2422 86.8525C79.5527 87.3506 79.708 87.9424 79.708 88.6279C79.708 89.3018 79.5527 89.8848 79.2422 90.377C78.9375 90.8633 78.501 91.2412 77.9326 91.5107C77.3643 91.7744 76.6875 91.9062 75.9023 91.9062H75.085C74.3467 91.9062 73.9775 92.126 73.9775 92.5654C73.9775 92.9814 74.335 93.1895 75.0498 93.1895H76.9482C77.6982 93.1895 78.3018 93.2773 78.7588 93.4531C79.2217 93.623 79.5732 93.8457 79.8135 94.1211C80.0596 94.3906 80.2266 94.6836 80.3145 95C80.4023 95.3164 80.4463 95.6182 80.4463 95.9053C80.4463 96.8369 80.1094 97.5254 79.4355 97.9707C78.7617 98.416 77.7158 98.6387 76.2979 98.6387H75.7529ZM75.7529 97.4609H76.2979C78.0439 97.4609 78.917 96.9395 78.917 95.8965C78.917 95.4629 78.7588 95.1084 78.4424 94.833C78.1318 94.5576 77.5986 94.4199 76.8428 94.4199H75.208C74.6221 94.4199 74.1328 94.54 73.7402 94.7803C73.3477 95.0146 73.1514 95.4014 73.1514 95.9404C73.1514 96.4561 73.3623 96.8369 73.7842 97.083C74.2119 97.335 74.8682 97.4609 75.7529 97.4609ZM75.9287 90.8691C76.6729 90.8691 77.2441 90.6787 77.6426 90.2979C78.041 89.9111 78.2402 89.3545 78.2402 88.6279C78.2402 87.9072 78.041 87.3477 77.6426 86.9492C77.2441 86.5508 76.6729 86.3516 75.9287 86.3516C75.1904 86.3516 74.625 86.5508 74.2324 86.9492C73.8398 87.3418 73.6436 87.9014 73.6436 88.6279C73.6436 89.3545 73.8398 89.9111 74.2324 90.2979C74.625 90.6787 75.1904 90.8691 75.9287 90.8691ZM77.4932 86.29V85.3496C77.4932 84.9688 77.6338 84.6553 77.915 84.4092C78.1963 84.1572 78.5244 84.0312 78.8994 84.0312H80.042V85.2617H79.1016C78.9199 85.2617 78.7998 85.2939 78.7412 85.3584C78.6885 85.4229 78.6621 85.5518 78.6621 85.7451V86.29H77.4932ZM92.3291 95.2109C91.1338 95.2109 90.085 94.9297 89.1826 94.3672C88.2861 93.8047 87.5889 93.0283 87.0908 92.0381C86.5928 91.042 86.3438 89.8994 86.3438 88.6104C86.3438 87.3564 86.5811 86.2432 87.0557 85.2705C87.5361 84.2979 88.2217 83.5332 89.1123 82.9766C90.0029 82.4141 91.0693 82.1328 92.3115 82.1328C93.5713 82.1328 94.6729 82.458 95.6162 83.1084C96.5596 83.7588 97.1865 84.749 97.4971 86.0791L95.8184 86.4746C95.5664 85.4316 95.127 84.6641 94.5 84.1719C93.8789 83.6797 93.1406 83.4336 92.2852 83.4336C91.3945 83.4336 90.6328 83.6592 90 84.1104C89.373 84.5615 88.8926 85.1797 88.5586 85.9648C88.2246 86.75 88.0576 87.6494 88.0576 88.6631C88.0576 89.6943 88.2275 90.6055 88.5674 91.3965C88.9131 92.1875 89.3965 92.8057 90.0176 93.251C90.6387 93.6904 91.3711 93.9102 92.2148 93.9102C93.1348 93.9102 93.9287 93.6318 94.5967 93.0752C95.2646 92.5186 95.6895 91.7451 95.8711 90.7549L97.6025 91.2295C97.2568 92.5303 96.6094 93.5205 95.6602 94.2002C94.7109 94.874 93.6006 95.2109 92.3291 95.2109ZM101.03 95C100.655 95 100.327 94.877 100.046 94.6309C99.7646 94.3789 99.624 94.0625 99.624 93.6816V81.8164H101.101V93.2861C101.101 93.4795 101.127 93.6084 101.18 93.6729C101.238 93.7373 101.358 93.7695 101.54 93.7695H102.463V95H101.03ZM104.432 95V85.5078H105.908V95H104.432ZM105.17 83.917C104.83 83.917 104.54 83.7969 104.3 83.5566C104.06 83.3164 103.939 83.0264 103.939 82.6865C103.939 82.3408 104.06 82.0508 104.3 81.8164C104.54 81.5762 104.83 81.4561 105.17 81.4561C105.516 81.4561 105.806 81.5762 106.04 81.8164C106.28 82.0508 106.4 82.3408 106.4 82.6865C106.4 83.0264 106.28 83.3164 106.04 83.5566C105.806 83.7969 105.516 83.917 105.17 83.917ZM112.579 95.2109C111.677 95.2109 110.895 95.0088 110.232 94.6045C109.576 94.2002 109.069 93.6289 108.712 92.8906C108.354 92.1465 108.176 91.2705 108.176 90.2627C108.176 89.249 108.354 88.3701 108.712 87.626C109.069 86.8818 109.573 86.3076 110.224 85.9033C110.874 85.499 111.639 85.2969 112.518 85.2969C113.021 85.2969 113.525 85.3789 114.029 85.543C114.539 85.7012 115.002 85.9795 115.418 86.3779C115.84 86.7705 116.177 87.3125 116.429 88.0039C116.687 88.6895 116.815 89.5566 116.815 90.6055H109.125V89.4102H115.532L115.11 89.9639C115.081 89.1318 114.946 88.4639 114.706 87.96C114.466 87.4561 114.152 87.0928 113.766 86.8701C113.385 86.6416 112.96 86.5273 112.491 86.5273C111.935 86.5273 111.454 86.6738 111.05 86.9668C110.646 87.2539 110.335 87.6758 110.118 88.2324C109.901 88.7891 109.793 89.4688 109.793 90.2715C109.793 91.4551 110.033 92.3691 110.514 93.0137C111 93.6582 111.688 93.9805 112.579 93.9805C113.218 93.9805 113.754 93.8193 114.188 93.4971C114.627 93.1748 114.949 92.709 115.154 92.0996L116.604 92.5918C116.376 93.1426 116.071 93.6143 115.69 94.0068C115.31 94.3936 114.855 94.6924 114.328 94.9033C113.807 95.1084 113.224 95.2109 112.579 95.2109ZM119.048 95V85.5078H120.437V87.6523L120.375 87.2656C120.627 86.7207 121.025 86.2578 121.57 85.877C122.115 85.4902 122.777 85.2969 123.557 85.2969C124.23 85.2969 124.811 85.4463 125.297 85.7451C125.783 86.0439 126.158 86.4717 126.422 87.0283C126.686 87.5791 126.817 88.2441 126.817 89.0234V95H125.341V89.1377C125.341 88.3584 125.18 87.7285 124.857 87.248C124.541 86.7676 124.017 86.5273 123.284 86.5273C122.493 86.5273 121.834 86.8291 121.307 87.4326C120.785 88.0303 120.524 88.8975 120.524 90.0342V95H119.048ZM131.291 95C130.916 95 130.588 94.877 130.307 94.6309C130.025 94.3789 129.885 94.0625 129.885 93.6816V86.7383H128.355V85.5078H129.885V83.5215L131.361 83.2051V85.5078H133.242V86.7383H131.361V93.2861C131.361 93.4795 131.388 93.6084 131.44 93.6729C131.499 93.7373 131.619 93.7695 131.801 93.7695H133.251V95H131.291Z" fill="#D5DAE2"/>
</svg>
