<svg width="191" height="54" viewBox="0 0 191 54" fill="none" xmlns="http://www.w3.org/2000/svg">
<path d="M4.31136 22.1108C4.31136 19.1405 2.80882 16.6862 0 14.625H6.52846C7.6793 15.5028 8.61175 16.6353 9.25288 17.9339C9.89401 19.2326 10.2264 20.6621 10.2241 22.1108C10.2264 23.5595 9.89401 24.9891 9.25288 26.2877C8.61175 27.5864 7.6793 28.7189 6.52846 29.5967C8.64818 30.4818 9.8541 32.642 9.8541 35.7338V41.625H3.94284V35.7338C3.94284 32.789 2.53918 30.7278 0.00149804 29.5982C2.81032 27.5354 4.31286 25.0827 4.31286 22.1123L4.31136 22.1108ZM17.1226 22.1108C17.1226 19.1405 15.6201 16.6862 12.8112 14.625H19.3412C20.4918 15.5029 21.4239 16.6355 22.0648 17.9341C22.7056 19.2328 23.0378 20.6623 23.0354 22.1108C23.0378 23.5594 22.7056 24.9889 22.0648 26.2875C21.4239 27.5862 20.4918 28.7187 19.3412 29.5967C21.4594 30.4818 22.6668 32.642 22.6668 35.7338V41.625H16.7541V35.7338C16.7541 32.789 15.3489 30.7278 12.8112 29.5982C15.6201 27.5354 17.1226 25.0827 17.1226 22.1123V22.1108ZM29.9368 22.1108C29.9368 19.1405 28.4343 16.6862 25.6255 14.625H32.1539C33.3048 15.5028 34.2372 16.6353 34.8783 17.9339C35.5195 19.2326 35.8519 20.6621 35.8496 22.1108C35.8519 23.5595 35.5195 24.9891 34.8783 26.2877C34.2372 27.5864 33.3048 28.7189 32.1539 29.5967C34.2736 30.4818 35.4796 32.642 35.4796 35.7338V41.625H29.5668V35.7338C29.5668 32.789 28.1631 30.7278 25.6255 29.5982C28.4343 27.5354 29.9368 25.0827 29.9368 22.1123V22.1108ZM53.8575 36.7195H49.3754V19.5335H60.389C65.686 19.5335 68.2971 21.4988 68.2971 24.7136C68.2971 26.8979 67.0163 28.542 64.6269 29.3776C67.0897 29.7452 68.1982 31.0458 68.1982 33.3786V36.7165H63.6652V33.5751C63.6652 31.6099 62.6795 30.8253 60.0924 30.8253H53.8605V36.7195H53.8575ZM60.1403 22.0373H53.8575V28.323H60.0909C62.3574 28.323 63.761 27.0704 63.761 25.1067C63.761 23.1669 62.4578 22.0373 60.1403 22.0373ZM76.0809 19.5335H71.5973V36.7195H76.0809V19.5335ZM89.8284 31.1193H84.3591V36.7165H79.874V19.5335H89.9258C95.2229 19.5335 98.0077 21.7433 98.0077 25.2792C98.0077 28.9351 95.1749 31.1193 89.8284 31.1193ZM89.7296 22.0373H84.3591V28.6156H89.6801C91.9961 28.6156 93.4252 27.4379 93.4252 25.3032C93.4252 23.2165 91.9961 22.0373 89.7296 22.0373ZM110.623 31.1193H105.153V36.7165H100.668V19.5335H110.72C116.017 19.5335 118.802 21.7433 118.802 25.2792C118.802 28.9351 115.968 31.1193 110.623 31.1193ZM110.524 22.0373H105.153V28.6156H110.474C112.79 28.6156 114.22 27.4379 114.22 25.3032C114.22 23.2165 112.79 22.0373 110.524 22.0373ZM125.946 19.5335V34.1632H137.132V36.7195H121.463V19.5335H125.946ZM144.421 19.5335H139.938V36.7195H144.421V19.5335ZM151.173 25.2777V36.7195H148.216V19.5335H151.57L163.79 30.9723V19.5335H166.747V36.7195H163.396L151.173 25.2762V25.2777ZM181.383 21.5468C177.119 21.5468 174.336 24.2471 174.336 28.272C174.336 32.2475 176.996 34.7032 181.135 34.7032H181.431C182.836 34.7032 184.412 34.4077 185.866 33.9426V29.3026H178.623V26.8484H190.251V34.9238C187.838 36.1764 184.19 37.159 181.234 37.159H180.84C174.039 37.159 169.654 33.5736 169.654 28.3695C169.654 23.215 174.164 19.0925 181.086 19.0925H181.48C184.364 19.0925 187.664 20.0001 190.104 21.4238L188.822 23.509C186.63 22.3074 184.018 21.5468 181.678 21.5468H181.383Z" fill="white"/>
</svg>
