<svg width="33" height="32" viewBox="0 0 33 32" fill="none" xmlns="http://www.w3.org/2000/svg">
<path d="M16.4999 19.9999L12.4999 15.9999M16.4999 19.9999C18.3624 19.2916 20.1491 18.3982 21.8333 17.3333M16.4999 19.9999V26.6666C16.4999 26.6666 20.5399 25.9333 21.8333 23.9999C23.2733 21.8399 21.8333 17.3333 21.8333 17.3333M12.4999 15.9999C13.2094 14.1592 14.1029 12.3947 15.1666 10.7333C16.7202 8.24924 18.8834 6.20399 21.4506 4.79205C24.0178 3.3801 26.9035 2.64842 29.8333 2.66659C29.8333 6.29326 28.7933 12.6666 21.8333 17.3333M12.4999 15.9999H5.83325C5.83325 15.9999 6.56659 11.9599 8.49992 10.6666C10.6599 9.22659 15.1666 10.6666 15.1666 10.6666M6.49992 21.9999C4.49992 23.6799 3.83325 28.6666 3.83325 28.6666C3.83325 28.6666 8.81992 27.9999 10.4999 25.9999C11.4466 24.8799 11.4333 23.1599 10.3799 22.1199C9.86166 21.6253 9.17898 21.3394 8.46289 21.3173C7.7468 21.2951 7.04775 21.5382 6.49992 21.9999Z" stroke="#23272E" stroke-width="3" stroke-linecap="round" stroke-linejoin="round"/>
</svg>
