<svg width="736" height="663" viewBox="0 0 736 663" fill="none" xmlns="http://www.w3.org/2000/svg">
<g filter="url(#filter0_bdd_7_92)">
<path d="M105.42 227.447C102.691 212.049 111.566 197.373 125.935 191.202C150.448 180.676 188.372 163.46 215.393 146.861C246.554 127.719 288.494 93.8688 309.307 76.611C317.467 69.8448 328.172 66.9765 338.622 68.7561C365.275 73.2953 418.521 81.6403 455.078 82.6373C486.779 83.5019 528.23 79.4495 554.722 76.3092C570.251 74.4683 585.275 82.7412 590.611 97.441C620.569 179.982 696.762 450.273 472.883 591.25C467.423 594.688 460.728 596.482 454.279 596.235C189.906 586.084 120.746 313.91 105.42 227.447Z" fill="url(#paint0_linear_7_92)" shape-rendering="crispEdges"/>
</g>
<path d="M215.65 238.328C98.8455 323.725 31.5171 415.61 58.6252 462.563C92.1295 520.594 257.206 488.012 427.333 389.789C597.46 291.566 708.215 164.897 674.711 106.866C647.213 59.2386 531.093 72.6459 396.291 133.283" stroke="url(#paint1_linear_7_92)" stroke-width="15"/>
<path d="M215.65 238.328C98.8455 323.725 31.5171 415.61 58.6252 462.563C92.1295 520.594 257.206 488.012 427.333 389.789C597.46 291.566 708.215 164.897 674.711 106.866C647.213 59.2386 531.093 72.6459 396.291 133.283" stroke="url(#paint2_radial_7_92)" stroke-width="15"/>
<defs>
<filter id="filter0_bdd_7_92" x="93.9283" y="57.2397" width="544.671" height="551.018" filterUnits="userSpaceOnUse" color-interpolation-filters="sRGB">
<feFlood flood-opacity="0" result="BackgroundImageFix"/>
<feGaussianBlur in="BackgroundImageFix" stdDeviation="5.5"/>
<feComposite in2="SourceAlpha" operator="in" result="effect1_backgroundBlur_7_92"/>
<feColorMatrix in="SourceAlpha" type="matrix" values="0 0 0 0 0 0 0 0 0 0 0 0 0 0 0 0 0 0 127 0" result="hardAlpha"/>
<feOffset dy="4"/>
<feGaussianBlur stdDeviation="4"/>
<feComposite in2="hardAlpha" operator="out"/>
<feColorMatrix type="matrix" values="0 0 0 0 0 0 0 0 0 0 0 0 0 0 0 0 0 0 0.2 0"/>
<feBlend mode="normal" in2="effect1_backgroundBlur_7_92" result="effect2_dropShadow_7_92"/>
<feColorMatrix in="SourceAlpha" type="matrix" values="0 0 0 0 0 0 0 0 0 0 0 0 0 0 0 0 0 0 127 0" result="hardAlpha"/>
<feOffset dy="2"/>
<feGaussianBlur stdDeviation="3"/>
<feComposite in2="hardAlpha" operator="out"/>
<feColorMatrix type="matrix" values="0 0 0 0 0 0 0 0 0 0 0 0 0 0 0 0 0 0 0.16 0"/>
<feBlend mode="normal" in2="effect2_dropShadow_7_92" result="effect3_dropShadow_7_92"/>
<feBlend mode="normal" in="SourceGraphic" in2="effect3_dropShadow_7_92" result="shape"/>
</filter>
<linearGradient id="paint0_linear_7_92" x1="322.131" y1="65.8421" x2="464.318" y2="596.492" gradientUnits="userSpaceOnUse">
<stop stop-color="#09DE4C"/>
<stop offset="1" stop-color="#343B46" stop-opacity="0"/>
</linearGradient>
<linearGradient id="paint1_linear_7_92" x1="444.526" y1="381.638" x2="334.296" y2="197.423" gradientUnits="userSpaceOnUse">
<stop stop-color="#9040FF"/>
<stop offset="1" stop-color="#D0D5DD" stop-opacity="0"/>
</linearGradient>
<radialGradient id="paint2_radial_7_92" cx="0" cy="0" r="1" gradientUnits="userSpaceOnUse" gradientTransform="translate(446.038 408.493) rotate(-135) scale(169.313 506.807)">
<stop stop-color="white"/>
<stop offset="1" stop-color="white" stop-opacity="0"/>
</radialGradient>
</defs>
</svg>
