<svg width="154" height="30" viewBox="0 0 154 30" fill="none" xmlns="http://www.w3.org/2000/svg">
<g clip-path="url(#clip0_569_752)">
<path d="M0.0534687 4.9436C0.0404124 5.04939 0.0298324 5.15516 0.0217285 5.26094C0.0271311 5.13909 0.0365856 5.03934 0.0534687 4.9436Z" fill="#FF3131"/>
<path d="M0.104441 4.59668C0.0832812 4.70647 0.0652722 4.81672 0.050415 4.9274C0.0666228 4.8156 0.082831 4.70647 0.104441 4.59668Z" fill="#FF3131"/>
<path d="M0.0169893 5.27832C0.00888551 5.38544 0.00415826 5.49166 0.00280762 5.59699C0.00550891 5.49122 0.00956079 5.38477 0.0169893 5.27832Z" fill="#FF3131"/>
<path d="M0.000751876 5.60498V5.66389C-0.000250625 5.64427 -0.000250625 5.6246 0.000751876 5.60498Z" fill="#FF3131"/>
<path d="M0.00891113 5.93957C0.02043 6.1694 0.0459135 6.39833 0.0852229 6.62512C0.0448327 6.39805 0.0195661 6.1686 0.00958656 5.93823L0.00891113 5.93957Z" fill="#FF3131"/>
<path d="M0.161133 4.33291C0.224345 4.06611 0.307786 3.80448 0.410732 3.55029C0.308734 3.80482 0.225316 4.06638 0.161133 4.33291Z" fill="#FF3131"/>
<path d="M0.206787 7.16406C0.244606 7.29796 0.288502 7.43189 0.334424 7.55569C0.285292 7.42735 0.242693 7.29665 0.206787 7.16406Z" fill="#FF3131"/>
<path d="M0.411377 3.55955C0.479882 3.38943 0.557146 3.22295 0.64286 3.06079C0.557871 3.22458 0.48071 3.39084 0.411377 3.55955Z" fill="#FF3131"/>
<path d="M28.5403 27.7544C28.641 27.6507 28.7382 27.5449 28.8329 27.4358C28.7411 27.5471 28.6434 27.6535 28.5403 27.7544Z" fill="#00C98B"/>
<path d="M29.5374 26.3942C29.6223 26.23 29.6995 26.0637 29.7689 25.8955C29.7004 26.0656 29.6231 26.2321 29.5374 26.3942Z" fill="#00C98B"/>
<path d="M29.781 25.868C29.848 25.6959 29.9098 25.5199 29.9608 25.3418C29.9102 25.5203 29.8502 25.6959 29.781 25.868Z" fill="#00C98B"/>
<path d="M29.9797 22.2908C29.9419 22.1569 29.898 22.023 29.8521 21.8992C29.894 22.0244 29.9358 22.1636 29.9797 22.2908Z" fill="#00C98B"/>
<path d="M30.0936 22.8293C30.1341 23.0564 30.1593 23.2859 30.1693 23.5162C30.1581 23.2859 30.1327 23.0565 30.0936 22.8293Z" fill="#00C98B"/>
<path d="M30.1763 23.8589C30.1785 23.9653 30.1738 24.0717 30.1621 24.1775C30.1693 24.0704 30.174 23.9642 30.1763 23.8589Z" fill="#00C98B"/>
<path d="M30.0735 24.8583C30.0946 24.7486 30.1126 24.6383 30.1275 24.5276C30.1113 24.6394 30.0958 24.7486 30.0735 24.8583Z" fill="#00C98B"/>
<path d="M30.1609 24.2031C30.1574 24.3095 30.1468 24.4155 30.1292 24.5205C30.1422 24.4143 30.1528 24.3085 30.1609 24.2031Z" fill="#00C98B"/>
<path d="M30.1768 5.66314C30.1754 6.40771 30.0263 7.14465 29.7385 7.83161C29.4507 8.51854 29.0295 9.14195 28.4994 9.66593C27.4219 10.7295 25.9679 11.3268 24.4521 11.3283H19.7661L9.73714 1.61614C8.66376 0.576407 7.22553 -0.00355355 5.72949 1.63837e-05H24.4495C25.9648 0.00151218 27.4186 0.598478 28.496 1.66166C29.0267 2.18519 29.4485 2.80823 29.737 3.49494C30.0256 4.18166 30.1746 4.91851 30.1768 5.66314Z" fill="white"/>
<path d="M20.4424 27.8391C21.5125 28.8771 22.9462 29.4576 24.4386 29.4573H5.72872C4.21237 29.4585 2.75687 28.8623 1.67877 27.7983C1.14736 27.2746 0.725437 26.6508 0.43747 25.9632C0.149504 25.2756 0.0012207 24.5377 0.0012207 23.7925C0.0012207 23.0472 0.149504 22.3094 0.43747 21.6217C0.725437 20.9342 1.14736 20.3104 1.67877 19.7867C2.75687 18.7227 4.21237 18.1265 5.72872 18.1277H10.4114L20.4424 27.8391Z" fill="white"/>
<path d="M19.7663 11.3283H5.72971C4.27218 11.3313 2.86813 10.7808 1.80254 9.7885L1.72337 9.71219L1.61669 9.60646C1.54959 9.53614 1.48249 9.46385 1.41875 9.39089L1.40064 9.37282L1.24833 9.1907C0.972196 8.84724 0.737742 8.47238 0.54985 8.07397C0.52838 8.03116 0.510264 7.98763 0.490806 7.9468C0.471348 7.90597 0.453232 7.86046 0.435115 7.81758C0.417 7.77477 0.399554 7.73124 0.383451 7.68836L0.333799 7.55446C0.288174 7.42055 0.244561 7.29004 0.206987 7.16284C0.183503 7.07447 0.161361 6.98476 0.13989 6.89505C0.118419 6.80533 0.102316 6.71496 0.0862129 6.62726C0.0473301 6.40001 0.022235 6.17064 0.0110646 5.94037C-0.0121173 5.49016 0.0191968 5.0388 0.104329 4.59606C0.122445 4.50836 0.13989 4.41998 0.162032 4.33161C0.2262 4.06486 0.309618 3.80307 0.411632 3.54832C0.480965 3.38006 0.558126 3.21381 0.643115 3.04956C0.68069 2.97726 0.722289 2.90495 0.761876 2.83265L0.775296 2.8119C0.862519 2.66327 0.957126 2.51666 1.05844 2.37741L1.09199 2.33054C1.14366 2.26025 1.19666 2.18995 1.25437 2.121C1.37436 1.9713 1.50249 1.82825 1.63816 1.69253L1.74417 1.58542C1.81529 1.51846 1.88843 1.45152 1.96157 1.38993C1.9683 1.38567 1.9744 1.38049 1.97968 1.37453C2.03738 1.32766 2.09442 1.27879 2.15346 1.23393C2.27468 1.13753 2.39926 1.04693 2.52719 0.962125L2.61039 0.907232C2.69963 0.850328 2.78819 0.795428 2.87877 0.744545L2.99955 0.677599L3.12234 0.610651C3.38718 0.476863 3.66224 0.36426 3.94494 0.273903L4.07913 0.231057L4.24151 0.186202L4.35021 0.158753L4.52399 0.117915L4.62262 0.0984998L4.79841 0.065026L4.89704 0.0516364L5.03526 0.0342299C5.16946 0.0188319 5.30365 0.00678113 5.43113 0.000755825H5.72569C7.22265 -0.00351356 8.66197 0.576499 9.73608 1.61688L19.7663 11.3283Z" fill="#D0D5DD"/>
<path d="M30.0734 24.8585C30.0553 24.9463 30.0379 25.0346 30.0157 25.123C29.9936 25.2114 29.9821 25.2569 29.964 25.3185C29.9634 25.3262 29.9634 25.3341 29.964 25.3419C29.9124 25.52 29.8513 25.6941 29.7842 25.8681C29.7795 25.8769 29.7755 25.8861 29.7722 25.8956C29.7028 26.0638 29.6257 26.2301 29.5407 26.3943C29.5031 26.4666 29.4615 26.539 29.4219 26.6113L29.4078 26.6347C29.3206 26.7833 29.226 26.9299 29.1247 27.0692L29.0911 27.116C29.0394 27.1863 28.9864 27.2566 28.9288 27.3255C28.8992 27.3631 28.8697 27.3999 28.8395 27.4354C28.7463 27.5451 28.6416 27.6509 28.547 27.754L28.4403 27.8598C28.3692 27.9268 28.2961 27.9937 28.2229 28.0553L28.2048 28.0707L28.0565 28.1939L27.8827 28.3278C27.8096 28.3807 27.7365 28.4355 27.6593 28.4844L27.5761 28.5393L27.4774 28.6003L27.3097 28.7L27.1889 28.7669L27.0661 28.8339C26.9991 28.8674 26.932 28.9008 26.8682 28.9297L26.6945 29.008C26.5482 29.0689 26.3999 29.1231 26.2509 29.1727L26.1167 29.2155L25.9678 29.2537L25.839 29.2871L25.6806 29.3246H25.6685L25.5659 29.3461L25.3934 29.3776L25.2968 29.3929L25.1626 29.4103C25.0479 29.4237 24.9312 29.4337 24.8164 29.4418H24.4648C22.9655 29.453 21.5215 28.8776 20.4424 27.8391L10.4114 18.127H24.4487C25.9063 18.124 27.3103 18.6745 28.3758 19.6667L28.455 19.7431L28.5617 19.8488C28.6288 19.9191 28.6959 19.9914 28.7597 20.0644L28.7778 20.0838L28.912 20.2485L28.9261 20.2659C29.0307 20.3951 29.124 20.5303 29.2206 20.6676C29.2481 20.7084 29.2743 20.7479 29.3018 20.7908L29.3414 20.8537L29.4125 20.9709C29.4897 21.1048 29.5588 21.2387 29.6259 21.3726C29.6474 21.4154 29.6655 21.4589 29.6849 21.4998C29.7044 21.5406 29.7225 21.5861 29.7407 21.629C29.7588 21.6718 29.7762 21.7153 29.7923 21.7582L29.8419 21.8921C29.8875 22.0259 29.9312 22.1565 29.9687 22.2837C29.9923 22.3721 30.0144 22.4618 30.0358 22.5515C30.0573 22.6412 30.0734 22.7316 30.0895 22.8193C30.1284 23.0465 30.1535 23.2759 30.1647 23.5062C30.1885 23.9591 30.1572 24.4132 30.0714 24.8585H30.0734Z" fill="#D0D5DD"/>
<path d="M19.7661 11.3283L28.376 19.6667C27.3104 18.6744 25.9063 18.1239 24.4487 18.1269H10.4121L1.80164 9.78784C2.86722 10.7801 4.27127 11.3306 5.7288 11.3276L19.7661 11.3283Z" fill="#E7EAEF"/>
<path d="M42.6407 21.718C41.9937 21.7269 41.3492 21.6366 40.7297 21.4502C40.2127 21.2932 39.7228 21.0582 39.2771 20.7533C38.8806 20.4786 38.53 20.143 38.2385 19.7591C37.9707 19.4113 37.7524 19.0283 37.5896 18.621L40.2064 17.5157C40.4154 18.0222 40.7688 18.4563 41.2229 18.7642C41.6459 19.0366 42.1399 19.1789 42.6433 19.1733C43.0867 19.1956 43.5277 19.0961 43.9182 18.8854C44.0506 18.8236 44.1641 18.7274 44.2467 18.6069C44.3293 18.4865 44.378 18.3461 44.3878 18.2005C44.3884 18.0571 44.3523 17.916 44.2831 17.7903C44.2138 17.6646 44.1136 17.5586 43.992 17.4822C43.5753 17.238 43.1184 17.0698 42.6426 16.9855L41.0994 16.6507C40.7352 16.5676 40.3806 16.4468 40.0413 16.2906C39.6838 16.1321 39.3506 15.9238 39.0516 15.672C38.751 15.4188 38.5006 15.1115 38.3135 14.7661C38.1129 14.3846 38.013 13.9584 38.0231 13.5276C38.0138 13.0341 38.1331 12.5467 38.3693 12.113C38.6036 11.6965 38.9282 11.3373 39.3194 11.0619C39.7509 10.7606 40.2315 10.5361 40.7398 10.3985C41.311 10.2398 41.9015 10.1614 42.4944 10.1655C43.4609 10.1486 44.418 10.3569 45.2896 10.7741C46.1087 11.1786 46.7526 11.8664 47.1012 12.7095L44.5744 13.7271C44.3866 13.3205 44.0628 12.9919 43.6585 12.7979C43.2827 12.6126 42.8699 12.5142 42.4508 12.51C42.0697 12.5013 41.6925 12.5888 41.3544 12.7644C41.2221 12.8171 41.1075 12.9063 41.0244 13.0218C40.9412 13.1372 40.8928 13.2739 40.8847 13.4158C40.8873 13.5425 40.9258 13.6659 40.9959 13.7716C41.066 13.8773 41.1647 13.961 41.2806 14.013C41.6171 14.1871 41.9742 14.3187 42.3434 14.4046L44.0208 14.7963C44.96 14.9636 45.8278 15.4065 46.5135 16.0683C47.0469 16.6243 47.3397 17.3673 47.3287 18.1369C47.3289 18.607 47.2136 19.0699 46.9932 19.4853C46.7585 19.926 46.4351 20.3134 46.0431 20.6234C45.6023 20.9708 45.1022 21.2359 44.567 21.406C43.9462 21.6142 43.2955 21.7196 42.6407 21.718Z" fill="white"/>
<path d="M48.4553 10.5281H51.2063V11.8357H51.384C51.6906 11.3412 52.1226 10.9361 52.6361 10.6613C53.2816 10.3177 54.0064 10.1496 54.7376 10.1739C55.4276 10.1719 56.1099 10.3188 56.7377 10.6044C57.3692 10.89 57.9389 11.2954 58.4152 11.7981C58.9124 12.3269 59.3032 12.9459 59.5665 13.6218C60.133 15.118 60.133 16.769 59.5665 18.2653C59.3032 18.9411 58.9124 19.5602 58.4152 20.0889C57.9387 20.5915 57.3691 20.9969 56.7377 21.2827C56.1099 21.5684 55.4276 21.7152 54.7376 21.7131C54.0064 21.7374 53.2816 21.5693 52.6361 21.2257C52.1224 20.9512 51.6904 20.5461 51.384 20.0515H51.2063L51.384 21.5993V26.1337H48.456L48.4553 10.5281ZM54.1351 19.0305C54.515 19.0321 54.8913 18.9569 55.2414 18.8096C55.5878 18.665 55.9029 18.4549 56.1694 18.191C56.4476 17.9101 56.6681 17.5776 56.8183 17.2122C57.1455 16.3883 57.1455 15.4707 56.8183 14.6467C56.6679 14.2816 56.4476 13.9493 56.1694 13.6687C55.9028 13.4049 55.5877 13.1949 55.2414 13.0501C54.8913 12.9029 54.515 12.8278 54.1351 12.8291C53.7564 12.8276 53.381 12.8988 53.0293 13.0387C52.682 13.177 52.3663 13.384 52.1013 13.6472C51.8229 13.9279 51.6024 14.2605 51.4525 14.626C51.1242 15.4655 51.1242 16.3975 51.4525 17.237C51.6024 17.6025 51.8229 17.9351 52.1013 18.2158C52.3644 18.4838 52.6795 18.6956 53.0273 18.8384C53.3805 18.9738 53.7567 19.04 54.1351 19.0332V19.0305Z" fill="white"/>
<path d="M68.1737 20.2076H67.9958C67.6443 20.6274 67.225 20.9858 66.7553 21.268C66.1855 21.5843 65.5393 21.7374 64.888 21.7105C64.3427 21.7145 63.8012 21.621 63.289 21.4347C62.8101 21.2621 62.3668 21.0035 61.9813 20.6715C61.609 20.3475 61.3114 19.9469 61.109 19.4972C60.8972 19.0247 60.7905 18.5119 60.7964 17.9942C60.7899 17.4734 60.9047 16.9582 61.1318 16.4893C61.3565 16.0388 61.6771 15.6428 62.0712 15.3291C62.4933 14.9942 62.9754 14.7425 63.4917 14.5873C64.0686 14.4128 64.6688 14.3271 65.2717 14.3328C65.8653 14.3208 66.4583 14.3765 67.0391 14.4989C67.4267 14.5869 67.8078 14.7014 68.1797 14.8417V14.5069C68.1844 14.2317 68.1243 13.959 68.004 13.7112C67.8837 13.4634 67.7067 13.2473 67.4873 13.0803C66.9984 12.6954 66.3887 12.4957 65.7662 12.5166C65.2692 12.5147 64.7786 12.6275 64.3325 12.846C63.8863 13.0646 63.4968 13.383 63.1944 13.7765L61.0715 12.3405C62.1462 11.1539 63.6173 10.3987 65.2097 10.2161C66.802 10.0336 68.4065 10.436 69.7229 11.3484C70.1908 11.7983 70.5537 12.3456 70.7856 12.9514C71.0175 13.5571 71.1129 14.2064 71.0648 14.853V21.3537H68.1797L68.1737 20.2076ZM68.1737 16.9573C67.8323 16.7942 67.4765 16.6631 67.1108 16.5656C66.7229 16.4679 66.3241 16.42 65.9239 16.423C65.3478 16.3862 64.7763 16.5463 64.3035 16.8769C64.1269 17.005 63.9833 17.1731 63.8843 17.3673C63.7853 17.5615 63.7337 17.7763 63.7338 17.9942C63.7294 18.2026 63.7771 18.4087 63.8729 18.594C63.9687 18.7792 64.1093 18.9376 64.2821 19.0547C64.6492 19.318 65.0921 19.4555 65.5442 19.4464C66.257 19.4531 66.9437 19.1788 67.4551 18.6831C67.6844 18.4555 67.8665 18.1851 67.9911 17.8872C68.1157 17.5894 68.1802 17.2699 68.1811 16.9472L68.1737 16.9573Z" fill="white"/>
<path d="M83.2201 18.6009C82.7522 19.5046 82.0644 20.2765 81.2196 20.8457C80.264 21.4546 79.1442 21.7582 78.0105 21.716C77.2112 21.7255 76.4177 21.5794 75.6741 21.2855C74.987 21.0123 74.3629 20.6022 73.84 20.0804C73.321 19.5578 72.9106 18.938 72.6322 18.2567C72.3352 17.5228 72.1872 16.7372 72.1967 15.9457C72.1877 15.1504 72.3357 14.361 72.6322 13.6226C72.9051 12.9391 73.3162 12.319 73.84 11.801C74.3651 11.2812 74.9914 10.874 75.68 10.6046C76.4228 10.3108 77.217 10.1645 78.0164 10.1742C79.145 10.1358 80.2589 10.4365 81.2137 11.0371C82.0512 11.5809 82.7119 12.3568 83.113 13.2698L80.4298 14.3738C80.212 13.9149 79.8761 13.5222 79.4559 13.2357C79.01 12.9622 78.493 12.826 77.9694 12.844C77.591 12.8429 77.2156 12.9202 76.868 13.071C76.5182 13.2186 76.2028 13.4366 75.941 13.7113C75.6792 13.9861 75.4768 14.3116 75.347 14.6677C75.0486 15.497 75.0486 16.4039 75.347 17.2332C75.4768 17.5893 75.6792 17.9148 75.941 18.1895C76.2028 18.4642 76.5182 18.6822 76.868 18.8298C77.2141 18.9781 77.5874 19.0533 77.9643 19.0508C78.5106 19.0681 79.0511 18.926 79.5175 18.6417C79.9582 18.3511 80.3102 17.9448 80.5339 17.4675L83.2201 18.6009Z" fill="white"/>
<path d="M94.8237 18.7547C94.3301 19.6294 93.6269 20.3688 92.7777 20.9071C91.8317 21.4765 90.7405 21.7606 89.6368 21.7252C88.8441 21.7335 88.0579 21.5873 87.3217 21.2947C86.6301 21.0192 86.0024 20.607 85.4744 20.083C84.9486 19.5606 84.535 18.9369 84.2585 18.2499C83.9615 17.516 83.8134 16.7304 83.8229 15.9389C83.8193 15.1773 83.9637 14.4222 84.249 13.7155C84.7968 12.3347 85.8704 11.2261 87.2344 10.6313C87.9582 10.3174 88.7407 10.1613 89.529 10.1734C90.3327 10.1588 91.1313 10.3051 91.8779 10.6038C92.5327 10.87 93.1209 11.2776 93.599 11.7975C94.0691 12.3202 94.4269 12.9336 94.6499 13.5997C94.8941 14.3268 95.0151 15.0893 95.0085 15.8559V16.1237C94.9945 16.2037 94.9872 16.2848 94.9865 16.366C94.9711 16.4458 94.9637 16.5271 94.9645 16.6084H86.7115C86.757 17.0084 86.8824 17.3954 87.0797 17.7465C87.2571 18.054 87.4918 18.3245 87.7719 18.5432C88.0418 18.7538 88.3491 18.9113 88.6776 19.0071C89.0047 19.1025 89.3435 19.1505 89.6845 19.1497C90.2733 19.1726 90.8549 19.0142 91.3499 18.6958C91.7811 18.4029 92.1367 18.013 92.389 17.5577L94.8237 18.7547ZM92.1624 14.5531C92.1353 14.3286 92.0671 14.1111 91.9615 13.9111C91.8397 13.6617 91.6725 13.4368 91.4687 13.2476C91.2347 13.0296 90.9612 12.857 90.6635 12.7388C90.2968 12.5987 89.9052 12.5323 89.5121 12.5433C88.9174 12.5333 88.3359 12.7197 87.8585 13.0735C87.3693 13.4441 87.0159 13.9645 86.8523 14.5551L92.1624 14.5531Z" fill="white"/>
<path d="M96.4319 5.53052H99.3601V10.2838L99.1826 11.8317H99.3601C99.6666 11.3372 100.099 10.9322 100.612 10.6574C101.258 10.3137 101.982 10.1457 102.714 10.17C103.404 10.1679 104.086 10.3147 104.714 10.6005C105.346 10.8859 105.915 11.2914 106.391 11.7942C106.888 12.323 107.279 12.942 107.543 13.6178C108.109 15.1141 108.109 16.7651 107.543 18.2613C107.279 18.9371 106.888 19.5561 106.391 20.085C105.915 20.5876 105.346 20.993 104.714 21.2787C104.086 21.5644 103.404 21.7112 102.714 21.7091C101.982 21.736 101.256 21.57 100.609 21.2278C100.095 20.9533 99.663 20.5482 99.3564 20.0536H99.176V21.359H96.4253L96.4319 5.53052ZM102.111 19.0333C102.49 19.0347 102.866 18.9595 103.216 18.8123C103.563 18.6678 103.877 18.4577 104.144 18.1937C104.423 17.913 104.644 17.5805 104.793 17.2149C105.122 16.3911 105.122 15.4733 104.793 14.6495C104.643 14.2835 104.421 13.9507 104.141 13.6701C103.875 13.4061 103.56 13.1961 103.214 13.0514C102.864 12.9044 102.488 12.8293 102.108 12.8305C101.728 12.835 101.353 12.9128 101.002 13.0595C100.654 13.1978 100.339 13.4048 100.074 13.668C99.7957 13.9488 99.5757 14.2814 99.4254 14.6468C99.0968 15.4863 99.0968 16.4183 99.4254 17.2578C99.5757 17.6232 99.7957 17.9557 100.074 18.2366C100.34 18.4976 100.655 18.7025 101.002 18.8391C101.355 18.9745 101.73 19.0409 102.108 19.0346L102.111 19.0333Z" fill="white"/>
<path d="M116.151 20.2076H115.97C115.618 20.6274 115.199 20.9857 114.729 21.268C114.16 21.5842 113.513 21.7374 112.862 21.7105C112.317 21.7145 111.775 21.6211 111.263 21.4347C110.784 21.2623 110.341 21.0036 109.955 20.6715C109.583 20.3475 109.286 19.9469 109.083 19.4972C108.871 19.0247 108.764 18.5119 108.77 17.9942C108.766 17.4729 108.883 16.9577 109.113 16.4893C109.337 16.0389 109.658 15.6429 110.052 15.3291C110.474 14.9942 110.956 14.7425 111.473 14.5873C112.05 14.4128 112.65 14.327 113.253 14.3328C113.846 14.3208 114.439 14.3765 115.02 14.4989C115.408 14.5869 115.789 14.7014 116.161 14.8417V14.5069C116.166 14.2319 116.106 13.9596 115.986 13.7123C115.865 13.4642 115.688 13.2477 115.468 13.0803C114.979 12.6954 114.369 12.4957 113.747 12.5166C113.249 12.5148 112.759 12.6276 112.313 12.8462C111.866 13.0647 111.477 13.3831 111.175 13.7765L109.053 12.3405C110.127 11.1539 111.598 10.3987 113.191 10.2161C114.783 10.0336 116.387 10.436 117.704 11.3484C118.172 11.7985 118.534 12.3458 118.766 12.9515C118.998 13.5572 119.093 14.2064 119.046 14.853V21.3537H116.151V20.2076ZM116.151 16.9573C115.81 16.7943 115.454 16.6632 115.089 16.5656C114.7 16.4679 114.302 16.42 113.901 16.423C113.325 16.3862 112.754 16.5463 112.281 16.8769C112.105 17.005 111.961 17.1731 111.862 17.3673C111.763 17.5615 111.711 17.7763 111.712 17.9942C111.707 18.2023 111.754 18.4084 111.85 18.5934C111.946 18.779 112.086 18.9378 112.259 19.0554C112.627 19.3187 113.07 19.4561 113.522 19.447C114.235 19.4538 114.922 19.1792 115.433 18.6831C115.663 18.4556 115.845 18.1851 115.969 17.8873C116.094 17.5894 116.159 17.2699 116.159 16.9472L116.151 16.9573Z" fill="white"/>
<path d="M125.141 21.7178C124.494 21.7267 123.85 21.6364 123.231 21.45C122.714 21.2931 122.224 21.0581 121.779 20.7531C121.382 20.4785 121.032 20.1429 120.74 19.7589C120.472 19.4111 120.253 19.0282 120.091 18.6208L122.707 17.5155C122.916 18.0221 123.27 18.4562 123.724 18.7641C124.147 19.0365 124.641 19.1787 125.145 19.1731C125.588 19.1956 126.029 19.096 126.419 18.8853C126.552 18.8234 126.666 18.7273 126.748 18.6068C126.831 18.4863 126.88 18.346 126.889 18.2004C126.89 18.0571 126.854 17.916 126.785 17.7906C126.716 17.6648 126.615 17.5587 126.493 17.482C126.077 17.238 125.62 17.0697 125.144 16.9852L123.601 16.6505C123.235 16.5677 122.878 16.447 122.537 16.2903C122.179 16.1319 121.846 15.9236 121.547 15.6717C121.246 15.4186 120.996 15.1113 120.809 14.7659C120.608 14.3844 120.509 13.9582 120.518 13.5274C120.509 13.0339 120.628 12.5465 120.864 12.1128C121.099 11.6962 121.424 11.3371 121.815 11.0617C122.246 10.7604 122.727 10.536 123.235 10.3982C123.807 10.2396 124.397 10.1612 124.99 10.1653C125.957 10.1482 126.914 10.3566 127.786 10.7738C128.605 11.1784 129.249 11.8663 129.598 12.7093L127.071 13.7269C126.883 13.3203 126.559 12.9917 126.155 12.7977C125.779 12.6123 125.366 12.514 124.947 12.5097C124.566 12.5011 124.189 12.5886 123.85 12.7642C123.718 12.8168 123.603 12.9062 123.52 13.0216C123.438 13.137 123.388 13.2736 123.381 13.4156C123.383 13.5423 123.422 13.6657 123.492 13.7714C123.562 13.8772 123.661 13.9608 123.776 14.0127C124.113 14.1869 124.47 14.3184 124.84 14.4044L126.517 14.796C127.456 14.9634 128.324 15.4063 129.01 16.068C129.543 16.6241 129.836 17.3671 129.825 18.1367C129.825 18.6068 129.71 19.0697 129.489 19.4851C129.254 19.9257 128.931 20.3132 128.539 20.6232C128.099 20.9706 127.599 21.2357 127.063 21.4058C126.444 21.6123 125.796 21.7167 125.144 21.7151L125.141 21.7178Z" fill="white"/>
<path d="M132.672 9.07011C132.175 9.07004 131.697 8.87533 131.342 8.52784C131.174 8.35911 131.04 8.15987 130.946 7.94072C130.85 7.70928 130.801 7.46116 130.801 7.21066C130.801 6.96013 130.85 6.71205 130.946 6.4806C131.04 6.2615 131.174 6.06221 131.342 5.89346C131.7 5.5463 132.179 5.35205 132.678 5.35205C133.177 5.35205 133.656 5.5463 134.014 5.89346C134.276 6.15481 134.455 6.48852 134.527 6.85185C134.598 7.21517 134.559 7.59155 134.416 7.93275C134.271 8.27394 134.028 8.56443 133.717 8.76697C133.407 8.9695 133.043 9.07545 132.672 9.07011ZM131.218 21.3651V10.5283H134.146V21.3631L131.218 21.3651Z" fill="white"/>
<path d="M146.667 18.6009C146.199 19.5047 145.511 20.2765 144.667 20.8457C143.711 21.4546 142.591 21.7583 141.457 21.716C140.658 21.7256 139.864 21.5794 139.121 21.2856C138.434 21.0123 137.81 20.6022 137.287 20.0805C136.768 19.5579 136.358 18.9381 136.08 18.2568C135.783 17.5228 135.634 16.7373 135.644 15.9458C135.635 15.1504 135.783 14.3611 136.08 13.6227C136.353 12.9391 136.764 12.3187 137.287 11.7997C137.81 11.2808 138.434 10.8743 139.12 10.6054C139.864 10.3115 140.657 10.1653 141.456 10.1749C142.585 10.1365 143.699 10.4372 144.654 11.0378C145.491 11.5817 146.151 12.3577 146.553 13.2705L143.87 14.3745C143.652 13.9157 143.316 13.523 142.896 13.2364C142.45 12.963 141.933 12.8267 141.409 12.8447C141.033 12.8425 140.66 12.9177 140.313 13.0656C139.963 13.2134 139.648 13.4314 139.386 13.706C139.124 13.9808 138.922 14.3063 138.792 14.6624C138.494 15.4917 138.494 16.3986 138.792 17.2278C138.922 17.5839 139.124 17.9095 139.386 18.1842C139.648 18.4589 139.963 18.6769 140.313 18.8245C140.659 18.9728 141.033 19.048 141.409 19.0455C141.956 19.064 142.496 18.9233 142.963 18.6405C143.403 18.3498 143.755 17.9435 143.98 17.4661L146.667 18.6009Z" fill="white"/>
<path d="M151.067 5.12207C149.449 5.12207 148.133 6.43502 148.133 8.0489C148.133 9.66275 149.449 10.9757 151.067 10.9757C152.684 10.9757 154 9.66275 154 8.0489C154 6.43502 152.684 5.12207 151.067 5.12207ZM151.067 10.5421C149.689 10.5421 148.568 9.42363 148.568 8.0489C148.568 6.67416 149.689 5.55567 151.067 5.55567C152.445 5.55567 153.565 6.67416 153.565 8.0489C153.565 9.42363 152.445 10.5421 151.067 10.5421Z" fill="white"/>
<path d="M149.276 7.47691H149.83V9.02418H150.206V7.47691H150.759V7.16187H149.276V7.47691Z" fill="white"/>
<path d="M151.9 8.4323L151.561 7.16187H150.997V9.02418H151.347V7.5582L151.716 9.02418H152.079L152.45 7.5582V9.02418H152.8V7.16187H152.235L151.9 8.4323Z" fill="white"/>
</g>
<defs>
<clipPath id="clip0_569_752">
<rect width="154" height="30" fill="white"/>
</clipPath>
</defs>
</svg>
