<svg width="388" height="396" viewBox="0 0 388 396" fill="none" xmlns="http://www.w3.org/2000/svg">
<path d="M53 291.5H376C382.351 291.5 387.5 296.649 387.5 303V384C387.5 390.351 382.351 395.5 376 395.5H53C46.6487 395.5 41.5 390.351 41.5 384V303C41.5 296.649 46.6487 291.5 53 291.5Z" fill="#23272E" stroke="url(#paint0_linear_3_35)"/>
<path d="M57.9609 354V345.562H61.002C61.9824 345.562 62.7188 345.764 63.2109 346.166C63.7031 346.568 63.9492 347.15 63.9492 347.912C63.9492 348.658 63.7031 349.236 63.2109 349.646C62.7227 350.057 61.9805 350.262 60.9844 350.262H59.0156V354H57.9609ZM59.0156 349.395H61.002C61.6113 349.395 62.0742 349.264 62.3906 349.002C62.7109 348.74 62.8711 348.383 62.8711 347.93C62.8711 347.523 62.7285 347.172 62.4434 346.875C62.1582 346.578 61.6777 346.43 61.002 346.43H59.0156V349.395ZM67.3477 354.141C66.9062 354.141 66.5234 354.041 66.1992 353.842C65.875 353.643 65.625 353.357 65.4492 352.986C65.2734 352.615 65.1855 352.172 65.1855 351.656V347.672H66.1699V351.58C66.1699 352.096 66.2676 352.516 66.4629 352.84C66.6582 353.16 67.0098 353.32 67.5176 353.32C67.8965 353.32 68.2246 353.223 68.502 353.027C68.7793 352.832 68.9941 352.539 69.1465 352.148C69.3027 351.758 69.3809 351.27 69.3809 350.684V347.672H70.3652V354H69.4395V352.512L69.4805 352.77C69.3164 353.16 69.0508 353.486 68.6836 353.748C68.3203 354.01 67.875 354.141 67.3477 354.141ZM75.2988 354.141C74.8848 354.141 74.4746 354.037 74.0684 353.83C73.6621 353.623 73.3555 353.273 73.1484 352.781L73.2012 352.734V354H72.2754V345.211H73.2598V348.99L73.1719 348.896C73.3438 348.436 73.6289 348.094 74.0273 347.871C74.4258 347.645 74.8496 347.531 75.2988 347.531C75.8145 347.531 76.2676 347.666 76.6582 347.936C77.0488 348.205 77.3535 348.588 77.5723 349.084C77.791 349.58 77.9004 350.166 77.9004 350.842C77.9004 351.518 77.7891 352.104 77.5664 352.6C77.3477 353.092 77.043 353.473 76.6523 353.742C76.2617 354.008 75.8105 354.141 75.2988 354.141ZM75.0293 353.32C75.5527 353.32 75.9824 353.105 76.3184 352.676C76.6543 352.242 76.8223 351.623 76.8223 350.818C76.8223 350.037 76.6602 349.432 76.3359 349.002C76.0117 348.568 75.5801 348.352 75.041 348.352C74.7129 348.352 74.4102 348.438 74.1328 348.609C73.8594 348.781 73.6406 349.049 73.4766 349.412C73.3125 349.775 73.2305 350.244 73.2305 350.818C73.2305 351.666 73.4062 352.295 73.7578 352.705C74.1094 353.115 74.5332 353.32 75.0293 353.32ZM80.3027 354C80.0527 354 79.834 353.918 79.6465 353.754C79.459 353.586 79.3652 353.375 79.3652 353.121V345.211H80.3496V352.857C80.3496 352.986 80.3672 353.072 80.4023 353.115C80.4414 353.158 80.5215 353.18 80.6426 353.18H81.2578V354H80.3027ZM82.5703 354V347.672H83.5547V354H82.5703ZM83.0625 346.611C82.8359 346.611 82.6426 346.531 82.4824 346.371C82.3223 346.211 82.2422 346.018 82.2422 345.791C82.2422 345.561 82.3223 345.367 82.4824 345.211C82.6426 345.051 82.8359 344.971 83.0625 344.971C83.293 344.971 83.4863 345.051 83.6426 345.211C83.8027 345.367 83.8828 345.561 83.8828 345.791C83.8828 346.018 83.8027 346.211 83.6426 346.371C83.4863 346.531 83.293 346.611 83.0625 346.611ZM87.9609 354.141C87.3672 354.141 86.8535 354.006 86.4199 353.736C85.9863 353.467 85.6523 353.086 85.418 352.594C85.1836 352.098 85.0664 351.512 85.0664 350.836C85.0664 350.16 85.1836 349.576 85.418 349.084C85.6523 348.588 85.9863 348.205 86.4199 347.936C86.8535 347.666 87.3672 347.531 87.9609 347.531C88.4141 347.531 88.8184 347.615 89.1738 347.783C89.5332 347.947 89.8359 348.186 90.082 348.498C90.332 348.807 90.5156 349.18 90.6328 349.617L89.6309 349.881C89.5215 349.389 89.3242 349.012 89.0391 348.75C88.7578 348.484 88.3984 348.352 87.9609 348.352C87.3789 348.352 86.9297 348.568 86.6133 349.002C86.3008 349.432 86.1445 350.043 86.1445 350.836C86.1445 351.633 86.3008 352.246 86.6133 352.676C86.9297 353.105 87.3789 353.32 87.9609 353.32C88.3945 353.32 88.752 353.193 89.0332 352.939C89.3145 352.682 89.5117 352.311 89.625 351.826L90.6211 352.107C90.5273 352.428 90.3984 352.713 90.2344 352.963C90.0703 353.213 89.875 353.426 89.6484 353.602C89.4258 353.777 89.1719 353.91 88.8867 354C88.6055 354.094 88.2969 354.141 87.9609 354.141ZM97.9805 354.141C97.332 354.141 96.7656 354.033 96.2812 353.818C95.8008 353.6 95.4121 353.285 95.1152 352.875C94.8184 352.461 94.6211 351.963 94.5234 351.381L95.7773 351.123C95.8047 351.814 96.0059 352.346 96.3809 352.717C96.7559 353.088 97.2793 353.273 97.9512 353.273C98.3574 353.273 98.7012 353.207 98.9824 353.074C99.2676 352.941 99.4844 352.754 99.6328 352.512C99.7852 352.27 99.8613 351.984 99.8613 351.656C99.8613 351.219 99.7344 350.895 99.4805 350.684C99.2305 350.469 98.8867 350.312 98.4492 350.215L97.3477 349.969C97.1445 349.922 96.9082 349.857 96.6387 349.775C96.373 349.693 96.1152 349.572 95.8652 349.412C95.6152 349.252 95.4062 349.035 95.2383 348.762C95.0742 348.488 94.9922 348.139 94.9922 347.713C94.9922 347.17 95.1309 346.73 95.4082 346.395C95.6895 346.059 96.0527 345.812 96.498 345.656C96.9473 345.5 97.4238 345.422 97.9277 345.422C98.5098 345.422 99.0078 345.516 99.4219 345.703C99.8398 345.887 100.176 346.148 100.43 346.488C100.688 346.828 100.861 347.234 100.951 347.707L99.7148 347.965C99.6836 347.605 99.5957 347.303 99.4512 347.057C99.3066 346.807 99.1035 346.617 98.8418 346.488C98.5801 346.355 98.2539 346.289 97.8633 346.289C97.5469 346.289 97.25 346.336 96.9727 346.43C96.6992 346.523 96.4766 346.67 96.3047 346.869C96.1328 347.068 96.0469 347.328 96.0469 347.648C96.0469 347.984 96.1621 348.254 96.3926 348.457C96.627 348.656 97.0156 348.818 97.5586 348.943L98.6719 349.201C99.0664 349.291 99.4395 349.426 99.791 349.605C100.143 349.785 100.428 350.037 100.646 350.361C100.865 350.682 100.975 351.105 100.975 351.633C100.975 352.16 100.854 352.611 100.611 352.986C100.373 353.361 100.029 353.648 99.5801 353.848C99.1348 354.043 98.6016 354.141 97.9805 354.141ZM105.275 354.141C104.752 354.141 104.268 354.039 103.822 353.836C103.381 353.633 103.018 353.338 102.732 352.951C102.447 352.561 102.279 352.084 102.229 351.521L103.295 351.188C103.338 351.816 103.529 352.326 103.869 352.717C104.209 353.104 104.672 353.297 105.258 353.297C105.785 353.297 106.223 353.145 106.57 352.84C106.922 352.531 107.098 352.088 107.098 351.51C107.098 351.283 107.049 351.043 106.951 350.789C106.857 350.531 106.688 350.312 106.441 350.133C106.195 349.953 105.846 349.863 105.393 349.863H104.232V348.973H105.299C105.795 348.973 106.174 348.842 106.436 348.58C106.701 348.314 106.834 348.016 106.834 347.684C106.834 347.293 106.697 346.959 106.424 346.682C106.15 346.404 105.764 346.266 105.264 346.266C104.646 346.266 104.193 346.441 103.904 346.793C103.619 347.145 103.455 347.633 103.412 348.258L102.346 347.924C102.369 347.521 102.504 347.129 102.75 346.746C102.996 346.363 103.336 346.047 103.77 345.797C104.203 345.547 104.713 345.422 105.299 345.422C105.779 345.422 106.215 345.516 106.605 345.703C107 345.891 107.312 346.148 107.543 346.477C107.773 346.801 107.889 347.176 107.889 347.602C107.889 347.883 107.83 348.143 107.713 348.381C107.596 348.615 107.42 348.816 107.186 348.984C106.951 349.152 106.654 349.277 106.295 349.359C106.889 349.465 107.355 349.717 107.695 350.115C108.039 350.51 108.211 350.967 108.211 351.486C108.211 351.955 108.127 352.357 107.959 352.693C107.795 353.029 107.572 353.305 107.291 353.52C107.01 353.73 106.695 353.887 106.348 353.988C106 354.09 105.643 354.141 105.275 354.141ZM115.74 354.141C115.326 354.141 114.916 354.037 114.51 353.83C114.104 353.623 113.797 353.273 113.59 352.781L113.643 352.734V354H112.717V345.211H113.701V348.99L113.613 348.896C113.785 348.436 114.07 348.094 114.469 347.871C114.867 347.645 115.291 347.531 115.74 347.531C116.256 347.531 116.709 347.666 117.1 347.936C117.49 348.205 117.795 348.588 118.014 349.084C118.232 349.58 118.342 350.166 118.342 350.842C118.342 351.518 118.23 352.104 118.008 352.6C117.789 353.092 117.484 353.473 117.094 353.742C116.703 354.008 116.252 354.141 115.74 354.141ZM115.471 353.32C115.994 353.32 116.424 353.105 116.76 352.676C117.096 352.242 117.264 351.623 117.264 350.818C117.264 350.037 117.102 349.432 116.777 349.002C116.453 348.568 116.021 348.352 115.482 348.352C115.154 348.352 114.852 348.438 114.574 348.609C114.301 348.781 114.082 349.049 113.918 349.412C113.754 349.775 113.672 350.244 113.672 350.818C113.672 351.666 113.848 352.295 114.199 352.705C114.551 353.115 114.975 353.32 115.471 353.32ZM121.957 354.141C121.516 354.141 121.133 354.041 120.809 353.842C120.484 353.643 120.234 353.357 120.059 352.986C119.883 352.615 119.795 352.172 119.795 351.656V347.672H120.779V351.58C120.779 352.096 120.877 352.516 121.072 352.84C121.268 353.16 121.619 353.32 122.127 353.32C122.506 353.32 122.834 353.223 123.111 353.027C123.389 352.832 123.604 352.539 123.756 352.148C123.912 351.758 123.99 351.27 123.99 350.684V347.672H124.975V354H124.049V352.512L124.09 352.77C123.926 353.16 123.66 353.486 123.293 353.748C122.93 354.01 122.484 354.141 121.957 354.141ZM129.375 354.141C128.781 354.141 128.268 354.006 127.834 353.736C127.4 353.467 127.066 353.086 126.832 352.594C126.598 352.098 126.48 351.512 126.48 350.836C126.48 350.16 126.598 349.576 126.832 349.084C127.066 348.588 127.4 348.205 127.834 347.936C128.268 347.666 128.781 347.531 129.375 347.531C129.828 347.531 130.232 347.615 130.588 347.783C130.947 347.947 131.25 348.186 131.496 348.498C131.746 348.807 131.93 349.18 132.047 349.617L131.045 349.881C130.936 349.389 130.738 349.012 130.453 348.75C130.172 348.484 129.812 348.352 129.375 348.352C128.793 348.352 128.344 348.568 128.027 349.002C127.715 349.432 127.559 350.043 127.559 350.836C127.559 351.633 127.715 352.246 128.027 352.676C128.344 353.105 128.793 353.32 129.375 353.32C129.809 353.32 130.166 353.193 130.447 352.939C130.729 352.682 130.926 352.311 131.039 351.826L132.035 352.107C131.941 352.428 131.812 352.713 131.648 352.963C131.484 353.213 131.289 353.426 131.062 353.602C130.84 353.777 130.586 353.91 130.301 354C130.02 354.094 129.711 354.141 129.375 354.141ZM133.477 354V345.211H134.461V350.502L137.432 347.672H138.773L136.16 350.074L138.826 354H137.66L135.445 350.73L134.461 351.639V354H133.477ZM142.236 354.141C141.635 354.141 141.113 354.006 140.672 353.736C140.234 353.467 139.896 353.086 139.658 352.594C139.42 352.098 139.301 351.514 139.301 350.842C139.301 350.166 139.42 349.58 139.658 349.084C139.896 348.588 140.232 348.205 140.666 347.936C141.1 347.666 141.609 347.531 142.195 347.531C142.531 347.531 142.867 347.586 143.203 347.695C143.543 347.801 143.852 347.986 144.129 348.252C144.41 348.514 144.635 348.875 144.803 349.336C144.975 349.793 145.061 350.371 145.061 351.07H139.934V350.273H144.205L143.924 350.643C143.904 350.088 143.814 349.643 143.654 349.307C143.494 348.971 143.285 348.729 143.027 348.58C142.773 348.428 142.49 348.352 142.178 348.352C141.807 348.352 141.486 348.449 141.217 348.645C140.947 348.836 140.74 349.117 140.596 349.488C140.451 349.859 140.379 350.312 140.379 350.848C140.379 351.637 140.539 352.246 140.859 352.676C141.184 353.105 141.643 353.32 142.236 353.32C142.662 353.32 143.02 353.213 143.309 352.998C143.602 352.783 143.816 352.473 143.953 352.066L144.92 352.395C144.768 352.762 144.564 353.076 144.311 353.338C144.057 353.596 143.754 353.795 143.402 353.936C143.055 354.072 142.666 354.141 142.236 354.141ZM147.703 354C147.453 354 147.234 353.918 147.047 353.754C146.859 353.586 146.766 353.375 146.766 353.121V348.492H145.746V347.672H146.766V346.348L147.75 346.137V347.672H149.004V348.492H147.75V352.857C147.75 352.986 147.768 353.072 147.803 353.115C147.842 353.158 147.922 353.18 148.043 353.18H149.01V354H147.703ZM154.4 354C154.15 354 153.932 353.918 153.744 353.754C153.557 353.586 153.463 353.375 153.463 353.121V345.211H154.447V352.857C154.447 352.986 154.465 353.072 154.5 353.115C154.539 353.158 154.619 353.18 154.74 353.18H155.355V354H154.4ZM159.146 354.141C158.545 354.141 158.023 354.006 157.582 353.736C157.145 353.467 156.807 353.086 156.568 352.594C156.33 352.098 156.211 351.514 156.211 350.842C156.211 350.166 156.33 349.58 156.568 349.084C156.807 348.588 157.143 348.205 157.576 347.936C158.01 347.666 158.52 347.531 159.105 347.531C159.441 347.531 159.777 347.586 160.113 347.695C160.453 347.801 160.762 347.986 161.039 348.252C161.32 348.514 161.545 348.875 161.713 349.336C161.885 349.793 161.971 350.371 161.971 351.07H156.844V350.273H161.115L160.834 350.643C160.814 350.088 160.725 349.643 160.564 349.307C160.404 348.971 160.195 348.729 159.938 348.58C159.684 348.428 159.4 348.352 159.088 348.352C158.717 348.352 158.396 348.449 158.127 348.645C157.857 348.836 157.65 349.117 157.506 349.488C157.361 349.859 157.289 350.312 157.289 350.848C157.289 351.637 157.449 352.246 157.77 352.676C158.094 353.105 158.553 353.32 159.146 353.32C159.572 353.32 159.93 353.213 160.219 352.998C160.512 352.783 160.727 352.473 160.863 352.066L161.83 352.395C161.678 352.762 161.475 353.076 161.221 353.338C160.967 353.596 160.664 353.795 160.312 353.936C159.965 354.072 159.576 354.141 159.146 354.141ZM165.082 354.141C164.66 354.141 164.293 354.061 163.98 353.9C163.672 353.736 163.434 353.514 163.266 353.232C163.098 352.951 163.014 352.633 163.014 352.277C163.014 351.898 163.125 351.549 163.348 351.229C163.57 350.908 163.914 350.652 164.379 350.461C164.848 350.266 165.447 350.168 166.178 350.168H167.232L167.127 350.273V349.928C167.127 349.42 167.025 349.031 166.822 348.762C166.619 348.488 166.279 348.352 165.803 348.352C165.354 348.352 165.008 348.469 164.766 348.703C164.523 348.934 164.395 349.244 164.379 349.635L163.271 349.383C163.307 349.043 163.436 348.734 163.658 348.457C163.885 348.176 164.186 347.951 164.561 347.783C164.939 347.615 165.377 347.531 165.873 347.531C166.385 347.531 166.801 347.629 167.121 347.824C167.445 348.016 167.684 348.293 167.836 348.656C167.988 349.02 168.064 349.457 168.064 349.969V352.857C168.064 352.986 168.082 353.072 168.117 353.115C168.156 353.158 168.236 353.18 168.357 353.18H168.715V354H168.088C167.822 354 167.6 353.918 167.42 353.754C167.24 353.586 167.15 353.375 167.15 353.121V352.676H167.297C167.234 352.84 167.145 353.008 167.027 353.18C166.91 353.348 166.762 353.506 166.582 353.654C166.402 353.799 166.188 353.916 165.938 354.006C165.691 354.096 165.406 354.141 165.082 354.141ZM165.305 353.32C165.629 353.32 165.93 353.24 166.207 353.08C166.484 352.92 166.707 352.67 166.875 352.33C167.047 351.986 167.133 351.541 167.133 350.994V350.941H166.143C165.623 350.941 165.213 351.01 164.912 351.146C164.615 351.283 164.404 351.453 164.279 351.656C164.154 351.855 164.092 352.055 164.092 352.254C164.092 352.453 164.137 352.633 164.227 352.793C164.316 352.953 164.451 353.082 164.631 353.18C164.811 353.273 165.035 353.32 165.305 353.32ZM170.086 354V345.211H171.07V350.502L174.041 347.672H175.383L172.77 350.074L175.436 354H174.27L172.055 350.73L171.07 351.639V354H170.086ZM176.625 354V347.672H177.609V354H176.625ZM177.117 346.611C176.891 346.611 176.697 346.531 176.537 346.371C176.377 346.211 176.297 346.018 176.297 345.791C176.297 345.561 176.377 345.367 176.537 345.211C176.697 345.051 176.891 344.971 177.117 344.971C177.348 344.971 177.541 345.051 177.697 345.211C177.857 345.367 177.938 345.561 177.938 345.791C177.938 346.018 177.857 346.211 177.697 346.371C177.541 346.531 177.348 346.611 177.117 346.611ZM179.525 354V347.672H180.451V349.102L180.41 348.844C180.578 348.48 180.844 348.172 181.207 347.918C181.57 347.66 182.012 347.531 182.531 347.531C182.98 347.531 183.367 347.631 183.691 347.83C184.016 348.029 184.266 348.314 184.441 348.686C184.617 349.053 184.705 349.496 184.705 350.016V354H183.721V350.092C183.721 349.572 183.613 349.152 183.398 348.832C183.188 348.512 182.838 348.352 182.35 348.352C181.822 348.352 181.383 348.553 181.031 348.955C180.684 349.354 180.51 349.932 180.51 350.689V354H179.525ZM188.842 356.426C187.9 356.426 187.207 356.293 186.762 356.027C186.316 355.766 186.094 355.359 186.094 354.809C186.094 354.496 186.174 354.217 186.334 353.971C186.494 353.725 186.771 353.535 187.166 353.402C187.018 353.312 186.896 353.193 186.803 353.045C186.709 352.896 186.662 352.73 186.662 352.547C186.662 352.328 186.73 352.133 186.867 351.961C187.004 351.785 187.199 351.66 187.453 351.586C187.141 351.402 186.896 351.154 186.721 350.842C186.549 350.525 186.463 350.158 186.463 349.74C186.463 349.287 186.562 348.896 186.762 348.568C186.965 348.236 187.252 347.98 187.623 347.801C187.998 347.621 188.443 347.531 188.959 347.531C189.475 347.531 189.92 347.621 190.295 347.801C190.674 347.98 190.965 348.236 191.168 348.568C191.375 348.9 191.479 349.295 191.479 349.752C191.479 350.201 191.375 350.59 191.168 350.918C190.965 351.242 190.674 351.494 190.295 351.674C189.916 351.85 189.465 351.938 188.941 351.938H188.396C187.904 351.938 187.658 352.084 187.658 352.377C187.658 352.654 187.896 352.793 188.373 352.793H189.639C190.139 352.793 190.541 352.852 190.846 352.969C191.154 353.082 191.389 353.23 191.549 353.414C191.713 353.594 191.824 353.789 191.883 354C191.941 354.211 191.971 354.412 191.971 354.604C191.971 355.225 191.746 355.684 191.297 355.98C190.848 356.277 190.15 356.426 189.205 356.426H188.842ZM188.842 355.641H189.205C190.369 355.641 190.951 355.293 190.951 354.598C190.951 354.309 190.846 354.072 190.635 353.889C190.428 353.705 190.072 353.613 189.568 353.613H188.479C188.088 353.613 187.762 353.693 187.5 353.854C187.238 354.01 187.107 354.268 187.107 354.627C187.107 354.971 187.248 355.225 187.529 355.389C187.814 355.557 188.252 355.641 188.842 355.641ZM188.959 351.246C189.455 351.246 189.836 351.119 190.102 350.865C190.367 350.607 190.5 350.236 190.5 349.752C190.5 349.271 190.367 348.898 190.102 348.633C189.836 348.367 189.455 348.234 188.959 348.234C188.467 348.234 188.09 348.367 187.828 348.633C187.566 348.895 187.436 349.268 187.436 349.752C187.436 350.236 187.566 350.607 187.828 350.865C188.09 351.119 188.467 351.246 188.959 351.246ZM190.002 348.193V347.566C190.002 347.312 190.096 347.104 190.283 346.939C190.471 346.771 190.689 346.688 190.939 346.688H191.701V347.508H191.074C190.953 347.508 190.873 347.529 190.834 347.572C190.799 347.615 190.781 347.701 190.781 347.83V348.193H190.002ZM198.492 354.141C198.035 354.141 197.619 354.066 197.244 353.918C196.873 353.766 196.564 353.537 196.318 353.232C196.072 352.924 195.908 352.533 195.826 352.061L196.857 351.861C196.9 352.357 197.068 352.727 197.361 352.969C197.658 353.211 198.029 353.332 198.475 353.332C198.916 353.332 199.268 353.221 199.529 352.998C199.791 352.775 199.922 352.504 199.922 352.184C199.922 351.91 199.828 351.693 199.641 351.533C199.457 351.373 199.189 351.26 198.838 351.193L198.07 351.047C197.863 351.008 197.648 350.953 197.426 350.883C197.203 350.812 196.994 350.715 196.799 350.59C196.607 350.465 196.451 350.301 196.33 350.098C196.213 349.895 196.154 349.639 196.154 349.33C196.154 348.916 196.262 348.578 196.477 348.316C196.695 348.051 196.982 347.854 197.338 347.725C197.697 347.596 198.084 347.531 198.498 347.531C198.951 347.531 199.346 347.602 199.682 347.742C200.018 347.883 200.291 348.084 200.502 348.346C200.713 348.607 200.854 348.924 200.924 349.295L199.84 349.512C199.812 349.273 199.748 349.066 199.646 348.891C199.549 348.715 199.404 348.58 199.213 348.486C199.025 348.389 198.781 348.34 198.48 348.34C198.117 348.34 197.805 348.416 197.543 348.568C197.281 348.721 197.15 348.951 197.15 349.26C197.15 349.432 197.193 349.578 197.279 349.699C197.369 349.82 197.502 349.922 197.678 350.004C197.857 350.082 198.082 350.15 198.352 350.209L199.131 350.373C199.459 350.439 199.762 350.539 200.039 350.672C200.316 350.801 200.539 350.98 200.707 351.211C200.875 351.441 200.959 351.746 200.959 352.125C200.959 352.543 200.854 352.904 200.643 353.209C200.436 353.51 200.146 353.74 199.775 353.9C199.408 354.061 198.98 354.141 198.492 354.141ZM205.143 354.141C204.541 354.141 204.02 354.006 203.578 353.736C203.141 353.467 202.803 353.086 202.564 352.594C202.326 352.098 202.207 351.514 202.207 350.842C202.207 350.166 202.326 349.58 202.564 349.084C202.803 348.588 203.139 348.205 203.572 347.936C204.006 347.666 204.516 347.531 205.102 347.531C205.438 347.531 205.773 347.586 206.109 347.695C206.449 347.801 206.758 347.986 207.035 348.252C207.316 348.514 207.541 348.875 207.709 349.336C207.881 349.793 207.967 350.371 207.967 351.07H202.84V350.273H207.111L206.83 350.643C206.811 350.088 206.721 349.643 206.561 349.307C206.4 348.971 206.191 348.729 205.934 348.58C205.68 348.428 205.396 348.352 205.084 348.352C204.713 348.352 204.393 348.449 204.123 348.645C203.854 348.836 203.646 349.117 203.502 349.488C203.357 349.859 203.285 350.312 203.285 350.848C203.285 351.637 203.445 352.246 203.766 352.676C204.09 353.105 204.549 353.32 205.143 353.32C205.568 353.32 205.926 353.213 206.215 352.998C206.508 352.783 206.723 352.473 206.859 352.066L207.826 352.395C207.674 352.762 207.471 353.076 207.217 353.338C206.963 353.596 206.66 353.795 206.309 353.936C205.961 354.072 205.572 354.141 205.143 354.141ZM209.455 354V347.672H210.381V349.102L210.34 348.844C210.508 348.48 210.773 348.172 211.137 347.918C211.5 347.66 211.941 347.531 212.461 347.531C212.91 347.531 213.297 347.631 213.621 347.83C213.945 348.029 214.195 348.314 214.371 348.686C214.547 349.053 214.635 349.496 214.635 350.016V354H213.65V350.092C213.65 349.572 213.543 349.152 213.328 348.832C213.117 348.512 212.768 348.352 212.279 348.352C211.752 348.352 211.312 348.553 210.961 348.955C210.613 349.354 210.439 349.932 210.439 350.689V354H209.455ZM218.578 354.141C218.121 354.141 217.705 354.066 217.33 353.918C216.959 353.766 216.65 353.537 216.404 353.232C216.158 352.924 215.994 352.533 215.912 352.061L216.943 351.861C216.986 352.357 217.154 352.727 217.447 352.969C217.744 353.211 218.115 353.332 218.561 353.332C219.002 353.332 219.354 353.221 219.615 352.998C219.877 352.775 220.008 352.504 220.008 352.184C220.008 351.91 219.914 351.693 219.727 351.533C219.543 351.373 219.275 351.26 218.924 351.193L218.156 351.047C217.949 351.008 217.734 350.953 217.512 350.883C217.289 350.812 217.08 350.715 216.885 350.59C216.693 350.465 216.537 350.301 216.416 350.098C216.299 349.895 216.24 349.639 216.24 349.33C216.24 348.916 216.348 348.578 216.562 348.316C216.781 348.051 217.068 347.854 217.424 347.725C217.783 347.596 218.17 347.531 218.584 347.531C219.037 347.531 219.432 347.602 219.768 347.742C220.104 347.883 220.377 348.084 220.588 348.346C220.799 348.607 220.939 348.924 221.01 349.295L219.926 349.512C219.898 349.273 219.834 349.066 219.732 348.891C219.635 348.715 219.49 348.58 219.299 348.486C219.111 348.389 218.867 348.34 218.566 348.34C218.203 348.34 217.891 348.416 217.629 348.568C217.367 348.721 217.236 348.951 217.236 349.26C217.236 349.432 217.279 349.578 217.365 349.699C217.455 349.82 217.588 349.922 217.764 350.004C217.943 350.082 218.168 350.15 218.438 350.209L219.217 350.373C219.545 350.439 219.848 350.539 220.125 350.672C220.402 350.801 220.625 350.98 220.793 351.211C220.961 351.441 221.045 351.746 221.045 352.125C221.045 352.543 220.939 352.904 220.729 353.209C220.521 353.51 220.232 353.74 219.861 353.9C219.494 354.061 219.066 354.141 218.578 354.141ZM222.551 354V347.672H223.535V354H222.551ZM223.043 346.611C222.816 346.611 222.623 346.531 222.463 346.371C222.303 346.211 222.223 346.018 222.223 345.791C222.223 345.561 222.303 345.367 222.463 345.211C222.623 345.051 222.816 344.971 223.043 344.971C223.273 344.971 223.467 345.051 223.623 345.211C223.783 345.367 223.863 345.561 223.863 345.791C223.863 346.018 223.783 346.211 223.623 346.371C223.467 346.531 223.273 346.611 223.043 346.611ZM226.852 354C226.602 354 226.383 353.918 226.195 353.754C226.008 353.586 225.914 353.375 225.914 353.121V348.492H224.895V347.672H225.914V346.348L226.898 346.137V347.672H228.152V348.492H226.898V352.857C226.898 352.986 226.916 353.072 226.951 353.115C226.99 353.158 227.07 353.18 227.191 353.18H228.158V354H226.852ZM229.582 354V347.672H230.566V354H229.582ZM230.074 346.611C229.848 346.611 229.654 346.531 229.494 346.371C229.334 346.211 229.254 346.018 229.254 345.791C229.254 345.561 229.334 345.367 229.494 345.211C229.654 345.051 229.848 344.971 230.074 344.971C230.305 344.971 230.498 345.051 230.654 345.211C230.814 345.367 230.895 345.561 230.895 345.791C230.895 346.018 230.814 346.211 230.654 346.371C230.498 346.531 230.305 346.611 230.074 346.611ZM234.146 354L231.768 347.672H232.857L234.867 353.443H234.68L236.678 347.672H237.768L235.4 354H234.146ZM241.4 354.141C240.799 354.141 240.277 354.006 239.836 353.736C239.398 353.467 239.061 353.086 238.822 352.594C238.584 352.098 238.465 351.514 238.465 350.842C238.465 350.166 238.584 349.58 238.822 349.084C239.061 348.588 239.396 348.205 239.83 347.936C240.264 347.666 240.773 347.531 241.359 347.531C241.695 347.531 242.031 347.586 242.367 347.695C242.707 347.801 243.016 347.986 243.293 348.252C243.574 348.514 243.799 348.875 243.967 349.336C244.139 349.793 244.225 350.371 244.225 351.07H239.098V350.273H243.369L243.088 350.643C243.068 350.088 242.979 349.643 242.818 349.307C242.658 348.971 242.449 348.729 242.191 348.58C241.938 348.428 241.654 348.352 241.342 348.352C240.971 348.352 240.65 348.449 240.381 348.645C240.111 348.836 239.904 349.117 239.76 349.488C239.615 349.859 239.543 350.312 239.543 350.848C239.543 351.637 239.703 352.246 240.023 352.676C240.348 353.105 240.807 353.32 241.4 353.32C241.826 353.32 242.184 353.213 242.473 352.998C242.766 352.783 242.98 352.473 243.117 352.066L244.084 352.395C243.932 352.762 243.729 353.076 243.475 353.338C243.221 353.596 242.918 353.795 242.566 353.936C242.219 354.072 241.83 354.141 241.4 354.141ZM249.082 354V346.523C249.082 346.051 249.193 345.715 249.416 345.516C249.639 345.312 250.012 345.211 250.535 345.211H251.326V346.031H250.395C250.277 346.031 250.193 346.057 250.143 346.107C250.092 346.158 250.066 346.242 250.066 346.359V354H249.082ZM248.139 348.492V347.672H251.484V348.492H248.139ZM252.727 354V347.672H253.711V354H252.727ZM253.219 346.611C252.992 346.611 252.799 346.531 252.639 346.371C252.479 346.211 252.398 346.018 252.398 345.791C252.398 345.561 252.479 345.367 252.639 345.211C252.799 345.051 252.992 344.971 253.219 344.971C253.449 344.971 253.643 345.051 253.799 345.211C253.959 345.367 254.039 345.561 254.039 345.791C254.039 346.018 253.959 346.211 253.799 346.371C253.643 346.531 253.449 346.611 253.219 346.611ZM256.553 354C256.303 354 256.084 353.918 255.896 353.754C255.709 353.586 255.615 353.375 255.615 353.121V345.211H256.6V352.857C256.6 352.986 256.617 353.072 256.652 353.115C256.691 353.158 256.771 353.18 256.893 353.18H257.508V354H256.553ZM261.299 354.141C260.697 354.141 260.176 354.006 259.734 353.736C259.297 353.467 258.959 353.086 258.721 352.594C258.482 352.098 258.363 351.514 258.363 350.842C258.363 350.166 258.482 349.58 258.721 349.084C258.959 348.588 259.295 348.205 259.729 347.936C260.162 347.666 260.672 347.531 261.258 347.531C261.594 347.531 261.93 347.586 262.266 347.695C262.605 347.801 262.914 347.986 263.191 348.252C263.473 348.514 263.697 348.875 263.865 349.336C264.037 349.793 264.123 350.371 264.123 351.07H258.996V350.273H263.268L262.986 350.643C262.967 350.088 262.877 349.643 262.717 349.307C262.557 348.971 262.348 348.729 262.09 348.58C261.836 348.428 261.553 348.352 261.24 348.352C260.869 348.352 260.549 348.449 260.279 348.645C260.01 348.836 259.803 349.117 259.658 349.488C259.514 349.859 259.441 350.312 259.441 350.848C259.441 351.637 259.602 352.246 259.922 352.676C260.246 353.105 260.705 353.32 261.299 353.32C261.725 353.32 262.082 353.213 262.371 352.998C262.664 352.783 262.879 352.473 263.016 352.066L263.982 352.395C263.83 352.762 263.627 353.076 263.373 353.338C263.119 353.596 262.816 353.795 262.465 353.936C262.117 354.072 261.729 354.141 261.299 354.141ZM267.773 354.141C267.316 354.141 266.9 354.066 266.525 353.918C266.154 353.766 265.846 353.537 265.6 353.232C265.354 352.924 265.189 352.533 265.107 352.061L266.139 351.861C266.182 352.357 266.35 352.727 266.643 352.969C266.939 353.211 267.311 353.332 267.756 353.332C268.197 353.332 268.549 353.221 268.811 352.998C269.072 352.775 269.203 352.504 269.203 352.184C269.203 351.91 269.109 351.693 268.922 351.533C268.738 351.373 268.471 351.26 268.119 351.193L267.352 351.047C267.145 351.008 266.93 350.953 266.707 350.883C266.484 350.812 266.275 350.715 266.08 350.59C265.889 350.465 265.732 350.301 265.611 350.098C265.494 349.895 265.436 349.639 265.436 349.33C265.436 348.916 265.543 348.578 265.758 348.316C265.977 348.051 266.264 347.854 266.619 347.725C266.979 347.596 267.365 347.531 267.779 347.531C268.232 347.531 268.627 347.602 268.963 347.742C269.299 347.883 269.572 348.084 269.783 348.346C269.994 348.607 270.135 348.924 270.205 349.295L269.121 349.512C269.094 349.273 269.029 349.066 268.928 348.891C268.83 348.715 268.686 348.58 268.494 348.486C268.307 348.389 268.062 348.34 267.762 348.34C267.398 348.34 267.086 348.416 266.824 348.568C266.562 348.721 266.432 348.951 266.432 349.26C266.432 349.432 266.475 349.578 266.561 349.699C266.65 349.82 266.783 349.922 266.959 350.004C267.139 350.082 267.363 350.15 267.633 350.209L268.412 350.373C268.74 350.439 269.043 350.539 269.32 350.672C269.598 350.801 269.82 350.98 269.988 351.211C270.156 351.441 270.24 351.746 270.24 352.125C270.24 352.543 270.135 352.904 269.924 353.209C269.717 353.51 269.428 353.74 269.057 353.9C268.689 354.061 268.262 354.141 267.773 354.141Z" fill="white"/>
<path d="M61.9697 323L63.7471 313.156H65.2168L63.4395 323H61.9697ZM57.3896 320.334V319.001H65.75V320.334H57.3896ZM58.4971 323L60.2744 313.156H61.751L59.9736 323H58.4971ZM57.9365 317.155V315.822H66.3379V317.155H57.9365ZM70.7471 323.171C70.0817 323.171 69.4733 323.05 68.9219 322.809C68.3704 322.567 67.9193 322.214 67.5684 321.749C67.222 321.28 67.0238 320.712 66.9736 320.047L68.7168 319.527C68.7487 320.238 68.9378 320.792 69.2842 321.188C69.6351 321.585 70.109 321.783 70.7061 321.783C71.2347 321.783 71.6745 321.635 72.0254 321.339C72.3763 321.038 72.5518 320.601 72.5518 320.026C72.5518 319.78 72.4971 319.53 72.3877 319.274C72.2783 319.015 72.0869 318.798 71.8135 318.625C71.5446 318.452 71.1641 318.365 70.6719 318.365H69.6328V317.073H70.7061C71.2074 317.073 71.5924 316.943 71.8613 316.684C72.1302 316.419 72.2646 316.112 72.2646 315.761C72.2646 315.378 72.1325 315.05 71.8682 314.776C71.6038 314.503 71.2165 314.366 70.7061 314.366C70.1227 314.366 69.6852 314.53 69.3936 314.858C69.1064 315.182 68.9424 315.66 68.9014 316.294L67.1855 315.809C67.2174 315.348 67.3815 314.902 67.6777 314.469C67.9785 314.036 68.3955 313.68 68.9287 313.402C69.4619 313.124 70.0908 312.985 70.8154 312.985C71.4124 312.985 71.9525 313.09 72.4355 313.3C72.9232 313.509 73.3105 313.808 73.5977 314.195C73.8893 314.578 74.0352 315.038 74.0352 315.576C74.0352 315.9 73.9691 316.207 73.8369 316.499C73.7048 316.786 73.4974 317.032 73.2148 317.237C72.9368 317.438 72.5723 317.577 72.1211 317.654C72.8411 317.773 73.3971 318.058 73.7891 318.509C74.181 318.955 74.377 319.486 74.377 320.102C74.377 320.635 74.2744 321.097 74.0693 321.489C73.8688 321.877 73.5954 322.196 73.249 322.446C72.9027 322.692 72.513 322.875 72.0801 322.993C71.6517 323.112 71.2074 323.171 70.7471 323.171Z" fill="white"/>
<path d="M53 141.5H376C382.351 141.5 387.5 146.649 387.5 153V234C387.5 240.351 382.351 245.5 376 245.5H53C46.6487 245.5 41.5 240.351 41.5 234V153C41.5 146.649 46.6487 141.5 53 141.5Z" fill="#23272E" stroke="url(#paint1_linear_3_35)"/>
<path d="M57.2812 204L60.2812 199.629L57.4336 195.562H58.6641L60.9199 198.955L63.1875 195.562H64.3594L61.5117 199.652L64.5469 204H63.2461L60.8789 200.455L58.4883 204H57.2812ZM68.4375 204.141C67.7891 204.141 67.2227 204.033 66.7383 203.818C66.2578 203.6 65.8691 203.285 65.5723 202.875C65.2754 202.461 65.0781 201.963 64.9805 201.381L66.2344 201.123C66.2617 201.814 66.4629 202.346 66.8379 202.717C67.2129 203.088 67.7363 203.273 68.4082 203.273C68.8145 203.273 69.1582 203.207 69.4395 203.074C69.7246 202.941 69.9414 202.754 70.0898 202.512C70.2422 202.27 70.3184 201.984 70.3184 201.656C70.3184 201.219 70.1914 200.895 69.9375 200.684C69.6875 200.469 69.3438 200.312 68.9062 200.215L67.8047 199.969C67.6016 199.922 67.3652 199.857 67.0957 199.775C66.8301 199.693 66.5723 199.572 66.3223 199.412C66.0723 199.252 65.8633 199.035 65.6953 198.762C65.5312 198.488 65.4492 198.139 65.4492 197.713C65.4492 197.17 65.5879 196.73 65.8652 196.395C66.1465 196.059 66.5098 195.812 66.9551 195.656C67.4043 195.5 67.8809 195.422 68.3848 195.422C68.9668 195.422 69.4648 195.516 69.8789 195.703C70.2969 195.887 70.6328 196.148 70.8867 196.488C71.1445 196.828 71.3184 197.234 71.4082 197.707L70.1719 197.965C70.1406 197.605 70.0527 197.303 69.9082 197.057C69.7637 196.807 69.5605 196.617 69.2988 196.488C69.0371 196.355 68.7109 196.289 68.3203 196.289C68.0039 196.289 67.707 196.336 67.4297 196.43C67.1562 196.523 66.9336 196.67 66.7617 196.869C66.5898 197.068 66.5039 197.328 66.5039 197.648C66.5039 197.984 66.6191 198.254 66.8496 198.457C67.084 198.656 67.4727 198.818 68.0156 198.943L69.1289 199.201C69.5234 199.291 69.8965 199.426 70.248 199.605C70.5996 199.785 70.8848 200.037 71.1035 200.361C71.3223 200.682 71.4316 201.105 71.4316 201.633C71.4316 202.16 71.3105 202.611 71.0684 202.986C70.8301 203.361 70.4863 203.648 70.0371 203.848C69.5918 204.043 69.0586 204.141 68.4375 204.141ZM76.0312 204.141C75.3828 204.141 74.8164 204.033 74.332 203.818C73.8516 203.6 73.4629 203.285 73.166 202.875C72.8691 202.461 72.6719 201.963 72.5742 201.381L73.8281 201.123C73.8555 201.814 74.0566 202.346 74.4316 202.717C74.8066 203.088 75.3301 203.273 76.002 203.273C76.4082 203.273 76.752 203.207 77.0332 203.074C77.3184 202.941 77.5352 202.754 77.6836 202.512C77.8359 202.27 77.9121 201.984 77.9121 201.656C77.9121 201.219 77.7852 200.895 77.5312 200.684C77.2812 200.469 76.9375 200.312 76.5 200.215L75.3984 199.969C75.1953 199.922 74.959 199.857 74.6895 199.775C74.4238 199.693 74.166 199.572 73.916 199.412C73.666 199.252 73.457 199.035 73.2891 198.762C73.125 198.488 73.043 198.139 73.043 197.713C73.043 197.17 73.1816 196.73 73.459 196.395C73.7402 196.059 74.1035 195.812 74.5488 195.656C74.998 195.5 75.4746 195.422 75.9785 195.422C76.5605 195.422 77.0586 195.516 77.4727 195.703C77.8906 195.887 78.2266 196.148 78.4805 196.488C78.7383 196.828 78.9121 197.234 79.002 197.707L77.7656 197.965C77.7344 197.605 77.6465 197.303 77.502 197.057C77.3574 196.807 77.1543 196.617 76.8926 196.488C76.6309 196.355 76.3047 196.289 75.9141 196.289C75.5977 196.289 75.3008 196.336 75.0234 196.43C74.75 196.523 74.5273 196.67 74.3555 196.869C74.1836 197.068 74.0977 197.328 74.0977 197.648C74.0977 197.984 74.2129 198.254 74.4434 198.457C74.6777 198.656 75.0664 198.818 75.6094 198.943L76.7227 199.201C77.1172 199.291 77.4902 199.426 77.8418 199.605C78.1934 199.785 78.4785 200.037 78.6973 200.361C78.916 200.682 79.0254 201.105 79.0254 201.633C79.0254 202.16 78.9043 202.611 78.6621 202.986C78.4238 203.361 78.0801 203.648 77.6309 203.848C77.1855 204.043 76.6523 204.141 76.0312 204.141ZM83.5664 204V197.672H84.5508V204H83.5664ZM84.0586 196.611C83.832 196.611 83.6387 196.531 83.4785 196.371C83.3184 196.211 83.2383 196.018 83.2383 195.791C83.2383 195.561 83.3184 195.367 83.4785 195.211C83.6387 195.051 83.832 194.971 84.0586 194.971C84.2891 194.971 84.4824 195.051 84.6387 195.211C84.7988 195.367 84.8789 195.561 84.8789 195.791C84.8789 196.018 84.7988 196.211 84.6387 196.371C84.4824 196.531 84.2891 196.611 84.0586 196.611ZM86.4668 204V197.672H87.3926V199.102L87.3516 198.844C87.5195 198.48 87.7852 198.172 88.1484 197.918C88.5117 197.66 88.9531 197.531 89.4727 197.531C89.9219 197.531 90.3086 197.631 90.6328 197.83C90.957 198.029 91.207 198.314 91.3828 198.686C91.5586 199.053 91.6465 199.496 91.6465 200.016V204H90.6621V200.092C90.6621 199.572 90.5547 199.152 90.3398 198.832C90.1289 198.512 89.7793 198.352 89.291 198.352C88.7637 198.352 88.3242 198.553 87.9727 198.955C87.625 199.354 87.4512 199.932 87.4512 200.689V204H86.4668ZM98.6484 204.141C98.1914 204.141 97.7754 204.066 97.4004 203.918C97.0293 203.766 96.7207 203.537 96.4746 203.232C96.2285 202.924 96.0645 202.533 95.9824 202.061L97.0137 201.861C97.0566 202.357 97.2246 202.727 97.5176 202.969C97.8145 203.211 98.1855 203.332 98.6309 203.332C99.0723 203.332 99.4238 203.221 99.6855 202.998C99.9473 202.775 100.078 202.504 100.078 202.184C100.078 201.91 99.9844 201.693 99.7969 201.533C99.6133 201.373 99.3457 201.26 98.9941 201.193L98.2266 201.047C98.0195 201.008 97.8047 200.953 97.582 200.883C97.3594 200.812 97.1504 200.715 96.9551 200.59C96.7637 200.465 96.6074 200.301 96.4863 200.098C96.3691 199.895 96.3105 199.639 96.3105 199.33C96.3105 198.916 96.418 198.578 96.6328 198.316C96.8516 198.051 97.1387 197.854 97.4941 197.725C97.8535 197.596 98.2402 197.531 98.6543 197.531C99.1074 197.531 99.502 197.602 99.8379 197.742C100.174 197.883 100.447 198.084 100.658 198.346C100.869 198.607 101.01 198.924 101.08 199.295L99.9961 199.512C99.9688 199.273 99.9043 199.066 99.8027 198.891C99.7051 198.715 99.5605 198.58 99.3691 198.486C99.1816 198.389 98.9375 198.34 98.6367 198.34C98.2734 198.34 97.9609 198.416 97.6992 198.568C97.4375 198.721 97.3066 198.951 97.3066 199.26C97.3066 199.432 97.3496 199.578 97.4355 199.699C97.5254 199.82 97.6582 199.922 97.834 200.004C98.0137 200.082 98.2383 200.15 98.5078 200.209L99.2871 200.373C99.6152 200.439 99.918 200.539 100.195 200.672C100.473 200.801 100.695 200.98 100.863 201.211C101.031 201.441 101.115 201.746 101.115 202.125C101.115 202.543 101.01 202.904 100.799 203.209C100.592 203.51 100.303 203.74 99.9316 203.9C99.5645 204.061 99.1367 204.141 98.6484 204.141ZM105.299 204.141C104.697 204.141 104.176 204.006 103.734 203.736C103.297 203.467 102.959 203.086 102.721 202.594C102.482 202.098 102.363 201.514 102.363 200.842C102.363 200.166 102.482 199.58 102.721 199.084C102.959 198.588 103.295 198.205 103.729 197.936C104.162 197.666 104.672 197.531 105.258 197.531C105.594 197.531 105.93 197.586 106.266 197.695C106.605 197.801 106.914 197.986 107.191 198.252C107.473 198.514 107.697 198.875 107.865 199.336C108.037 199.793 108.123 200.371 108.123 201.07H102.996V200.273H107.268L106.986 200.643C106.967 200.088 106.877 199.643 106.717 199.307C106.557 198.971 106.348 198.729 106.09 198.58C105.836 198.428 105.553 198.352 105.24 198.352C104.869 198.352 104.549 198.449 104.279 198.645C104.01 198.836 103.803 199.117 103.658 199.488C103.514 199.859 103.441 200.312 103.441 200.848C103.441 201.637 103.602 202.246 103.922 202.676C104.246 203.105 104.705 203.32 105.299 203.32C105.725 203.32 106.082 203.213 106.371 202.998C106.664 202.783 106.879 202.473 107.016 202.066L107.982 202.395C107.83 202.762 107.627 203.076 107.373 203.338C107.119 203.596 106.816 203.795 106.465 203.936C106.117 204.072 105.729 204.141 105.299 204.141ZM111.234 204.141C110.812 204.141 110.445 204.061 110.133 203.9C109.824 203.736 109.586 203.514 109.418 203.232C109.25 202.951 109.166 202.633 109.166 202.277C109.166 201.898 109.277 201.549 109.5 201.229C109.723 200.908 110.066 200.652 110.531 200.461C111 200.266 111.6 200.168 112.33 200.168H113.385L113.279 200.273V199.928C113.279 199.42 113.178 199.031 112.975 198.762C112.771 198.488 112.432 198.352 111.955 198.352C111.506 198.352 111.16 198.469 110.918 198.703C110.676 198.934 110.547 199.244 110.531 199.635L109.424 199.383C109.459 199.043 109.588 198.734 109.811 198.457C110.037 198.176 110.338 197.951 110.713 197.783C111.092 197.615 111.529 197.531 112.025 197.531C112.537 197.531 112.953 197.629 113.273 197.824C113.598 198.016 113.836 198.293 113.988 198.656C114.141 199.02 114.217 199.457 114.217 199.969V202.857C114.217 202.986 114.234 203.072 114.27 203.115C114.309 203.158 114.389 203.18 114.51 203.18H114.867V204H114.24C113.975 204 113.752 203.918 113.572 203.754C113.393 203.586 113.303 203.375 113.303 203.121V202.676H113.449C113.387 202.84 113.297 203.008 113.18 203.18C113.062 203.348 112.914 203.506 112.734 203.654C112.555 203.799 112.34 203.916 112.09 204.006C111.844 204.096 111.559 204.141 111.234 204.141ZM111.457 203.32C111.781 203.32 112.082 203.24 112.359 203.08C112.637 202.92 112.859 202.67 113.027 202.33C113.199 201.986 113.285 201.541 113.285 200.994V200.941H112.295C111.775 200.941 111.365 201.01 111.064 201.146C110.768 201.283 110.557 201.453 110.432 201.656C110.307 201.855 110.244 202.055 110.244 202.254C110.244 202.453 110.289 202.633 110.379 202.793C110.469 202.953 110.604 203.082 110.783 203.18C110.963 203.273 111.188 203.32 111.457 203.32ZM116.232 204V197.672H117.158V199.014L117.123 198.861C117.311 198.424 117.592 198.094 117.967 197.871C118.346 197.645 118.729 197.531 119.115 197.531C119.229 197.531 119.338 197.541 119.443 197.561C119.553 197.58 119.654 197.613 119.748 197.66L119.619 198.586C119.404 198.52 119.191 198.486 118.98 198.486C118.848 198.486 118.682 198.514 118.482 198.568C118.287 198.619 118.092 198.725 117.896 198.885C117.705 199.041 117.543 199.275 117.41 199.588C117.281 199.9 117.217 200.316 117.217 200.836V204H116.232ZM123.223 204.141C122.629 204.141 122.115 204.006 121.682 203.736C121.248 203.467 120.914 203.086 120.68 202.594C120.445 202.098 120.328 201.512 120.328 200.836C120.328 200.16 120.445 199.576 120.68 199.084C120.914 198.588 121.248 198.205 121.682 197.936C122.115 197.666 122.629 197.531 123.223 197.531C123.676 197.531 124.08 197.615 124.436 197.783C124.795 197.947 125.098 198.186 125.344 198.498C125.594 198.807 125.777 199.18 125.895 199.617L124.893 199.881C124.783 199.389 124.586 199.012 124.301 198.75C124.02 198.484 123.66 198.352 123.223 198.352C122.641 198.352 122.191 198.568 121.875 199.002C121.562 199.432 121.406 200.043 121.406 200.836C121.406 201.633 121.562 202.246 121.875 202.676C122.191 203.105 122.641 203.32 123.223 203.32C123.656 203.32 124.014 203.193 124.295 202.939C124.576 202.682 124.773 202.311 124.887 201.826L125.883 202.107C125.789 202.428 125.66 202.713 125.496 202.963C125.332 203.213 125.137 203.426 124.91 203.602C124.688 203.777 124.434 203.91 124.148 204C123.867 204.094 123.559 204.141 123.223 204.141ZM127.324 204V195.211H128.309V199.16L128.209 198.902C128.373 198.508 128.637 198.182 129 197.924C129.367 197.662 129.814 197.531 130.342 197.531C130.787 197.531 131.17 197.631 131.49 197.83C131.814 198.029 132.064 198.314 132.24 198.686C132.416 199.053 132.504 199.496 132.504 200.016V204H131.52V200.092C131.52 199.557 131.418 199.133 131.215 198.82C131.016 198.508 130.66 198.352 130.148 198.352C129.602 198.352 129.158 198.547 128.818 198.938C128.479 199.324 128.309 199.908 128.309 200.689V204H127.324ZM140.197 204.141C139.783 204.141 139.373 204.037 138.967 203.83C138.561 203.623 138.254 203.273 138.047 202.781L138.1 202.734V204H137.174V195.211H138.158V198.99L138.07 198.896C138.242 198.436 138.527 198.094 138.926 197.871C139.324 197.645 139.748 197.531 140.197 197.531C140.713 197.531 141.166 197.666 141.557 197.936C141.947 198.205 142.252 198.588 142.471 199.084C142.689 199.58 142.799 200.166 142.799 200.842C142.799 201.518 142.688 202.104 142.465 202.6C142.246 203.092 141.941 203.473 141.551 203.742C141.16 204.008 140.709 204.141 140.197 204.141ZM139.928 203.32C140.451 203.32 140.881 203.105 141.217 202.676C141.553 202.242 141.721 201.623 141.721 200.818C141.721 200.037 141.559 199.432 141.234 199.002C140.91 198.568 140.479 198.352 139.939 198.352C139.611 198.352 139.309 198.438 139.031 198.609C138.758 198.781 138.539 199.049 138.375 199.412C138.211 199.775 138.129 200.244 138.129 200.818C138.129 201.666 138.305 202.295 138.656 202.705C139.008 203.115 139.432 203.32 139.928 203.32ZM146.039 204.141C145.617 204.141 145.25 204.061 144.938 203.9C144.629 203.736 144.391 203.514 144.223 203.232C144.055 202.951 143.971 202.633 143.971 202.277C143.971 201.898 144.082 201.549 144.305 201.229C144.527 200.908 144.871 200.652 145.336 200.461C145.805 200.266 146.404 200.168 147.135 200.168H148.189L148.084 200.273V199.928C148.084 199.42 147.982 199.031 147.779 198.762C147.576 198.488 147.236 198.352 146.76 198.352C146.311 198.352 145.965 198.469 145.723 198.703C145.48 198.934 145.352 199.244 145.336 199.635L144.229 199.383C144.264 199.043 144.393 198.734 144.615 198.457C144.842 198.176 145.143 197.951 145.518 197.783C145.896 197.615 146.334 197.531 146.83 197.531C147.342 197.531 147.758 197.629 148.078 197.824C148.402 198.016 148.641 198.293 148.793 198.656C148.945 199.02 149.021 199.457 149.021 199.969V202.857C149.021 202.986 149.039 203.072 149.074 203.115C149.113 203.158 149.193 203.18 149.314 203.18H149.672V204H149.045C148.779 204 148.557 203.918 148.377 203.754C148.197 203.586 148.107 203.375 148.107 203.121V202.676H148.254C148.191 202.84 148.102 203.008 147.984 203.18C147.867 203.348 147.719 203.506 147.539 203.654C147.359 203.799 147.145 203.916 146.895 204.006C146.648 204.096 146.363 204.141 146.039 204.141ZM146.262 203.32C146.586 203.32 146.887 203.24 147.164 203.08C147.441 202.92 147.664 202.67 147.832 202.33C148.004 201.986 148.09 201.541 148.09 200.994V200.941H147.1C146.58 200.941 146.17 201.01 145.869 201.146C145.572 201.283 145.361 201.453 145.236 201.656C145.111 201.855 145.049 202.055 145.049 202.254C145.049 202.453 145.094 202.633 145.184 202.793C145.273 202.953 145.408 203.082 145.588 203.18C145.768 203.273 145.992 203.32 146.262 203.32ZM151.037 204V197.672H151.963V199.014L151.928 198.861C152.115 198.424 152.396 198.094 152.771 197.871C153.15 197.645 153.533 197.531 153.92 197.531C154.033 197.531 154.143 197.541 154.248 197.561C154.357 197.58 154.459 197.613 154.553 197.66L154.424 198.586C154.209 198.52 153.996 198.486 153.785 198.486C153.652 198.486 153.486 198.514 153.287 198.568C153.092 198.619 152.896 198.725 152.701 198.885C152.51 199.041 152.348 199.275 152.215 199.588C152.086 199.9 152.021 200.316 152.021 200.836V204H151.037Z" fill="white"/>
<path d="M61.9697 173L63.7471 163.156H65.2168L63.4395 173H61.9697ZM57.3896 170.334V169.001H65.75V170.334H57.3896ZM58.4971 173L60.2744 163.156H61.751L59.9736 173H58.4971ZM57.9365 167.155V165.822H66.3379V167.155H57.9365ZM67.0488 173V171.906L70.5352 169.035C70.9544 168.684 71.2939 168.361 71.5537 168.064C71.818 167.768 72.0094 167.47 72.1279 167.169C72.251 166.864 72.3125 166.529 72.3125 166.164C72.3125 165.749 72.2419 165.41 72.1006 165.146C71.9639 164.881 71.7702 164.688 71.5195 164.564C71.2689 164.437 70.9704 164.373 70.624 164.373C70.1774 164.373 69.8242 164.466 69.5645 164.653C69.3092 164.84 69.1224 165.082 69.0039 165.378C68.8854 165.67 68.8148 165.984 68.792 166.321L66.9805 165.809C67.0306 165.335 67.2129 164.883 67.5273 164.455C67.8418 164.022 68.2633 163.669 68.792 163.396C69.3252 163.122 69.9359 162.985 70.624 162.985C71.0296 162.985 71.4375 163.042 71.8477 163.156C72.2624 163.266 72.6429 163.441 72.9893 163.683C73.3402 163.924 73.6227 164.239 73.8369 164.626C74.0511 165.013 74.1582 165.48 74.1582 166.027C74.1582 166.802 73.9281 167.504 73.4678 168.133C73.0075 168.762 72.3581 169.377 71.5195 169.979L68.9902 171.865L68.375 171.564H74.2266V173H67.0488Z" fill="white"/>
<path d="M53 0.5H376C382.351 0.5 387.5 5.64873 387.5 12V93C387.5 99.3513 382.351 104.5 376 104.5H53C46.6487 104.5 41.5 99.3513 41.5 93V12C41.5 5.64873 46.6487 0.5 53 0.5Z" fill="#150505" stroke="url(#paint2_linear_3_35)"/>
<path d="M60.832 63.1406C60.1836 63.1406 59.6172 63.0332 59.1328 62.8184C58.6523 62.5996 58.2637 62.2852 57.9668 61.875C57.6699 61.4609 57.4727 60.9629 57.375 60.3809L58.6289 60.123C58.6562 60.8145 58.8574 61.3457 59.2324 61.7168C59.6074 62.0879 60.1309 62.2734 60.8027 62.2734C61.209 62.2734 61.5527 62.207 61.834 62.0742C62.1191 61.9414 62.3359 61.7539 62.4844 61.5117C62.6367 61.2695 62.7129 60.9844 62.7129 60.6562C62.7129 60.2188 62.5859 59.8945 62.332 59.6836C62.082 59.4688 61.7383 59.3125 61.3008 59.2148L60.1992 58.9688C59.9961 58.9219 59.7598 58.8574 59.4902 58.7754C59.2246 58.6934 58.9668 58.5723 58.7168 58.4121C58.4668 58.252 58.2578 58.0352 58.0898 57.7617C57.9258 57.4883 57.8438 57.1387 57.8438 56.7129C57.8438 56.1699 57.9824 55.7305 58.2598 55.3945C58.541 55.0586 58.9043 54.8125 59.3496 54.6562C59.7988 54.5 60.2754 54.4219 60.7793 54.4219C61.3613 54.4219 61.8594 54.5156 62.2734 54.7031C62.6914 54.8867 63.0273 55.1484 63.2812 55.4883C63.5391 55.8281 63.7129 56.2344 63.8027 56.707L62.5664 56.9648C62.5352 56.6055 62.4473 56.3027 62.3027 56.0566C62.1582 55.8066 61.9551 55.6172 61.6934 55.4883C61.4316 55.3555 61.1055 55.2891 60.7148 55.2891C60.3984 55.2891 60.1016 55.3359 59.8242 55.4297C59.5508 55.5234 59.3281 55.6699 59.1562 55.8691C58.9844 56.0684 58.8984 56.3281 58.8984 56.6484C58.8984 56.9844 59.0137 57.2539 59.2441 57.457C59.4785 57.6562 59.8672 57.8184 60.4102 57.9434L61.5234 58.2012C61.918 58.291 62.291 58.4258 62.6426 58.6055C62.9941 58.7852 63.2793 59.0371 63.498 59.3613C63.7168 59.6816 63.8262 60.1055 63.8262 60.6328C63.8262 61.1602 63.7051 61.6113 63.4629 61.9863C63.2246 62.3613 62.8809 62.6484 62.4316 62.8477C61.9863 63.043 61.4531 63.1406 60.832 63.1406ZM69.5977 64.7578C69.3477 64.7578 69.1289 64.6738 68.9414 64.5059C68.7539 64.3418 68.6602 64.1328 68.6602 63.8789V62.6484H69.6445V63.5918C69.6445 63.7207 69.6621 63.8066 69.6973 63.8496C69.7363 63.8926 69.8164 63.9141 69.9375 63.9141H70.9043V64.7578H69.5977ZM69.1523 63.1406C68.3125 63.1406 67.5859 62.9648 66.9727 62.6133C66.3633 62.2578 65.8926 61.7539 65.5605 61.1016C65.2324 60.4492 65.0684 59.6758 65.0684 58.7812C65.0684 57.8828 65.2324 57.1094 65.5605 56.4609C65.8926 55.8086 66.3633 55.3066 66.9727 54.9551C67.5859 54.5996 68.3125 54.4219 69.1523 54.4219C69.9922 54.4219 70.7168 54.5996 71.3262 54.9551C71.9395 55.3066 72.4102 55.8086 72.7383 56.4609C73.0703 57.1094 73.2363 57.8828 73.2363 58.7812C73.2363 59.6758 73.0703 60.4492 72.7383 61.1016C72.4102 61.7539 71.9395 62.2578 71.3262 62.6133C70.7168 62.9648 69.9922 63.1406 69.1523 63.1406ZM69.1523 62.2734C69.7578 62.2734 70.2793 62.1328 70.7168 61.8516C71.1582 61.5664 71.498 61.1621 71.7363 60.6387C71.9746 60.1152 72.0938 59.4961 72.0938 58.7812C72.0938 58.0625 71.9746 57.4434 71.7363 56.9238C71.498 56.4004 71.1582 55.998 70.7168 55.7168C70.2793 55.4316 69.7578 55.2891 69.1523 55.2891C68.5508 55.2891 68.0293 55.4316 67.5879 55.7168C67.1465 55.998 66.8066 56.4004 66.5684 56.9238C66.3301 57.4434 66.2109 58.0625 66.2109 58.7812C66.2109 59.4961 66.3301 60.1152 66.5684 60.6387C66.8066 61.1621 67.1465 61.5664 67.5879 61.8516C68.0293 62.1328 68.5508 62.2734 69.1523 62.2734ZM74.7305 63V54.5625H75.7852V62.1328H80.0039V63H74.7305ZM83.8418 63V62.1797H84.9609V55.3828H83.8418V54.5625H87.1348V55.3828H86.0156V62.1797H87.1348V63H83.8418ZM88.5645 63V56.6719H89.4902V58.1016L89.4492 57.8438C89.6172 57.4805 89.8828 57.1719 90.2461 56.918C90.6094 56.6602 91.0508 56.5312 91.5703 56.5312C92.0195 56.5312 92.4062 56.6309 92.7305 56.8301C93.0547 57.0293 93.3047 57.3145 93.4805 57.6855C93.6562 58.0527 93.7441 58.4961 93.7441 59.0156V63H92.7598V59.0918C92.7598 58.5723 92.6523 58.1523 92.4375 57.832C92.2266 57.5117 91.877 57.3516 91.3887 57.3516C90.8613 57.3516 90.4219 57.5527 90.0703 57.9551C89.7227 58.3535 89.5488 58.9316 89.5488 59.6895V63H88.5645ZM94.6172 65.2852V64.4648H95.3555C95.4805 64.4648 95.5605 64.4434 95.5957 64.4004C95.6309 64.3574 95.6484 64.2715 95.6484 64.1426V56.6719H96.6328V64.4062C96.6328 64.6602 96.5391 64.8691 96.3516 65.0332C96.1641 65.2012 95.9453 65.2852 95.6953 65.2852H94.6172ZM96.1406 55.6113C95.9141 55.6113 95.7207 55.5312 95.5605 55.3711C95.4004 55.2109 95.3203 55.0176 95.3203 54.791C95.3203 54.5605 95.4004 54.3672 95.5605 54.2109C95.7207 54.0508 95.9141 53.9707 96.1406 53.9707C96.3711 53.9707 96.5645 54.0508 96.7207 54.2109C96.8809 54.3672 96.9609 54.5605 96.9609 54.791C96.9609 55.0176 96.8809 55.2109 96.7207 55.3711C96.5645 55.5312 96.3711 55.6113 96.1406 55.6113ZM101.08 63.1406C100.479 63.1406 99.957 63.0059 99.5156 62.7363C99.0781 62.4668 98.7402 62.0859 98.502 61.5938C98.2637 61.0977 98.1445 60.5137 98.1445 59.8418C98.1445 59.166 98.2637 58.5801 98.502 58.084C98.7402 57.5879 99.0762 57.2051 99.5098 56.9355C99.9434 56.666 100.453 56.5312 101.039 56.5312C101.375 56.5312 101.711 56.5859 102.047 56.6953C102.387 56.8008 102.695 56.9863 102.973 57.252C103.254 57.5137 103.479 57.875 103.646 58.3359C103.818 58.793 103.904 59.3711 103.904 60.0703H98.7773V59.2734H103.049L102.768 59.6426C102.748 59.0879 102.658 58.6426 102.498 58.3066C102.338 57.9707 102.129 57.7285 101.871 57.5801C101.617 57.4277 101.334 57.3516 101.021 57.3516C100.65 57.3516 100.33 57.4492 100.061 57.6445C99.791 57.8359 99.584 58.1172 99.4395 58.4883C99.2949 58.8594 99.2227 59.3125 99.2227 59.8477C99.2227 60.6367 99.3828 61.2461 99.7031 61.6758C100.027 62.1055 100.486 62.3203 101.08 62.3203C101.506 62.3203 101.863 62.2129 102.152 61.998C102.445 61.7832 102.66 61.4727 102.797 61.0664L103.764 61.3945C103.611 61.7617 103.408 62.0762 103.154 62.3379C102.9 62.5957 102.598 62.7949 102.246 62.9355C101.898 63.0723 101.51 63.1406 101.08 63.1406ZM108.094 63.1406C107.5 63.1406 106.986 63.0059 106.553 62.7363C106.119 62.4668 105.785 62.0859 105.551 61.5938C105.316 61.0977 105.199 60.5117 105.199 59.8359C105.199 59.1602 105.316 58.5762 105.551 58.084C105.785 57.5879 106.119 57.2051 106.553 56.9355C106.986 56.666 107.5 56.5312 108.094 56.5312C108.547 56.5312 108.951 56.6152 109.307 56.7832C109.666 56.9473 109.969 57.1855 110.215 57.498C110.465 57.8066 110.648 58.1797 110.766 58.6172L109.764 58.8809C109.654 58.3887 109.457 58.0117 109.172 57.75C108.891 57.4844 108.531 57.3516 108.094 57.3516C107.512 57.3516 107.062 57.5684 106.746 58.002C106.434 58.4316 106.277 59.043 106.277 59.8359C106.277 60.6328 106.434 61.2461 106.746 61.6758C107.062 62.1055 107.512 62.3203 108.094 62.3203C108.527 62.3203 108.885 62.1934 109.166 61.9395C109.447 61.6816 109.645 61.3105 109.758 60.8262L110.754 61.1074C110.66 61.4277 110.531 61.7129 110.367 61.9629C110.203 62.2129 110.008 62.4258 109.781 62.6016C109.559 62.7773 109.305 62.9102 109.02 63C108.738 63.0938 108.43 63.1406 108.094 63.1406ZM113.426 63C113.176 63 112.957 62.918 112.77 62.7539C112.582 62.5859 112.488 62.375 112.488 62.1211V57.4922H111.469V56.6719H112.488V55.3477L113.473 55.1367V56.6719H114.727V57.4922H113.473V61.8574C113.473 61.9863 113.49 62.0723 113.525 62.1152C113.564 62.1582 113.645 62.1797 113.766 62.1797H114.732V63H113.426ZM116.156 63V56.6719H117.141V63H116.156ZM116.648 55.6113C116.422 55.6113 116.229 55.5312 116.068 55.3711C115.908 55.2109 115.828 55.0176 115.828 54.791C115.828 54.5605 115.908 54.3672 116.068 54.2109C116.229 54.0508 116.422 53.9707 116.648 53.9707C116.879 53.9707 117.072 54.0508 117.229 54.2109C117.389 54.3672 117.469 54.5605 117.469 54.791C117.469 55.0176 117.389 55.2109 117.229 55.3711C117.072 55.5312 116.879 55.6113 116.648 55.6113ZM121.623 63.1406C121.029 63.1406 120.506 63.002 120.053 62.7246C119.6 62.4434 119.246 62.0547 118.992 61.5586C118.738 61.0625 118.611 60.4883 118.611 59.8359C118.611 59.1836 118.738 58.6094 118.992 58.1133C119.246 57.6172 119.6 57.2305 120.053 56.9531C120.506 56.6719 121.029 56.5312 121.623 56.5312C122.217 56.5312 122.74 56.6719 123.193 56.9531C123.646 57.2305 124 57.6172 124.254 58.1133C124.508 58.6094 124.635 59.1836 124.635 59.8359C124.635 60.4883 124.508 61.0625 124.254 61.5586C124 62.0547 123.646 62.4434 123.193 62.7246C122.74 63.002 122.217 63.1406 121.623 63.1406ZM121.623 62.3203C122.221 62.3203 122.691 62.0977 123.035 61.6523C123.383 61.207 123.557 60.6016 123.557 59.8359C123.557 59.0664 123.383 58.4609 123.035 58.0195C122.691 57.5742 122.221 57.3516 121.623 57.3516C121.025 57.3516 120.553 57.5742 120.205 58.0195C119.861 58.4609 119.689 59.0664 119.689 59.8359C119.689 60.6016 119.861 61.207 120.205 61.6523C120.553 62.0977 121.025 62.3203 121.623 62.3203ZM126.1 63V56.6719H127.025V58.1016L126.984 57.8438C127.152 57.4805 127.418 57.1719 127.781 56.918C128.145 56.6602 128.586 56.5312 129.105 56.5312C129.555 56.5312 129.941 56.6309 130.266 56.8301C130.59 57.0293 130.84 57.3145 131.016 57.6855C131.191 58.0527 131.279 58.4961 131.279 59.0156V63H130.295V59.0918C130.295 58.5723 130.188 58.1523 129.973 57.832C129.762 57.5117 129.412 57.3516 128.924 57.3516C128.396 57.3516 127.957 57.5527 127.605 57.9551C127.258 58.3535 127.084 58.9316 127.084 59.6895V63H126.1ZM138.164 63.1406C137.723 63.1406 137.34 63.041 137.016 62.8418C136.691 62.6426 136.441 62.3574 136.266 61.9863C136.09 61.6152 136.002 61.1719 136.002 60.6562V56.6719H136.986V60.5801C136.986 61.0957 137.084 61.5156 137.279 61.8398C137.475 62.1602 137.826 62.3203 138.334 62.3203C138.713 62.3203 139.041 62.2227 139.318 62.0273C139.596 61.832 139.811 61.5391 139.963 61.1484C140.119 60.7578 140.197 60.2695 140.197 59.6836V56.6719H141.182V63H140.256V61.5117L140.297 61.7695C140.133 62.1602 139.867 62.4863 139.5 62.748C139.137 63.0098 138.691 63.1406 138.164 63.1406ZM145.195 63.1406C144.738 63.1406 144.322 63.0664 143.947 62.918C143.576 62.7656 143.268 62.5371 143.021 62.2324C142.775 61.9238 142.611 61.5332 142.529 61.0605L143.561 60.8613C143.604 61.3574 143.771 61.7266 144.064 61.9688C144.361 62.2109 144.732 62.332 145.178 62.332C145.619 62.332 145.971 62.2207 146.232 61.998C146.494 61.7754 146.625 61.5039 146.625 61.1836C146.625 60.9102 146.531 60.6934 146.344 60.5332C146.16 60.373 145.893 60.2598 145.541 60.1934L144.773 60.0469C144.566 60.0078 144.352 59.9531 144.129 59.8828C143.906 59.8125 143.697 59.7148 143.502 59.5898C143.311 59.4648 143.154 59.3008 143.033 59.0977C142.916 58.8945 142.857 58.6387 142.857 58.3301C142.857 57.916 142.965 57.5781 143.18 57.3164C143.398 57.0508 143.686 56.8535 144.041 56.7246C144.4 56.5957 144.787 56.5312 145.201 56.5312C145.654 56.5312 146.049 56.6016 146.385 56.7422C146.721 56.8828 146.994 57.084 147.205 57.3457C147.416 57.6074 147.557 57.9238 147.627 58.2949L146.543 58.5117C146.516 58.2734 146.451 58.0664 146.35 57.8906C146.252 57.7148 146.107 57.5801 145.916 57.4863C145.729 57.3887 145.484 57.3398 145.184 57.3398C144.82 57.3398 144.508 57.416 144.246 57.5684C143.984 57.7207 143.854 57.9512 143.854 58.2598C143.854 58.4316 143.896 58.5781 143.982 58.6992C144.072 58.8203 144.205 58.9219 144.381 59.0039C144.561 59.082 144.785 59.1504 145.055 59.209L145.834 59.373C146.162 59.4395 146.465 59.5391 146.742 59.6719C147.02 59.8008 147.242 59.9805 147.41 60.2109C147.578 60.4414 147.662 60.7461 147.662 61.125C147.662 61.543 147.557 61.9043 147.346 62.209C147.139 62.5098 146.85 62.7402 146.479 62.9004C146.111 63.0605 145.684 63.1406 145.195 63.1406ZM149.168 63V56.6719H150.152V63H149.168ZM149.66 55.6113C149.434 55.6113 149.24 55.5312 149.08 55.3711C148.92 55.2109 148.84 55.0176 148.84 54.791C148.84 54.5605 148.92 54.3672 149.08 54.2109C149.24 54.0508 149.434 53.9707 149.66 53.9707C149.891 53.9707 150.084 54.0508 150.24 54.2109C150.4 54.3672 150.48 54.5605 150.48 54.791C150.48 55.0176 150.4 55.2109 150.24 55.3711C150.084 55.5312 149.891 55.6113 149.66 55.6113ZM152.068 63V56.6719H152.994V58.1016L152.953 57.8438C153.121 57.4805 153.387 57.1719 153.75 56.918C154.113 56.6602 154.555 56.5312 155.074 56.5312C155.523 56.5312 155.91 56.6309 156.234 56.8301C156.559 57.0293 156.809 57.3145 156.984 57.6855C157.16 58.0527 157.248 58.4961 157.248 59.0156V63H156.264V59.0918C156.264 58.5723 156.156 58.1523 155.941 57.832C155.73 57.5117 155.381 57.3516 154.893 57.3516C154.365 57.3516 153.926 57.5527 153.574 57.9551C153.227 58.3535 153.053 58.9316 153.053 59.6895V63H152.068ZM161.385 65.4258C160.443 65.4258 159.75 65.293 159.305 65.0273C158.859 64.7656 158.637 64.3594 158.637 63.8086C158.637 63.4961 158.717 63.2168 158.877 62.9707C159.037 62.7246 159.314 62.5352 159.709 62.4023C159.561 62.3125 159.439 62.1934 159.346 62.0449C159.252 61.8965 159.205 61.7305 159.205 61.5469C159.205 61.3281 159.273 61.1328 159.41 60.9609C159.547 60.7852 159.742 60.6602 159.996 60.5859C159.684 60.4023 159.439 60.1543 159.264 59.8418C159.092 59.5254 159.006 59.1582 159.006 58.7402C159.006 58.2871 159.105 57.8965 159.305 57.5684C159.508 57.2363 159.795 56.9805 160.166 56.8008C160.541 56.6211 160.986 56.5312 161.502 56.5312C162.018 56.5312 162.463 56.6211 162.838 56.8008C163.217 56.9805 163.508 57.2363 163.711 57.5684C163.918 57.9004 164.021 58.2949 164.021 58.752C164.021 59.2012 163.918 59.5898 163.711 59.918C163.508 60.2422 163.217 60.4941 162.838 60.6738C162.459 60.8496 162.008 60.9375 161.484 60.9375H160.939C160.447 60.9375 160.201 61.084 160.201 61.377C160.201 61.6543 160.439 61.793 160.916 61.793H162.182C162.682 61.793 163.084 61.8516 163.389 61.9688C163.697 62.082 163.932 62.2305 164.092 62.4141C164.256 62.5938 164.367 62.7891 164.426 63C164.484 63.2109 164.514 63.4121 164.514 63.6035C164.514 64.2246 164.289 64.6836 163.84 64.9805C163.391 65.2773 162.693 65.4258 161.748 65.4258H161.385ZM161.385 64.6406H161.748C162.912 64.6406 163.494 64.293 163.494 63.5977C163.494 63.3086 163.389 63.0723 163.178 62.8887C162.971 62.7051 162.615 62.6133 162.111 62.6133H161.021C160.631 62.6133 160.305 62.6934 160.043 62.8535C159.781 63.0098 159.65 63.2676 159.65 63.627C159.65 63.9707 159.791 64.2246 160.072 64.3887C160.357 64.5566 160.795 64.6406 161.385 64.6406ZM161.502 60.2461C161.998 60.2461 162.379 60.1191 162.645 59.8652C162.91 59.6074 163.043 59.2363 163.043 58.752C163.043 58.2715 162.91 57.8984 162.645 57.6328C162.379 57.3672 161.998 57.2344 161.502 57.2344C161.01 57.2344 160.633 57.3672 160.371 57.6328C160.109 57.8945 159.979 58.2676 159.979 58.752C159.979 59.2363 160.109 59.6074 160.371 59.8652C160.633 60.1191 161.01 60.2461 161.502 60.2461ZM162.545 57.1934V56.5664C162.545 56.3125 162.639 56.1035 162.826 55.9395C163.014 55.7715 163.232 55.6875 163.482 55.6875H164.244V56.5078H163.617C163.496 56.5078 163.416 56.5293 163.377 56.5723C163.342 56.6152 163.324 56.7012 163.324 56.8301V57.1934H162.545ZM171.035 63.1406C170.578 63.1406 170.162 63.0664 169.787 62.918C169.416 62.7656 169.107 62.5371 168.861 62.2324C168.615 61.9238 168.451 61.5332 168.369 61.0605L169.4 60.8613C169.443 61.3574 169.611 61.7266 169.904 61.9688C170.201 62.2109 170.572 62.332 171.018 62.332C171.459 62.332 171.811 62.2207 172.072 61.998C172.334 61.7754 172.465 61.5039 172.465 61.1836C172.465 60.9102 172.371 60.6934 172.184 60.5332C172 60.373 171.732 60.2598 171.381 60.1934L170.613 60.0469C170.406 60.0078 170.191 59.9531 169.969 59.8828C169.746 59.8125 169.537 59.7148 169.342 59.5898C169.15 59.4648 168.994 59.3008 168.873 59.0977C168.756 58.8945 168.697 58.6387 168.697 58.3301C168.697 57.916 168.805 57.5781 169.02 57.3164C169.238 57.0508 169.525 56.8535 169.881 56.7246C170.24 56.5957 170.627 56.5312 171.041 56.5312C171.494 56.5312 171.889 56.6016 172.225 56.7422C172.561 56.8828 172.834 57.084 173.045 57.3457C173.256 57.6074 173.396 57.9238 173.467 58.2949L172.383 58.5117C172.355 58.2734 172.291 58.0664 172.189 57.8906C172.092 57.7148 171.947 57.5801 171.756 57.4863C171.568 57.3887 171.324 57.3398 171.023 57.3398C170.66 57.3398 170.348 57.416 170.086 57.5684C169.824 57.7207 169.693 57.9512 169.693 58.2598C169.693 58.4316 169.736 58.5781 169.822 58.6992C169.912 58.8203 170.045 58.9219 170.221 59.0039C170.4 59.082 170.625 59.1504 170.895 59.209L171.674 59.373C172.002 59.4395 172.305 59.5391 172.582 59.6719C172.859 59.8008 173.082 59.9805 173.25 60.2109C173.418 60.4414 173.502 60.7461 173.502 61.125C173.502 61.543 173.396 61.9043 173.186 62.209C172.979 62.5098 172.689 62.7402 172.318 62.9004C171.951 63.0605 171.523 63.1406 171.035 63.1406ZM177.686 63.1406C177.084 63.1406 176.562 63.0059 176.121 62.7363C175.684 62.4668 175.346 62.0859 175.107 61.5938C174.869 61.0977 174.75 60.5137 174.75 59.8418C174.75 59.166 174.869 58.5801 175.107 58.084C175.346 57.5879 175.682 57.2051 176.115 56.9355C176.549 56.666 177.059 56.5312 177.645 56.5312C177.98 56.5312 178.316 56.5859 178.652 56.6953C178.992 56.8008 179.301 56.9863 179.578 57.252C179.859 57.5137 180.084 57.875 180.252 58.3359C180.424 58.793 180.51 59.3711 180.51 60.0703H175.383V59.2734H179.654L179.373 59.6426C179.354 59.0879 179.264 58.6426 179.104 58.3066C178.943 57.9707 178.734 57.7285 178.477 57.5801C178.223 57.4277 177.939 57.3516 177.627 57.3516C177.256 57.3516 176.936 57.4492 176.666 57.6445C176.396 57.8359 176.189 58.1172 176.045 58.4883C175.9 58.8594 175.828 59.3125 175.828 59.8477C175.828 60.6367 175.988 61.2461 176.309 61.6758C176.633 62.1055 177.092 62.3203 177.686 62.3203C178.111 62.3203 178.469 62.2129 178.758 61.998C179.051 61.7832 179.266 61.4727 179.402 61.0664L180.369 61.3945C180.217 61.7617 180.014 62.0762 179.76 62.3379C179.506 62.5957 179.203 62.7949 178.852 62.9355C178.504 63.0723 178.115 63.1406 177.686 63.1406ZM183.621 63.1406C183.199 63.1406 182.832 63.0605 182.52 62.9004C182.211 62.7363 181.973 62.5137 181.805 62.2324C181.637 61.9512 181.553 61.6328 181.553 61.2773C181.553 60.8984 181.664 60.5488 181.887 60.2285C182.109 59.9082 182.453 59.6523 182.918 59.4609C183.387 59.2656 183.986 59.168 184.717 59.168H185.771L185.666 59.2734V58.9277C185.666 58.4199 185.564 58.0312 185.361 57.7617C185.158 57.4883 184.818 57.3516 184.342 57.3516C183.893 57.3516 183.547 57.4688 183.305 57.7031C183.062 57.9336 182.934 58.2441 182.918 58.6348L181.811 58.3828C181.846 58.043 181.975 57.7344 182.197 57.457C182.424 57.1758 182.725 56.9512 183.1 56.7832C183.479 56.6152 183.916 56.5312 184.412 56.5312C184.924 56.5312 185.34 56.6289 185.66 56.8242C185.984 57.0156 186.223 57.293 186.375 57.6562C186.527 58.0195 186.604 58.457 186.604 58.9688V61.8574C186.604 61.9863 186.621 62.0723 186.656 62.1152C186.695 62.1582 186.775 62.1797 186.896 62.1797H187.254V63H186.627C186.361 63 186.139 62.918 185.959 62.7539C185.779 62.5859 185.689 62.375 185.689 62.1211V61.6758H185.836C185.773 61.8398 185.684 62.0078 185.566 62.1797C185.449 62.3477 185.301 62.5059 185.121 62.6543C184.941 62.7988 184.727 62.916 184.477 63.0059C184.23 63.0957 183.945 63.1406 183.621 63.1406ZM183.844 62.3203C184.168 62.3203 184.469 62.2402 184.746 62.0801C185.023 61.9199 185.246 61.6699 185.414 61.3301C185.586 60.9863 185.672 60.541 185.672 59.9941V59.9414H184.682C184.162 59.9414 183.752 60.0098 183.451 60.1465C183.154 60.2832 182.943 60.4531 182.818 60.6562C182.693 60.8555 182.631 61.0547 182.631 61.2539C182.631 61.4531 182.676 61.6328 182.766 61.793C182.855 61.9531 182.99 62.082 183.17 62.1797C183.35 62.2734 183.574 62.3203 183.844 62.3203ZM188.619 63V56.6719H189.545V58.0137L189.51 57.8613C189.697 57.4238 189.979 57.0938 190.354 56.8711C190.732 56.6445 191.115 56.5312 191.502 56.5312C191.615 56.5312 191.725 56.541 191.83 56.5605C191.939 56.5801 192.041 56.6133 192.135 56.6602L192.006 57.5859C191.791 57.5195 191.578 57.4863 191.367 57.4863C191.234 57.4863 191.068 57.5137 190.869 57.5684C190.674 57.6191 190.479 57.7246 190.283 57.8848C190.092 58.041 189.93 58.2754 189.797 58.5879C189.668 58.9004 189.604 59.3164 189.604 59.8359V63H188.619ZM195.609 63.1406C195.016 63.1406 194.502 63.0059 194.068 62.7363C193.635 62.4668 193.301 62.0859 193.066 61.5938C192.832 61.0977 192.715 60.5117 192.715 59.8359C192.715 59.1602 192.832 58.5762 193.066 58.084C193.301 57.5879 193.635 57.2051 194.068 56.9355C194.502 56.666 195.016 56.5312 195.609 56.5312C196.062 56.5312 196.467 56.6152 196.822 56.7832C197.182 56.9473 197.484 57.1855 197.73 57.498C197.98 57.8066 198.164 58.1797 198.281 58.6172L197.279 58.8809C197.17 58.3887 196.973 58.0117 196.688 57.75C196.406 57.4844 196.047 57.3516 195.609 57.3516C195.027 57.3516 194.578 57.5684 194.262 58.002C193.949 58.4316 193.793 59.043 193.793 59.8359C193.793 60.6328 193.949 61.2461 194.262 61.6758C194.578 62.1055 195.027 62.3203 195.609 62.3203C196.043 62.3203 196.4 62.1934 196.682 61.9395C196.963 61.6816 197.16 61.3105 197.273 60.8262L198.27 61.1074C198.176 61.4277 198.047 61.7129 197.883 61.9629C197.719 62.2129 197.523 62.4258 197.297 62.6016C197.074 62.7773 196.82 62.9102 196.535 63C196.254 63.0938 195.945 63.1406 195.609 63.1406ZM199.711 63V54.2109H200.695V58.1602L200.596 57.9023C200.76 57.5078 201.023 57.1816 201.387 56.9238C201.754 56.6621 202.201 56.5312 202.729 56.5312C203.174 56.5312 203.557 56.6309 203.877 56.8301C204.201 57.0293 204.451 57.3145 204.627 57.6855C204.803 58.0527 204.891 58.4961 204.891 59.0156V63H203.906V59.0918C203.906 58.5566 203.805 58.1328 203.602 57.8203C203.402 57.5078 203.047 57.3516 202.535 57.3516C201.988 57.3516 201.545 57.5469 201.205 57.9375C200.865 58.3242 200.695 58.9082 200.695 59.6895V63H199.711ZM212.584 63.1406C212.17 63.1406 211.76 63.0371 211.354 62.8301C210.947 62.623 210.641 62.2734 210.434 61.7812L210.486 61.7344V63H209.561V54.2109H210.545V57.9902L210.457 57.8965C210.629 57.4355 210.914 57.0938 211.312 56.8711C211.711 56.6445 212.135 56.5312 212.584 56.5312C213.1 56.5312 213.553 56.666 213.943 56.9355C214.334 57.2051 214.639 57.5879 214.857 58.084C215.076 58.5801 215.186 59.166 215.186 59.8418C215.186 60.5176 215.074 61.1035 214.852 61.5996C214.633 62.0918 214.328 62.4727 213.938 62.7422C213.547 63.0078 213.096 63.1406 212.584 63.1406ZM212.314 62.3203C212.838 62.3203 213.268 62.1055 213.604 61.6758C213.939 61.2422 214.107 60.623 214.107 59.8184C214.107 59.0371 213.945 58.4316 213.621 58.002C213.297 57.5684 212.865 57.3516 212.326 57.3516C211.998 57.3516 211.695 57.4375 211.418 57.6094C211.145 57.7812 210.926 58.0488 210.762 58.4121C210.598 58.7754 210.516 59.2441 210.516 59.8184C210.516 60.666 210.691 61.2949 211.043 61.7051C211.395 62.1152 211.818 62.3203 212.314 62.3203ZM218.426 63.1406C218.004 63.1406 217.637 63.0605 217.324 62.9004C217.016 62.7363 216.777 62.5137 216.609 62.2324C216.441 61.9512 216.357 61.6328 216.357 61.2773C216.357 60.8984 216.469 60.5488 216.691 60.2285C216.914 59.9082 217.258 59.6523 217.723 59.4609C218.191 59.2656 218.791 59.168 219.521 59.168H220.576L220.471 59.2734V58.9277C220.471 58.4199 220.369 58.0312 220.166 57.7617C219.963 57.4883 219.623 57.3516 219.146 57.3516C218.697 57.3516 218.352 57.4688 218.109 57.7031C217.867 57.9336 217.738 58.2441 217.723 58.6348L216.615 58.3828C216.65 58.043 216.779 57.7344 217.002 57.457C217.229 57.1758 217.529 56.9512 217.904 56.7832C218.283 56.6152 218.721 56.5312 219.217 56.5312C219.729 56.5312 220.145 56.6289 220.465 56.8242C220.789 57.0156 221.027 57.293 221.18 57.6562C221.332 58.0195 221.408 58.457 221.408 58.9688V61.8574C221.408 61.9863 221.426 62.0723 221.461 62.1152C221.5 62.1582 221.58 62.1797 221.701 62.1797H222.059V63H221.432C221.166 63 220.943 62.918 220.764 62.7539C220.584 62.5859 220.494 62.375 220.494 62.1211V61.6758H220.641C220.578 61.8398 220.488 62.0078 220.371 62.1797C220.254 62.3477 220.105 62.5059 219.926 62.6543C219.746 62.7988 219.531 62.916 219.281 63.0059C219.035 63.0957 218.75 63.1406 218.426 63.1406ZM218.648 62.3203C218.973 62.3203 219.273 62.2402 219.551 62.0801C219.828 61.9199 220.051 61.6699 220.219 61.3301C220.391 60.9863 220.477 60.541 220.477 59.9941V59.9414H219.486C218.967 59.9414 218.557 60.0098 218.256 60.1465C217.959 60.2832 217.748 60.4531 217.623 60.6562C217.498 60.8555 217.436 61.0547 217.436 61.2539C217.436 61.4531 217.48 61.6328 217.57 61.793C217.66 61.9531 217.795 62.082 217.975 62.1797C218.154 62.2734 218.379 62.3203 218.648 62.3203ZM223.424 63V56.6719H224.35V58.0137L224.314 57.8613C224.502 57.4238 224.783 57.0938 225.158 56.8711C225.537 56.6445 225.92 56.5312 226.307 56.5312C226.42 56.5312 226.529 56.541 226.635 56.5605C226.744 56.5801 226.846 56.6133 226.939 56.6602L226.811 57.5859C226.596 57.5195 226.383 57.4863 226.172 57.4863C226.039 57.4863 225.873 57.5137 225.674 57.5684C225.479 57.6191 225.283 57.7246 225.088 57.8848C224.896 58.041 224.734 58.2754 224.602 58.5879C224.473 58.9004 224.408 59.3164 224.408 59.8359V63H223.424ZM232.213 63C231.963 63 231.744 62.918 231.557 62.7539C231.369 62.5859 231.275 62.375 231.275 62.1211V54.2109H232.26V61.8574C232.26 61.9863 232.277 62.0723 232.312 62.1152C232.352 62.1582 232.432 62.1797 232.553 62.1797H233.168V63H232.213ZM236.959 63.1406C236.357 63.1406 235.836 63.0059 235.395 62.7363C234.957 62.4668 234.619 62.0859 234.381 61.5938C234.143 61.0977 234.023 60.5137 234.023 59.8418C234.023 59.166 234.143 58.5801 234.381 58.084C234.619 57.5879 234.955 57.2051 235.389 56.9355C235.822 56.666 236.332 56.5312 236.918 56.5312C237.254 56.5312 237.59 56.5859 237.926 56.6953C238.266 56.8008 238.574 56.9863 238.852 57.252C239.133 57.5137 239.357 57.875 239.525 58.3359C239.697 58.793 239.783 59.3711 239.783 60.0703H234.656V59.2734H238.928L238.646 59.6426C238.627 59.0879 238.537 58.6426 238.377 58.3066C238.217 57.9707 238.008 57.7285 237.75 57.5801C237.496 57.4277 237.213 57.3516 236.9 57.3516C236.529 57.3516 236.209 57.4492 235.939 57.6445C235.67 57.8359 235.463 58.1172 235.318 58.4883C235.174 58.8594 235.102 59.3125 235.102 59.8477C235.102 60.6367 235.262 61.2461 235.582 61.6758C235.906 62.1055 236.365 62.3203 236.959 62.3203C237.385 62.3203 237.742 62.2129 238.031 61.998C238.324 61.7832 238.539 61.4727 238.676 61.0664L239.643 61.3945C239.49 61.7617 239.287 62.0762 239.033 62.3379C238.779 62.5957 238.477 62.7949 238.125 62.9355C237.777 63.0723 237.389 63.1406 236.959 63.1406ZM242.895 63.1406C242.473 63.1406 242.105 63.0605 241.793 62.9004C241.484 62.7363 241.246 62.5137 241.078 62.2324C240.91 61.9512 240.826 61.6328 240.826 61.2773C240.826 60.8984 240.938 60.5488 241.16 60.2285C241.383 59.9082 241.727 59.6523 242.191 59.4609C242.66 59.2656 243.26 59.168 243.99 59.168H245.045L244.939 59.2734V58.9277C244.939 58.4199 244.838 58.0312 244.635 57.7617C244.432 57.4883 244.092 57.3516 243.615 57.3516C243.166 57.3516 242.82 57.4688 242.578 57.7031C242.336 57.9336 242.207 58.2441 242.191 58.6348L241.084 58.3828C241.119 58.043 241.248 57.7344 241.471 57.457C241.697 57.1758 241.998 56.9512 242.373 56.7832C242.752 56.6152 243.189 56.5312 243.686 56.5312C244.197 56.5312 244.613 56.6289 244.934 56.8242C245.258 57.0156 245.496 57.293 245.648 57.6562C245.801 58.0195 245.877 58.457 245.877 58.9688V61.8574C245.877 61.9863 245.895 62.0723 245.93 62.1152C245.969 62.1582 246.049 62.1797 246.17 62.1797H246.527V63H245.9C245.635 63 245.412 62.918 245.232 62.7539C245.053 62.5859 244.963 62.375 244.963 62.1211V61.6758H245.109C245.047 61.8398 244.957 62.0078 244.84 62.1797C244.723 62.3477 244.574 62.5059 244.395 62.6543C244.215 62.7988 244 62.916 243.75 63.0059C243.504 63.0957 243.219 63.1406 242.895 63.1406ZM243.117 62.3203C243.441 62.3203 243.742 62.2402 244.02 62.0801C244.297 61.9199 244.52 61.6699 244.688 61.3301C244.859 60.9863 244.945 60.541 244.945 59.9941V59.9414H243.955C243.436 59.9414 243.025 60.0098 242.725 60.1465C242.428 60.2832 242.217 60.4531 242.092 60.6562C241.967 60.8555 241.904 61.0547 241.904 61.2539C241.904 61.4531 241.949 61.6328 242.039 61.793C242.129 61.9531 242.264 62.082 242.443 62.1797C242.623 62.2734 242.848 62.3203 243.117 62.3203ZM250.031 63.1406C249.52 63.1406 249.066 63.0059 248.672 62.7363C248.281 62.4668 247.977 62.084 247.758 61.5879C247.539 61.0918 247.43 60.5059 247.43 59.8301C247.43 59.1543 247.539 58.5703 247.758 58.0781C247.98 57.582 248.287 57.2012 248.678 56.9355C249.068 56.666 249.52 56.5312 250.031 56.5312C250.445 56.5312 250.855 56.6348 251.262 56.8418C251.668 57.0488 251.975 57.3984 252.182 57.8906L252.07 57.9375V54.2109H253.055V63H252.129V61.6816L252.158 61.7754C251.986 62.2363 251.701 62.5801 251.303 62.8066C250.904 63.0293 250.48 63.1406 250.031 63.1406ZM250.289 62.3203C250.621 62.3203 250.924 62.2344 251.197 62.0625C251.471 61.8906 251.689 61.623 251.854 61.2598C252.018 60.8926 252.1 60.4238 252.1 59.8535C252.1 59.002 251.924 58.373 251.572 57.9668C251.221 57.5566 250.797 57.3516 250.301 57.3516C249.777 57.3516 249.348 57.5684 249.012 58.002C248.676 58.4316 248.508 59.0488 248.508 59.8535C248.508 60.6348 248.67 61.2422 248.994 61.6758C249.318 62.1055 249.75 62.3203 250.289 62.3203ZM257.074 63.1406C256.617 63.1406 256.201 63.0664 255.826 62.918C255.455 62.7656 255.146 62.5371 254.9 62.2324C254.654 61.9238 254.49 61.5332 254.408 61.0605L255.439 60.8613C255.482 61.3574 255.65 61.7266 255.943 61.9688C256.24 62.2109 256.611 62.332 257.057 62.332C257.498 62.332 257.85 62.2207 258.111 61.998C258.373 61.7754 258.504 61.5039 258.504 61.1836C258.504 60.9102 258.41 60.6934 258.223 60.5332C258.039 60.373 257.771 60.2598 257.42 60.1934L256.652 60.0469C256.445 60.0078 256.23 59.9531 256.008 59.8828C255.785 59.8125 255.576 59.7148 255.381 59.5898C255.189 59.4648 255.033 59.3008 254.912 59.0977C254.795 58.8945 254.736 58.6387 254.736 58.3301C254.736 57.916 254.844 57.5781 255.059 57.3164C255.277 57.0508 255.564 56.8535 255.92 56.7246C256.279 56.5957 256.666 56.5312 257.08 56.5312C257.533 56.5312 257.928 56.6016 258.264 56.7422C258.6 56.8828 258.873 57.084 259.084 57.3457C259.295 57.6074 259.436 57.9238 259.506 58.2949L258.422 58.5117C258.395 58.2734 258.33 58.0664 258.229 57.8906C258.131 57.7148 257.986 57.5801 257.795 57.4863C257.607 57.3887 257.363 57.3398 257.062 57.3398C256.699 57.3398 256.387 57.416 256.125 57.5684C255.863 57.7207 255.732 57.9512 255.732 58.2598C255.732 58.4316 255.775 58.5781 255.861 58.6992C255.951 58.8203 256.084 58.9219 256.26 59.0039C256.439 59.082 256.664 59.1504 256.934 59.209L257.713 59.373C258.041 59.4395 258.344 59.5391 258.621 59.6719C258.898 59.8008 259.121 59.9805 259.289 60.2109C259.457 60.4414 259.541 60.7461 259.541 61.125C259.541 61.543 259.436 61.9043 259.225 62.209C259.018 62.5098 258.729 62.7402 258.357 62.9004C257.99 63.0605 257.562 63.1406 257.074 63.1406ZM265.465 63C265.215 63 264.996 62.918 264.809 62.7539C264.621 62.5859 264.527 62.375 264.527 62.1211V57.4922H263.508V56.6719H264.527V55.3477L265.512 55.1367V56.6719H266.766V57.4922H265.512V61.8574C265.512 61.9863 265.529 62.0723 265.564 62.1152C265.604 62.1582 265.684 62.1797 265.805 62.1797H266.771V63H265.465ZM270.557 63.1406C269.963 63.1406 269.439 63.002 268.986 62.7246C268.533 62.4434 268.18 62.0547 267.926 61.5586C267.672 61.0625 267.545 60.4883 267.545 59.8359C267.545 59.1836 267.672 58.6094 267.926 58.1133C268.18 57.6172 268.533 57.2305 268.986 56.9531C269.439 56.6719 269.963 56.5312 270.557 56.5312C271.15 56.5312 271.674 56.6719 272.127 56.9531C272.58 57.2305 272.934 57.6172 273.188 58.1133C273.441 58.6094 273.568 59.1836 273.568 59.8359C273.568 60.4883 273.441 61.0625 273.188 61.5586C272.934 62.0547 272.58 62.4434 272.127 62.7246C271.674 63.002 271.15 63.1406 270.557 63.1406ZM270.557 62.3203C271.154 62.3203 271.625 62.0977 271.969 61.6523C272.316 61.207 272.49 60.6016 272.49 59.8359C272.49 59.0664 272.316 58.4609 271.969 58.0195C271.625 57.5742 271.154 57.3516 270.557 57.3516C269.959 57.3516 269.486 57.5742 269.139 58.0195C268.795 58.4609 268.623 59.0664 268.623 59.8359C268.623 60.6016 268.795 61.207 269.139 61.6523C269.486 62.0977 269.959 62.3203 270.557 62.3203ZM60.0938 83.1406C59.582 83.1406 59.1289 83.0059 58.7344 82.7363C58.3438 82.4668 58.0391 82.084 57.8203 81.5879C57.6016 81.0918 57.4922 80.5059 57.4922 79.8301C57.4922 79.1543 57.6016 78.5703 57.8203 78.0781C58.043 77.582 58.3496 77.2012 58.7402 76.9355C59.1309 76.666 59.582 76.5312 60.0938 76.5312C60.5078 76.5312 60.918 76.6348 61.3242 76.8418C61.7305 77.0488 62.0371 77.3984 62.2441 77.8906L62.1328 77.9375V74.2109H63.1172V83H62.1914V81.6816L62.2207 81.7754C62.0488 82.2363 61.7637 82.5801 61.3652 82.8066C60.9668 83.0293 60.543 83.1406 60.0938 83.1406ZM60.3516 82.3203C60.6836 82.3203 60.9863 82.2344 61.2598 82.0625C61.5332 81.8906 61.752 81.623 61.916 81.2598C62.0801 80.8926 62.1621 80.4238 62.1621 79.8535C62.1621 79.002 61.9863 78.373 61.6348 77.9668C61.2832 77.5566 60.8594 77.3516 60.3633 77.3516C59.8398 77.3516 59.4102 77.5684 59.0742 78.002C58.7383 78.4316 58.5703 79.0488 58.5703 79.8535C58.5703 80.6348 58.7324 81.2422 59.0566 81.6758C59.3809 82.1055 59.8125 82.3203 60.3516 82.3203ZM67.0781 83.1406C66.6367 83.1406 66.2539 83.041 65.9297 82.8418C65.6055 82.6426 65.3555 82.3574 65.1797 81.9863C65.0039 81.6152 64.916 81.1719 64.916 80.6562V76.6719H65.9004V80.5801C65.9004 81.0957 65.998 81.5156 66.1934 81.8398C66.3887 82.1602 66.7402 82.3203 67.248 82.3203C67.627 82.3203 67.9551 82.2227 68.2324 82.0273C68.5098 81.832 68.7246 81.5391 68.877 81.1484C69.0332 80.7578 69.1113 80.2695 69.1113 79.6836V76.6719H70.0957V83H69.1699V81.5117L69.2109 81.7695C69.0469 82.1602 68.7812 82.4863 68.4141 82.748C68.0508 83.0098 67.6055 83.1406 67.0781 83.1406ZM72.0059 83V76.6719H72.9316V77.7559C73.0801 77.4277 73.3262 77.1426 73.6699 76.9004C74.0137 76.6543 74.4219 76.5312 74.8945 76.5312C75.3125 76.5312 75.6758 76.6465 75.9844 76.877C76.2969 77.1035 76.5293 77.4258 76.6816 77.8438C76.8809 77.457 77.1523 77.1426 77.4961 76.9004C77.8438 76.6543 78.248 76.5312 78.709 76.5312C79.3145 76.5312 79.793 76.752 80.1445 77.1934C80.5 77.6309 80.6777 78.2383 80.6777 79.0156V83H79.6934V79.0918C79.6934 78.7324 79.6562 78.4238 79.582 78.166C79.5078 77.9043 79.3848 77.7031 79.2129 77.5625C79.0449 77.4219 78.8145 77.3516 78.5215 77.3516C78.2012 77.3516 77.9121 77.4434 77.6543 77.627C77.4004 77.8066 77.1992 78.0703 77.0508 78.418C76.9062 78.7656 76.834 79.1895 76.834 79.6895V83H75.8496V79.0918C75.8496 78.7324 75.8125 78.4238 75.7383 78.166C75.6641 77.9043 75.543 77.7031 75.375 77.5625C75.207 77.4219 74.9785 77.3516 74.6895 77.3516C74.3691 77.3516 74.0801 77.4414 73.8223 77.6211C73.5645 77.8008 73.3613 78.0645 73.2129 78.4121C73.0645 78.7598 72.9902 79.1855 72.9902 79.6895V83H72.0059ZM82.4824 85.2852V76.6719H83.4082V77.9902L83.3789 77.8965C83.5508 77.4355 83.8359 77.0938 84.2344 76.8711C84.6328 76.6445 85.0566 76.5312 85.5059 76.5312C86.0215 76.5312 86.4746 76.666 86.8652 76.9355C87.2559 77.2051 87.5605 77.5879 87.7793 78.084C87.998 78.5801 88.1074 79.166 88.1074 79.8418C88.1074 80.5176 87.9961 81.1035 87.7734 81.5996C87.5547 82.0918 87.25 82.4727 86.8594 82.7422C86.4688 83.0078 86.0176 83.1406 85.5059 83.1406C85.0918 83.1406 84.6816 83.0371 84.2754 82.8301C83.8691 82.623 83.5625 82.2734 83.3555 81.7812L83.4434 81.7344V85.2852H82.4824ZM85.2363 82.3203C85.7598 82.3203 86.1895 82.1055 86.5254 81.6758C86.8613 81.2422 87.0293 80.623 87.0293 79.8184C87.0293 79.0371 86.8672 78.4316 86.543 78.002C86.2188 77.5684 85.7871 77.3516 85.248 77.3516C84.9199 77.3516 84.6172 77.4375 84.3398 77.6094C84.0664 77.7812 83.8477 78.0488 83.6836 78.4121C83.5195 78.7754 83.4375 79.2441 83.4375 79.8184C83.4375 80.666 83.6133 81.2949 83.9648 81.7051C84.3164 82.1152 84.7402 82.3203 85.2363 82.3203ZM89.5664 83V76.6719H90.5508V83H89.5664ZM90.0586 75.6113C89.832 75.6113 89.6387 75.5312 89.4785 75.3711C89.3184 75.2109 89.2383 75.0176 89.2383 74.791C89.2383 74.5605 89.3184 74.3672 89.4785 74.2109C89.6387 74.0508 89.832 73.9707 90.0586 73.9707C90.2891 73.9707 90.4824 74.0508 90.6387 74.2109C90.7988 74.3672 90.8789 74.5605 90.8789 74.791C90.8789 75.0176 90.7988 75.2109 90.6387 75.3711C90.4824 75.5312 90.2891 75.6113 90.0586 75.6113ZM92.4668 83V76.6719H93.3926V78.1016L93.3516 77.8438C93.5195 77.4805 93.7852 77.1719 94.1484 76.918C94.5117 76.6602 94.9531 76.5312 95.4727 76.5312C95.9219 76.5312 96.3086 76.6309 96.6328 76.8301C96.957 77.0293 97.207 77.3145 97.3828 77.6855C97.5586 78.0527 97.6465 78.4961 97.6465 79.0156V83H96.6621V79.0918C96.6621 78.5723 96.5547 78.1523 96.3398 77.832C96.1289 77.5117 95.7793 77.3516 95.291 77.3516C94.7637 77.3516 94.3242 77.5527 93.9727 77.9551C93.625 78.3535 93.4512 78.9316 93.4512 79.6895V83H92.4668ZM101.783 85.4258C100.842 85.4258 100.148 85.293 99.7031 85.0273C99.2578 84.7656 99.0352 84.3594 99.0352 83.8086C99.0352 83.4961 99.1152 83.2168 99.2754 82.9707C99.4355 82.7246 99.7129 82.5352 100.107 82.4023C99.959 82.3125 99.8379 82.1934 99.7441 82.0449C99.6504 81.8965 99.6035 81.7305 99.6035 81.5469C99.6035 81.3281 99.6719 81.1328 99.8086 80.9609C99.9453 80.7852 100.141 80.6602 100.395 80.5859C100.082 80.4023 99.8379 80.1543 99.6621 79.8418C99.4902 79.5254 99.4043 79.1582 99.4043 78.7402C99.4043 78.2871 99.5039 77.8965 99.7031 77.5684C99.9062 77.2363 100.193 76.9805 100.564 76.8008C100.939 76.6211 101.385 76.5312 101.9 76.5312C102.416 76.5312 102.861 76.6211 103.236 76.8008C103.615 76.9805 103.906 77.2363 104.109 77.5684C104.316 77.9004 104.42 78.2949 104.42 78.752C104.42 79.2012 104.316 79.5898 104.109 79.918C103.906 80.2422 103.615 80.4941 103.236 80.6738C102.857 80.8496 102.406 80.9375 101.883 80.9375H101.338C100.846 80.9375 100.6 81.084 100.6 81.377C100.6 81.6543 100.838 81.793 101.314 81.793H102.58C103.08 81.793 103.482 81.8516 103.787 81.9688C104.096 82.082 104.33 82.2305 104.49 82.4141C104.654 82.5938 104.766 82.7891 104.824 83C104.883 83.2109 104.912 83.4121 104.912 83.6035C104.912 84.2246 104.688 84.6836 104.238 84.9805C103.789 85.2773 103.092 85.4258 102.146 85.4258H101.783ZM101.783 84.6406H102.146C103.311 84.6406 103.893 84.293 103.893 83.5977C103.893 83.3086 103.787 83.0723 103.576 82.8887C103.369 82.7051 103.014 82.6133 102.51 82.6133H101.42C101.029 82.6133 100.703 82.6934 100.441 82.8535C100.18 83.0098 100.049 83.2676 100.049 83.627C100.049 83.9707 100.189 84.2246 100.471 84.3887C100.756 84.5566 101.193 84.6406 101.783 84.6406ZM101.9 80.2461C102.396 80.2461 102.777 80.1191 103.043 79.8652C103.309 79.6074 103.441 79.2363 103.441 78.752C103.441 78.2715 103.309 77.8984 103.043 77.6328C102.777 77.3672 102.396 77.2344 101.9 77.2344C101.408 77.2344 101.031 77.3672 100.77 77.6328C100.508 77.8945 100.377 78.2676 100.377 78.752C100.377 79.2363 100.508 79.6074 100.77 79.8652C101.031 80.1191 101.408 80.2461 101.9 80.2461ZM102.943 77.1934V76.5664C102.943 76.3125 103.037 76.1035 103.225 75.9395C103.412 75.7715 103.631 75.6875 103.881 75.6875H104.643V76.5078H104.016C103.895 76.5078 103.814 76.5293 103.775 76.5723C103.74 76.6152 103.723 76.7012 103.723 76.8301V77.1934H102.943ZM109.277 83V74.5625H112.318C113.299 74.5625 114.035 74.7637 114.527 75.166C115.02 75.5684 115.266 76.1504 115.266 76.9121C115.266 77.6582 115.02 78.2363 114.527 78.6465C114.039 79.0566 113.297 79.2617 112.301 79.2617H110.332V83H109.277ZM110.332 78.3945H112.318C112.928 78.3945 113.391 78.2637 113.707 78.002C114.027 77.7402 114.188 77.3828 114.188 76.9297C114.188 76.5234 114.045 76.1719 113.76 75.875C113.475 75.5781 112.994 75.4297 112.318 75.4297H110.332V78.3945ZM116.104 83V82.1797H117.223V75.3828H116.104V74.5625H119.396V75.3828H118.277V82.1797H119.396V83H116.104ZM120.756 83V82.1797H121.875V75.3828H120.756V74.5625H124.049V75.3828H122.93V82.1797H124.049V83H120.756ZM130.664 83.1406C130.152 83.1406 129.699 83.0059 129.305 82.7363C128.914 82.4668 128.609 82.084 128.391 81.5879C128.172 81.0918 128.062 80.5059 128.062 79.8301C128.062 79.1543 128.172 78.5703 128.391 78.0781C128.613 77.582 128.92 77.2012 129.311 76.9355C129.701 76.666 130.152 76.5312 130.664 76.5312C131.078 76.5312 131.488 76.6348 131.895 76.8418C132.301 77.0488 132.607 77.3984 132.814 77.8906L132.703 77.9375V74.2109H133.688V83H132.762V81.6816L132.791 81.7754C132.619 82.2363 132.334 82.5801 131.936 82.8066C131.537 83.0293 131.113 83.1406 130.664 83.1406ZM130.922 82.3203C131.254 82.3203 131.557 82.2344 131.83 82.0625C132.104 81.8906 132.322 81.623 132.486 81.2598C132.65 80.8926 132.732 80.4238 132.732 79.8535C132.732 79.002 132.557 78.373 132.205 77.9668C131.854 77.5566 131.43 77.3516 130.934 77.3516C130.41 77.3516 129.98 77.5684 129.645 78.002C129.309 78.4316 129.141 79.0488 129.141 79.8535C129.141 80.6348 129.303 81.2422 129.627 81.6758C129.951 82.1055 130.383 82.3203 130.922 82.3203ZM137.227 83.1406C136.805 83.1406 136.438 83.0605 136.125 82.9004C135.816 82.7363 135.578 82.5137 135.41 82.2324C135.242 81.9512 135.158 81.6328 135.158 81.2773C135.158 80.8984 135.27 80.5488 135.492 80.2285C135.715 79.9082 136.059 79.6523 136.523 79.4609C136.992 79.2656 137.592 79.168 138.322 79.168H139.377L139.271 79.2734V78.9277C139.271 78.4199 139.17 78.0312 138.967 77.7617C138.764 77.4883 138.424 77.3516 137.947 77.3516C137.498 77.3516 137.152 77.4688 136.91 77.7031C136.668 77.9336 136.539 78.2441 136.523 78.6348L135.416 78.3828C135.451 78.043 135.58 77.7344 135.803 77.457C136.029 77.1758 136.33 76.9512 136.705 76.7832C137.084 76.6152 137.521 76.5312 138.018 76.5312C138.529 76.5312 138.945 76.6289 139.266 76.8242C139.59 77.0156 139.828 77.293 139.98 77.6562C140.133 78.0195 140.209 78.457 140.209 78.9688V81.8574C140.209 81.9863 140.227 82.0723 140.262 82.1152C140.301 82.1582 140.381 82.1797 140.502 82.1797H140.859V83H140.232C139.967 83 139.744 82.918 139.564 82.7539C139.385 82.5859 139.295 82.375 139.295 82.1211V81.6758H139.441C139.379 81.8398 139.289 82.0078 139.172 82.1797C139.055 82.3477 138.906 82.5059 138.727 82.6543C138.547 82.7988 138.332 82.916 138.082 83.0059C137.836 83.0957 137.551 83.1406 137.227 83.1406ZM137.449 82.3203C137.773 82.3203 138.074 82.2402 138.352 82.0801C138.629 81.9199 138.852 81.6699 139.02 81.3301C139.191 80.9863 139.277 80.541 139.277 79.9941V79.9414H138.287C137.768 79.9414 137.357 80.0098 137.057 80.1465C136.76 80.2832 136.549 80.4531 136.424 80.6562C136.299 80.8555 136.236 81.0547 136.236 81.2539C136.236 81.4531 136.281 81.6328 136.371 81.793C136.461 81.9531 136.596 82.082 136.775 82.1797C136.955 82.2734 137.18 82.3203 137.449 82.3203ZM143.344 83C143.094 83 142.875 82.918 142.688 82.7539C142.5 82.5859 142.406 82.375 142.406 82.1211V77.4922H141.387V76.6719H142.406V75.3477L143.391 75.1367V76.6719H144.645V77.4922H143.391V81.8574C143.391 81.9863 143.408 82.0723 143.443 82.1152C143.482 82.1582 143.562 82.1797 143.684 82.1797H144.65V83H143.344ZM147.621 83.1406C147.199 83.1406 146.832 83.0605 146.52 82.9004C146.211 82.7363 145.973 82.5137 145.805 82.2324C145.637 81.9512 145.553 81.6328 145.553 81.2773C145.553 80.8984 145.664 80.5488 145.887 80.2285C146.109 79.9082 146.453 79.6523 146.918 79.4609C147.387 79.2656 147.986 79.168 148.717 79.168H149.771L149.666 79.2734V78.9277C149.666 78.4199 149.564 78.0312 149.361 77.7617C149.158 77.4883 148.818 77.3516 148.342 77.3516C147.893 77.3516 147.547 77.4688 147.305 77.7031C147.062 77.9336 146.934 78.2441 146.918 78.6348L145.811 78.3828C145.846 78.043 145.975 77.7344 146.197 77.457C146.424 77.1758 146.725 76.9512 147.1 76.7832C147.479 76.6152 147.916 76.5312 148.412 76.5312C148.924 76.5312 149.34 76.6289 149.66 76.8242C149.984 77.0156 150.223 77.293 150.375 77.6562C150.527 78.0195 150.604 78.457 150.604 78.9688V81.8574C150.604 81.9863 150.621 82.0723 150.656 82.1152C150.695 82.1582 150.775 82.1797 150.896 82.1797H151.254V83H150.627C150.361 83 150.139 82.918 149.959 82.7539C149.779 82.5859 149.689 82.375 149.689 82.1211V81.6758H149.836C149.773 81.8398 149.684 82.0078 149.566 82.1797C149.449 82.3477 149.301 82.5059 149.121 82.6543C148.941 82.7988 148.727 82.916 148.477 83.0059C148.23 83.0957 147.945 83.1406 147.621 83.1406ZM147.844 82.3203C148.168 82.3203 148.469 82.2402 148.746 82.0801C149.023 81.9199 149.246 81.6699 149.414 81.3301C149.586 80.9863 149.672 80.541 149.672 79.9941V79.9414H148.682C148.162 79.9414 147.752 80.0098 147.451 80.1465C147.154 80.2832 146.943 80.4531 146.818 80.6562C146.693 80.8555 146.631 81.0547 146.631 81.2539C146.631 81.4531 146.676 81.6328 146.766 81.793C146.855 81.9531 146.99 82.082 147.17 82.1797C147.35 82.2734 147.574 82.3203 147.844 82.3203Z" fill="white"/>
<path d="M61.9697 32L63.7471 22.1562H65.2168L63.4395 32H61.9697ZM57.3896 29.334V28.001H65.75V29.334H57.3896ZM58.4971 32L60.2744 22.1562H61.751L59.9736 32H58.4971ZM57.9365 26.1553V24.8223H66.3379V26.1553H57.9365ZM69.3867 32V24.6514C69.0085 25.0023 68.653 25.2894 68.3203 25.5127C67.9876 25.736 67.6162 25.9206 67.2061 26.0664V24.3369C67.4521 24.2367 67.7074 24.109 67.9717 23.9541C68.236 23.7992 68.5208 23.5804 68.8262 23.2979C69.1361 23.0153 69.471 22.6348 69.8311 22.1562H71.1299V32H69.3867Z" fill="white"/>
<circle cx="12" cy="46" r="10.5" fill="#19191B" stroke="#9040FF" stroke-width="3"/>
<line x1="11.5" y1="57" x2="11.5" y2="337" stroke="#9040FF" stroke-width="3"/>
<circle cx="12" cy="194" r="10.5" fill="#19191B" stroke="#9040FF" stroke-width="3"/>
<circle cx="12" cy="344" r="10.5" fill="#19191B" stroke="#9040FF" stroke-width="3"/>
<defs>
<linearGradient id="paint0_linear_3_35" x1="214.5" y1="291" x2="214.5" y2="396" gradientUnits="userSpaceOnUse">
<stop stop-color="#09DE4C"/>
<stop offset="1" stop-color="#434F61" stop-opacity="0"/>
</linearGradient>
<linearGradient id="paint1_linear_3_35" x1="214.5" y1="141" x2="214.5" y2="246" gradientUnits="userSpaceOnUse">
<stop stop-color="#09DE4C"/>
<stop offset="1" stop-color="#434F61" stop-opacity="0"/>
</linearGradient>
<linearGradient id="paint2_linear_3_35" x1="214.5" y1="0" x2="214.5" y2="105" gradientUnits="userSpaceOnUse">
<stop stop-color="#F62B2B"/>
<stop offset="1" stop-color="#434F61" stop-opacity="0"/>
</linearGradient>
</defs>
</svg>
