<svg width="175" height="100" viewBox="0 0 175 100" fill="none" xmlns="http://www.w3.org/2000/svg">
<path d="M9.67383 51V24.873C8.23503 26.2611 6.8724 27.3783 5.58594 28.2246C4.29948 29.071 2.86914 29.7734 1.29492 30.332V22.6133C2.32747 22.207 3.37695 21.7077 4.44336 21.1152C5.52669 20.5059 6.66081 19.6764 7.8457 18.627C9.04753 17.5775 10.2917 16.181 11.5781 14.4375H17.418V51H9.67383ZM22.9277 51V46.2773L35.9277 35.7402C37.3665 34.5553 38.526 33.4551 39.4062 32.4395C40.2865 31.4238 40.9297 30.3913 41.3359 29.3418C41.7422 28.2923 41.9453 27.1413 41.9453 25.8887C41.9453 24.4329 41.7083 23.265 41.2344 22.3848C40.7604 21.5046 40.1087 20.8698 39.2793 20.4805C38.4499 20.0911 37.502 19.8965 36.4355 19.8965C34.8613 19.8965 33.6426 20.235 32.7793 20.9121C31.9329 21.5723 31.332 22.4186 30.9766 23.4512C30.6211 24.4668 30.401 25.5078 30.3164 26.5742L22.4199 24.3906C22.6569 22.5456 23.3848 20.819 24.6035 19.2109C25.8392 17.5859 27.4727 16.2741 29.5039 15.2754C31.5352 14.2767 33.8457 13.7773 36.4355 13.7773C37.9759 13.7773 39.5417 13.9889 41.1328 14.4121C42.7409 14.8184 44.2135 15.4785 45.5508 16.3926C46.9049 17.3066 47.9967 18.4831 48.8262 19.9219C49.6556 21.3607 50.0703 23.0957 50.0703 25.127C50.0703 27.9876 49.1732 30.6113 47.3789 32.998C45.5846 35.3678 43.0456 37.653 39.7617 39.8535L30.6719 46.2012L28.9961 44.7793H50.0449V51H22.9277ZM68.9863 51.6602C64.3652 51.6602 60.7936 50.0182 58.2715 46.7344C55.7663 43.4336 54.5137 38.7617 54.5137 32.7188C54.5137 26.6927 55.7663 22.0293 58.2715 18.7285C60.7936 15.4277 64.3652 13.7773 68.9863 13.7773C73.6243 13.7773 77.196 15.4277 79.7012 18.7285C82.2064 22.0293 83.459 26.6927 83.459 32.7188C83.459 38.7448 82.2064 43.4082 79.7012 46.709C77.196 50.0098 73.6243 51.6602 68.9863 51.6602ZM68.9863 45.5664C71.1022 45.5664 72.6934 44.4831 73.7598 42.3164C74.8431 40.1497 75.3848 36.9505 75.3848 32.7188C75.3848 28.487 74.8431 25.2962 73.7598 23.1465C72.6934 20.9798 71.1022 19.8965 68.9863 19.8965C66.8704 19.8965 65.2708 20.9798 64.1875 23.1465C63.1211 25.2962 62.5879 28.487 62.5879 32.7188C62.5879 36.9505 63.1211 40.1497 64.1875 42.3164C65.2708 44.4831 66.8704 45.5664 68.9863 45.5664ZM97.7539 47.1152V36.5273H87.4961V30.3828H97.7539V19.7949H104.559V30.3828H114.816V36.5273H104.559V47.1152H97.7539Z" fill="#A977FF"/>
<path d="M5.25586 95L0.439453 82.3438H2.12695L6.29297 93.9102H5.95898L10.0898 82.3438H11.7773L6.96094 95H5.25586ZM15.8555 95.2109C15.1934 95.2109 14.6191 95.0615 14.1328 94.7627C13.6465 94.4639 13.2715 94.0361 13.0078 93.4795C12.7441 92.9229 12.6123 92.2578 12.6123 91.4844V85.5078H14.0889V91.3701C14.0889 92.1436 14.2354 92.7734 14.5283 93.2598C14.8213 93.7402 15.3486 93.9805 16.1104 93.9805C16.6787 93.9805 17.1709 93.834 17.5869 93.541C18.0029 93.248 18.3252 92.8086 18.5537 92.2227C18.7881 91.6367 18.9053 90.9043 18.9053 90.0254V85.5078H20.3818V95H18.9932V92.7676L19.0547 93.1543C18.8086 93.7402 18.4102 94.2295 17.8594 94.6221C17.3145 95.0146 16.6465 95.2109 15.8555 95.2109ZM24.6182 95C24.2432 95 23.915 94.877 23.6338 94.6309C23.3525 94.3789 23.2119 94.0625 23.2119 93.6816V81.8164H24.6885V93.2861C24.6885 93.4795 24.7148 93.6084 24.7676 93.6729C24.8262 93.7373 24.9463 93.7695 25.1279 93.7695H26.0508V95H24.6182ZM27.9932 95V85.5078H29.3818V87.6523L29.3203 87.2656C29.5723 86.7207 29.9707 86.2578 30.5156 85.877C31.0605 85.4902 31.7227 85.2969 32.502 85.2969C33.1758 85.2969 33.7559 85.4463 34.2422 85.7451C34.7285 86.0439 35.1035 86.4717 35.3672 87.0283C35.6309 87.5791 35.7627 88.2441 35.7627 89.0234V95H34.2861V89.1377C34.2861 88.3584 34.125 87.7285 33.8027 87.248C33.4863 86.7676 32.9619 86.5273 32.2295 86.5273C31.4385 86.5273 30.7793 86.8291 30.252 87.4326C29.7305 88.0303 29.4697 88.8975 29.4697 90.0342V95H27.9932ZM42.3018 95.2109C41.3994 95.2109 40.6172 95.0088 39.9551 94.6045C39.2988 94.2002 38.792 93.6289 38.4346 92.8906C38.0771 92.1465 37.8984 91.2705 37.8984 90.2627C37.8984 89.249 38.0771 88.3701 38.4346 87.626C38.792 86.8818 39.2959 86.3076 39.9463 85.9033C40.5967 85.499 41.3613 85.2969 42.2402 85.2969C42.7441 85.2969 43.248 85.3789 43.752 85.543C44.2617 85.7012 44.7246 85.9795 45.1406 86.3779C45.5625 86.7705 45.8994 87.3125 46.1514 88.0039C46.4092 88.6895 46.5381 89.5566 46.5381 90.6055H38.8477V89.4102H45.2549L44.833 89.9639C44.8037 89.1318 44.6689 88.4639 44.4287 87.96C44.1885 87.4561 43.875 87.0928 43.4883 86.8701C43.1074 86.6416 42.6826 86.5273 42.2139 86.5273C41.6572 86.5273 41.1768 86.6738 40.7725 86.9668C40.3682 87.2539 40.0576 87.6758 39.8408 88.2324C39.624 88.7891 39.5156 89.4688 39.5156 90.2715C39.5156 91.4551 39.7559 92.3691 40.2363 93.0137C40.7227 93.6582 41.4111 93.9805 42.3018 93.9805C42.9404 93.9805 43.4766 93.8193 43.9102 93.4971C44.3496 93.1748 44.6719 92.709 44.877 92.0996L46.3271 92.5918C46.0986 93.1426 45.7939 93.6143 45.4131 94.0068C45.0322 94.3936 44.5781 94.6924 44.0508 94.9033C43.5293 95.1084 42.9463 95.2109 42.3018 95.2109ZM48.7705 95V85.5078H50.1592V87.5205L50.1064 87.292C50.3877 86.6357 50.8096 86.1406 51.3721 85.8066C51.9404 85.4668 52.5146 85.2969 53.0947 85.2969C53.2646 85.2969 53.4287 85.3115 53.5869 85.3408C53.751 85.3701 53.9033 85.4199 54.0439 85.4902L53.8506 86.8789C53.5283 86.7793 53.209 86.7295 52.8926 86.7295C52.6934 86.7295 52.4443 86.7705 52.1455 86.8525C51.8525 86.9287 51.5596 87.0869 51.2666 87.3271C50.9795 87.5615 50.7363 87.9131 50.5371 88.3818C50.3438 88.8506 50.2471 89.4746 50.2471 90.2539V95H48.7705ZM57.8672 95.2109C57.2344 95.2109 56.6836 95.0908 56.2148 94.8506C55.752 94.6045 55.3945 94.2705 55.1426 93.8486C54.8906 93.4268 54.7646 92.9492 54.7646 92.416C54.7646 91.8477 54.9316 91.3232 55.2656 90.8428C55.5996 90.3623 56.1152 89.9785 56.8125 89.6914C57.5156 89.3984 58.415 89.252 59.5107 89.252H61.0928L60.9346 89.4102V88.8916C60.9346 88.1299 60.7822 87.5469 60.4775 87.1426C60.1729 86.7324 59.6631 86.5273 58.9482 86.5273C58.2744 86.5273 57.7559 86.7031 57.3926 87.0547C57.0293 87.4004 56.8359 87.8662 56.8125 88.4521L55.1514 88.0742C55.2041 87.5645 55.3975 87.1016 55.7314 86.6855C56.0713 86.2637 56.5225 85.9268 57.085 85.6748C57.6533 85.4229 58.3096 85.2969 59.0537 85.2969C59.8213 85.2969 60.4453 85.4434 60.9258 85.7363C61.4121 86.0234 61.7695 86.4395 61.998 86.9844C62.2266 87.5293 62.3408 88.1855 62.3408 88.9531V93.2861C62.3408 93.4795 62.3672 93.6084 62.4199 93.6729C62.4785 93.7373 62.5986 93.7695 62.7803 93.7695H63.3164V95H62.376C61.9775 95 61.6436 94.877 61.374 94.6309C61.1045 94.3789 60.9697 94.0625 60.9697 93.6816V93.0137H61.1895C61.0957 93.2598 60.9609 93.5117 60.7852 93.7695C60.6094 94.0215 60.3867 94.2588 60.1172 94.4814C59.8477 94.6982 59.5254 94.874 59.1504 95.0088C58.7812 95.1436 58.3535 95.2109 57.8672 95.2109ZM58.2012 93.9805C58.6875 93.9805 59.1387 93.8604 59.5547 93.6201C59.9707 93.3799 60.3047 93.0049 60.5566 92.4951C60.8145 91.9795 60.9434 91.3115 60.9434 90.4912V90.4121H59.458C58.6787 90.4121 58.0635 90.5146 57.6123 90.7197C57.167 90.9248 56.8506 91.1797 56.6631 91.4844C56.4756 91.7832 56.3818 92.082 56.3818 92.3809C56.3818 92.6797 56.4492 92.9492 56.584 93.1895C56.7188 93.4297 56.9209 93.623 57.1904 93.7695C57.46 93.9102 57.7969 93.9805 58.2012 93.9805ZM69.8994 95.2109C69.2783 95.2109 68.6631 95.0557 68.0537 94.7451C67.4443 94.4346 66.9844 93.9102 66.6738 93.1719L66.7529 93.1016V95H65.3643V81.8164H66.8408V87.4854L66.709 87.3447C66.9668 86.6533 67.3945 86.1406 67.9922 85.8066C68.5898 85.4668 69.2256 85.2969 69.8994 85.2969C70.6729 85.2969 71.3525 85.499 71.9385 85.9033C72.5244 86.3076 72.9814 86.8818 73.3096 87.626C73.6377 88.3701 73.8018 89.249 73.8018 90.2627C73.8018 91.2764 73.6348 92.1553 73.3008 92.8994C72.9727 93.6377 72.5156 94.209 71.9297 94.6133C71.3438 95.0117 70.667 95.2109 69.8994 95.2109ZM69.4951 93.9805C70.2803 93.9805 70.9248 93.6582 71.4287 93.0137C71.9326 92.3633 72.1846 91.4346 72.1846 90.2275C72.1846 89.0557 71.9414 88.1475 71.4551 87.5029C70.9688 86.8525 70.3213 86.5273 69.5127 86.5273C69.0205 86.5273 68.5664 86.6562 68.1504 86.9141C67.7402 87.1719 67.4121 87.5732 67.166 88.1182C66.9199 88.6631 66.7969 89.3662 66.7969 90.2275C66.7969 91.499 67.0605 92.4424 67.5879 93.0576C68.1152 93.6729 68.751 93.9805 69.4951 93.9805ZM75.9902 95V85.5078H77.4668V95H75.9902ZM76.7285 83.917C76.3887 83.917 76.0986 83.7969 75.8584 83.5566C75.6182 83.3164 75.498 83.0264 75.498 82.6865C75.498 82.3408 75.6182 82.0508 75.8584 81.8164C76.0986 81.5762 76.3887 81.4561 76.7285 81.4561C77.0742 81.4561 77.3643 81.5762 77.5986 81.8164C77.8389 82.0508 77.959 82.3408 77.959 82.6865C77.959 83.0264 77.8389 83.3164 77.5986 83.5566C77.3643 83.7969 77.0742 83.917 76.7285 83.917ZM81.7295 95C81.3545 95 81.0264 94.877 80.7451 94.6309C80.4639 94.3789 80.3232 94.0625 80.3232 93.6816V81.8164H81.7998V93.2861C81.7998 93.4795 81.8262 93.6084 81.8789 93.6729C81.9375 93.7373 82.0576 93.7695 82.2393 93.7695H83.1621V95H81.7295ZM85.1309 95V85.5078H86.6074V95H85.1309ZM85.8691 83.917C85.5293 83.917 85.2393 83.7969 84.999 83.5566C84.7588 83.3164 84.6387 83.0264 84.6387 82.6865C84.6387 82.3408 84.7588 82.0508 84.999 81.8164C85.2393 81.5762 85.5293 81.4561 85.8691 81.4561C86.2148 81.4561 86.5049 81.5762 86.7393 81.8164C86.9795 82.0508 87.0996 82.3408 87.0996 82.6865C87.0996 83.0264 86.9795 83.3164 86.7393 83.5566C86.5049 83.7969 86.2148 83.917 85.8691 83.917ZM91.582 95C91.207 95 90.8789 94.877 90.5977 94.6309C90.3164 94.3789 90.1758 94.0625 90.1758 93.6816V86.7383H88.6465V85.5078H90.1758V83.5215L91.6523 83.2051V85.5078H93.5332V86.7383H91.6523V93.2861C91.6523 93.4795 91.6787 93.6084 91.7314 93.6729C91.79 93.7373 91.9102 93.7695 92.0918 93.7695H93.542V95H91.582ZM95.6777 95V85.5078H97.1543V95H95.6777ZM96.416 83.917C96.0762 83.917 95.7861 83.7969 95.5459 83.5566C95.3057 83.3164 95.1855 83.0264 95.1855 82.6865C95.1855 82.3408 95.3057 82.0508 95.5459 81.8164C95.7861 81.5762 96.0762 81.4561 96.416 81.4561C96.7617 81.4561 97.0518 81.5762 97.2861 81.8164C97.5264 82.0508 97.6465 82.3408 97.6465 82.6865C97.6465 83.0264 97.5264 83.3164 97.2861 83.5566C97.0518 83.7969 96.7617 83.917 96.416 83.917ZM103.825 95.2109C102.923 95.2109 102.141 95.0088 101.479 94.6045C100.822 94.2002 100.315 93.6289 99.958 92.8906C99.6006 92.1465 99.4219 91.2705 99.4219 90.2627C99.4219 89.249 99.6006 88.3701 99.958 87.626C100.315 86.8818 100.819 86.3076 101.47 85.9033C102.12 85.499 102.885 85.2969 103.764 85.2969C104.268 85.2969 104.771 85.3789 105.275 85.543C105.785 85.7012 106.248 85.9795 106.664 86.3779C107.086 86.7705 107.423 87.3125 107.675 88.0039C107.933 88.6895 108.062 89.5566 108.062 90.6055H100.371V89.4102H106.778L106.356 89.9639C106.327 89.1318 106.192 88.4639 105.952 87.96C105.712 87.4561 105.398 87.0928 105.012 86.8701C104.631 86.6416 104.206 86.5273 103.737 86.5273C103.181 86.5273 102.7 86.6738 102.296 86.9668C101.892 87.2539 101.581 87.6758 101.364 88.2324C101.147 88.7891 101.039 89.4688 101.039 90.2715C101.039 91.4551 101.279 92.3691 101.76 93.0137C102.246 93.6582 102.935 93.9805 103.825 93.9805C104.464 93.9805 105 93.8193 105.434 93.4971C105.873 93.1748 106.195 92.709 106.4 92.0996L107.851 92.5918C107.622 93.1426 107.317 93.6143 106.937 94.0068C106.556 94.3936 106.102 94.6924 105.574 94.9033C105.053 95.1084 104.47 95.2109 103.825 95.2109ZM113.537 95.2109C112.852 95.2109 112.228 95.0996 111.665 94.877C111.108 94.6484 110.646 94.3057 110.276 93.8486C109.907 93.3857 109.661 92.7998 109.538 92.0908L111.085 91.792C111.149 92.5361 111.401 93.0898 111.841 93.4531C112.286 93.8164 112.843 93.998 113.511 93.998C114.173 93.998 114.7 93.8311 115.093 93.4971C115.485 93.1631 115.682 92.7559 115.682 92.2754C115.682 91.8652 115.541 91.54 115.26 91.2998C114.984 91.0596 114.583 90.8896 114.056 90.79L112.904 90.5703C112.594 90.5117 112.271 90.4297 111.938 90.3242C111.604 90.2188 111.29 90.0723 110.997 89.8848C110.71 89.6973 110.476 89.4512 110.294 89.1465C110.118 88.8418 110.03 88.458 110.03 87.9951C110.03 87.374 110.191 86.8672 110.514 86.4746C110.842 86.0762 111.272 85.7803 111.806 85.5869C112.345 85.3936 112.925 85.2969 113.546 85.2969C114.226 85.2969 114.817 85.4023 115.321 85.6133C115.825 85.8242 116.235 86.126 116.552 86.5186C116.868 86.9111 117.079 87.3857 117.185 87.9424L115.559 88.2676C115.518 87.9102 115.421 87.5996 115.269 87.3359C115.122 87.0723 114.905 86.8701 114.618 86.7295C114.337 86.583 113.971 86.5098 113.52 86.5098C112.975 86.5098 112.506 86.624 112.113 86.8525C111.721 87.0811 111.524 87.4268 111.524 87.8896C111.524 88.1475 111.589 88.3672 111.718 88.5488C111.853 88.7305 112.052 88.8828 112.315 89.0059C112.585 89.123 112.922 89.2256 113.326 89.3135L114.495 89.5596C114.987 89.6592 115.441 89.8086 115.857 90.0078C116.273 90.2012 116.607 90.4707 116.859 90.8164C117.111 91.1621 117.237 91.6191 117.237 92.1875C117.237 92.8145 117.079 93.3564 116.763 93.8135C116.452 94.2646 116.019 94.6104 115.462 94.8506C114.911 95.0908 114.27 95.2109 113.537 95.2109ZM124.102 95V82.3438H132.214V83.6445H125.684V87.5469H131.563V88.8477H125.684V95H124.102ZM137.505 95.2109C136.614 95.2109 135.829 95.0029 135.149 94.5869C134.47 94.165 133.939 93.582 133.559 92.8379C133.178 92.0938 132.987 91.2324 132.987 90.2539C132.987 89.2754 133.178 88.4141 133.559 87.6699C133.939 86.9258 134.47 86.3457 135.149 85.9297C135.829 85.5078 136.614 85.2969 137.505 85.2969C138.396 85.2969 139.181 85.5078 139.86 85.9297C140.54 86.3457 141.07 86.9258 141.451 87.6699C141.832 88.4141 142.022 89.2754 142.022 90.2539C142.022 91.2324 141.832 92.0938 141.451 92.8379C141.07 93.582 140.54 94.165 139.86 94.5869C139.181 95.0029 138.396 95.2109 137.505 95.2109ZM137.505 93.9805C138.401 93.9805 139.107 93.6465 139.623 92.9785C140.145 92.3105 140.405 91.4023 140.405 90.2539C140.405 89.0996 140.145 88.1914 139.623 87.5293C139.107 86.8613 138.401 86.5273 137.505 86.5273C136.608 86.5273 135.899 86.8613 135.378 87.5293C134.862 88.1914 134.604 89.0996 134.604 90.2539C134.604 91.4023 134.862 92.3105 135.378 92.9785C135.899 93.6465 136.608 93.9805 137.505 93.9805ZM147.375 95.2109C146.713 95.2109 146.139 95.0615 145.652 94.7627C145.166 94.4639 144.791 94.0361 144.527 93.4795C144.264 92.9229 144.132 92.2578 144.132 91.4844V85.5078H145.608V91.3701C145.608 92.1436 145.755 92.7734 146.048 93.2598C146.341 93.7402 146.868 93.9805 147.63 93.9805C148.198 93.9805 148.69 93.834 149.106 93.541C149.522 93.248 149.845 92.8086 150.073 92.2227C150.308 91.6367 150.425 90.9043 150.425 90.0254V85.5078H151.901V95H150.513V92.7676L150.574 93.1543C150.328 93.7402 149.93 94.2295 149.379 94.6221C148.834 95.0146 148.166 95.2109 147.375 95.2109ZM154.767 95V85.5078H156.155V87.6523L156.094 87.2656C156.346 86.7207 156.744 86.2578 157.289 85.877C157.834 85.4902 158.496 85.2969 159.275 85.2969C159.949 85.2969 160.529 85.4463 161.016 85.7451C161.502 86.0439 161.877 86.4717 162.141 87.0283C162.404 87.5791 162.536 88.2441 162.536 89.0234V95H161.06V89.1377C161.06 88.3584 160.898 87.7285 160.576 87.248C160.26 86.7676 159.735 86.5273 159.003 86.5273C158.212 86.5273 157.553 86.8291 157.025 87.4326C156.504 88.0303 156.243 88.8975 156.243 90.0342V95H154.767ZM168.627 95.2109C167.859 95.2109 167.18 95.0088 166.588 94.6045C166.002 94.2002 165.545 93.626 165.217 92.8818C164.889 92.1377 164.725 91.2588 164.725 90.2451C164.725 89.2314 164.889 88.3555 165.217 87.6172C165.551 86.873 166.011 86.3018 166.597 85.9033C167.183 85.499 167.859 85.2969 168.627 85.2969C169.248 85.2969 169.863 85.4521 170.473 85.7627C171.082 86.0732 171.542 86.5977 171.853 87.3359L171.686 87.4062V81.8164H173.162V95H171.773V93.0225L171.817 93.1631C171.56 93.8545 171.132 94.3701 170.534 94.71C169.937 95.0439 169.301 95.2109 168.627 95.2109ZM169.014 93.9805C169.512 93.9805 169.966 93.8516 170.376 93.5938C170.786 93.3359 171.114 92.9346 171.36 92.3896C171.606 91.8389 171.729 91.1357 171.729 90.2803C171.729 89.0029 171.466 88.0596 170.938 87.4502C170.411 86.835 169.775 86.5273 169.031 86.5273C168.246 86.5273 167.602 86.8525 167.098 87.5029C166.594 88.1475 166.342 89.0732 166.342 90.2803C166.342 91.4521 166.585 92.3633 167.071 93.0137C167.558 93.6582 168.205 93.9805 169.014 93.9805Z" fill="#D5DAE2"/>
</svg>
