<svg width="107" height="30" viewBox="0 0 107 30" fill="none" xmlns="http://www.w3.org/2000/svg">
<path d="M0 7.30909H6.36873L10.0658 16.8818L13.8169 7.30909H20.0237L10.6865 30H4.45271L7.01639 24L0 7.30909ZM26.4734 6.92727C21.6968 6.92727 18.6744 11.2636 18.6744 15.5727C18.6744 20.4273 21.9937 24.2727 26.3924 24.2727C29.6847 24.2727 30.9261 22.2545 30.9261 22.2545V23.8364H36.4852V7.30909H30.9261V8.80909C30.8991 8.80909 29.5228 6.92727 26.4734 6.92727ZM27.6608 12.2455C29.8736 12.2455 31.0071 14.0182 31.0071 15.6C31.0071 17.3182 29.7927 19.0091 27.6608 19.0091C25.9067 19.0091 24.3145 17.5636 24.3145 15.6818C24.3145 13.7727 25.5829 12.2455 27.6608 12.2455ZM38.3743 23.8364V0H44.1763V8.86364C44.1763 8.86364 45.5526 6.92727 48.4401 6.92727C51.9753 6.92727 54.0532 9.6 54.0532 13.3909V23.8364H48.2782V14.8091C48.2782 13.5273 47.6845 12.2727 46.3082 12.2727C44.9049 12.2727 44.1763 13.5273 44.1763 14.8091V23.8364H38.3743ZM63.9571 6.92727C58.4789 6.92727 55.2136 11.1273 55.2136 15.6545C55.2136 20.7818 59.1536 24.3 63.9841 24.3C68.6527 24.3 72.7276 20.9455 72.7276 15.7364C72.7276 10.0364 68.4368 6.92727 63.9571 6.92727ZM64.0111 12.2727C65.9541 12.2727 67.2764 13.9091 67.2764 15.6273C67.2764 17.1 66.0351 18.9273 64.0111 18.9273C62.1491 18.9273 60.7728 17.4273 60.7728 15.6C60.7728 13.8818 61.9062 12.2727 64.0111 12.2727ZM82.3886 6.92727C76.9105 6.92727 73.6451 11.1273 73.6451 15.6545C73.6451 20.7818 77.5851 24.3 82.4156 24.3C87.0842 24.3 91.1591 20.9455 91.1591 15.7364C91.1591 10.0364 86.8953 6.92727 82.3886 6.92727ZM82.4426 12.2727C84.3856 12.2727 85.7079 13.9091 85.7079 15.6273C85.7079 17.1 84.4666 18.9273 82.4426 18.9273C80.5806 18.9273 79.2043 17.4273 79.2043 15.6C79.2043 13.8818 80.3647 12.2727 82.4426 12.2727ZM95.7468 16.3909C97.8787 16.3909 99.6058 18.1364 99.6058 20.2909C99.6058 22.4455 97.8787 24.1909 95.7468 24.1909C93.6149 24.1909 91.8878 22.4455 91.8878 20.2909C91.8878 18.1364 93.6149 16.3909 95.7468 16.3909ZM100.874 14.9727H93.9387L100.092 0H107L100.874 14.9727Z" fill="white"/>
</svg>
